SplineFontDB: 1.0
FontName: DBThaiText
FullName: DBThaiText
FamilyName: DBThaiText
Weight: Medium
Copyright: Typeface (c) The Monotype Corporation plc. Data (c) The Monotype Corporation plc/Type Solutions Inc. 1990-1992. All Rights Reserved\n\nModified by TLWG
Version: 2.0 : Dec 10, 2003
ItalicAngle: 0
UnderlinePosition: -50
UnderlineWidth: 40
Ascent: 800
Descent: 200
NeedsXUIDChange: 1
FSType: 0
PfmFamily: 33
TTFWeight: 500
TTFWidth: 5
Panose: 2 0 6 3 0 0 0 0 0 0
LineGap: 266
VLineGap: 0
OS2WinAscent: 0
OS2WinAOffset: 1
OS2WinDescent: 0
OS2WinDOffset: 1
HheadAscent: 0
HheadAOffset: 1
HheadDescent: 0
HheadDOffset: 1
ScriptLang: 4
 3 DFLT 1 dflt latn 1 dflt thai 4 KUY  PAL  THA  dflt 
 1 thai 4 KUY  PAL  THA  dflt 
 1 latn 1 dflt 
 1 thai 1 PAL  
ContextSub: glyph 0 3 ' RQD' 0 0 0 1
 String: 15 uni0E0D uni0E10
 BString: 0 
 FString: 0 
 1
  SeqLookup: 0 'ndsc'
EndFPST
ChainSub: coverage 0 1 'ccmp' 0 0 0 1
 1 1 0
  Coverage: 39 uni0E48 uni0E49 uni0E4A uni0E4B uni0E4C
  BCoverage: 414 uni0E01 uni0E02 uni0E03 uni0E04 uni0E05 uni0E06 uni0E07 uni0E08 uni0E09 uni0E0A uni0E0B uni0E0C uni0E0D uni0E0E uni0E0F uni0E10 uni0E11 uni0E12 uni0E13 uni0E14 uni0E15 uni0E16 uni0E17 uni0E18 uni0E19 uni0E1A uni0E1B uni0E1C uni0E1D uni0E1E uni0E1F uni0E20 uni0E21 uni0E22 uni0E23 uni0E24 uni0E25 uni0E26 uni0E27 uni0E28 uni0E29 uni0E2A uni0E2B uni0E2C uni0E2D uni0E2E uni0E10.descless uni0E0D.descless dottedcircle
 1
  SeqLookup: 0 'loww'
EndFPST
ChainSub: coverage 0 1 'ccmp' 0 0 0 1
 1 2 0
  Coverage: 39 uni0E48 uni0E49 uni0E4A uni0E4B uni0E4C
  BCoverage: 23 uni0E38 uni0E39 uni0E3A

StartChar: .notdef
Encoding: 0 -1 0
OldEncoding: 0
Width: 771
VWidth: 2048
Flags: W
HStem: -38 102<158 670> 1237 101<55 567>
VStem: 55 103<-38 1237> 567 103<64 1338>
Fore
55 -38 m 1
 55 1338 l 1
 670 1338 l 1
 670 -38 l 1
 55 -38 l 1
158 64 m 1
 567 64 l 1
 567 1237 l 1
 158 1237 l 1
 158 64 l 1
EndSplineSet
EndChar
StartChar: exclam
Encoding: 3 33 3
OldEncoding: 33
Width: 272
Flags: W
HStem: 0 21G<122 204>
VStem: 122 82<0 102 363 716>
Fore
184 164 m 1
 142 164 l 1
 122 364 l 1
 122 716 l 1
 204 716 l 1
 204 364 l 1
 184 164 l 1
122 102 m 1
 204 102 l 1
 204 0 l 1
 122 0 l 1
 122 102 l 1
EndSplineSet
EndChar
StartChar: quotedbl
Encoding: 4 34 4
OldEncoding: 34
Width: 327
VWidth: 2048
Flags: W
VStem: 44 82<604 716> 197 83<604 716>
Fore
64 476 m 1
 44 605 l 1
 44 716 l 1
 126 716 l 1
 126 605 l 1
 104 476 l 1
 64 476 l 1
218 476 m 1
 197 605 l 1
 197 716 l 1
 280 716 l 5
 280 605 l 1
 258 476 l 1
 218 476 l 1
EndSplineSet
EndChar
StartChar: numbersign
Encoding: 5 35 5
OldEncoding: 35
Width: 546
Flags: W
HStem: 187 78<13 112 203 310 402 500> 416 78<51 154 242 351 442 532> 416 270<203 351 400 532>
Fore
203 686 m 1xa0
 278 686 l 1xa0
 242 494 l 1
 365 494 l 1xc0
 400 686 l 1
 477 686 l 1xa0
 442 494 l 1
 532 494 l 1
 532 416 l 1xc0
 428 416 l 1xa0
 402 265 l 1
 500 265 l 1
 500 187 l 1
 386 187 l 1
 348 -20 l 1
 274 -20 l 1
 310 187 l 1
 188 187 l 1
 149 -20 l 1
 75 -20 l 1
 112 187 l 1
 13 187 l 1
 13 265 l 1
 126 265 l 1
 154 416 l 1
 51 416 l 1
 51 494 l 1
 167 494 l 1xc0
 203 686 l 1xa0
229 416 m 1
 203 265 l 1
 325 265 l 1
 351 416 l 1xc0
 229 416 l 1
EndSplineSet
EndChar
StartChar: dollar
Encoding: 6 36 6
OldEncoding: 36
Width: 546
Flags: W
VStem: 48 75<507.717 528> 239 60<-123 -22 46 303 400 632 704 757> 426 83<164 198>
Fore
489 512 m 1
 409 512 l 1
 407 547 400 576 381 594 c 1
 364 619 336 632 299 632 c 1
 299 392 l 1
 349 377 389 364 413 352 c 0
 438 342 458 325 480 297 c 0
 500 268 509 232 509 186 c 0
 509 135 493 90 461 54 c 0
 426 16 390 -4 352 -12 c 2
 299 -22 l 1
 299 -123 l 1
 239 -123 l 1
 239 -23 l 1
 200 -14 167 -7 142 1 c 0
 116 12 91 33 68 64 c 0
 45 96 33 142 33 204 c 1
 109 204 l 1
 112 175 116 151 122 133 c 0
 126 115 138 97 155 80 c 0
 174 65 202 54 239 46 c 1
 239 313 l 1
 223 318 204 325 184 331 c 0
 162 338 144 345 128 355 c 0
 110 364 97 376 86 387 c 1
 61 418 48 464 48 528 c 1
 54 584 75 628 110 655 c 0
 144 683 188 700 239 705 c 1
 239 757 l 1
 299 757 l 1
 299 705 l 1
 352 700 399 682 432 652 c 0
 454 634 468 613 477 587 c 0
 484 558 489 534 489 512 c 1
239 400 m 1
 239 634 l 1
 210 632 184 622 161 603 c 0
 138 581 123 557 123 529 c 0
 122 494 133 467 154 444 c 0
 175 420 203 406 239 400 c 1
299 303 m 1
 299 48 l 1
 315 49 332 54 351 62 c 0
 368 68 387 81 403 103 c 0
 418 123 426 149 426 184 c 0
 426 222 415 249 392 264 c 0
 367 280 336 291 299 303 c 1
EndSplineSet
EndChar
StartChar: percent
Encoding: 7 37 7
OldEncoding: 37
Width: 872
Flags: W
HStem: -20 69<677 685> 248 68<677 685> 338 68<197 212> 605 68<197 210>
VStem: 28 69<505 509> 297 68<505 509> 508 69<149 157> 774 70<149 157>
Fore
597 696 m 1
 666 696 l 1
 277 -20 l 1
 210 -20 l 1
 597 696 l 1
28 505 m 0
 28 552 45 592 77 625 c 0
 112 657 151 673 197 673 c 0
 244 673 283 657 316 625 c 0
 349 592 365 552 365 505 c 0
 365 458 349 419 315 387 c 0
 281 354 242 338 197 338 c 0
 152 338 113 354 78 387 c 0
 45 419 28 458 28 505 c 0
508 149 m 0
 508 194 525 235 557 267 c 0
 590 300 629 316 677 316 c 0
 708 316 735 307 760 293 c 0
 786 278 806 260 821 232 c 0
 835 209 844 180 844 149 c 0
 844 102 828 62 795 29 c 0
 761 -3 722 -20 677 -20 c 0
 631 -20 592 -3 557 29 c 0
 525 62 508 102 508 149 c 0
97 505 m 0
 97 477 106 454 126 436 c 0
 146 416 168 406 197 406 c 0
 225 406 249 416 268 436 c 0
 287 454 297 477 297 505 c 0
 297 522 291 541 283 555 c 0
 276 570 262 583 248 592 c 0
 232 600 215 605 197 605 c 0
 168 605 146 596 126 577 c 0
 104 555 97 532 97 505 c 0
577 149 m 0
 577 122 587 97 606 78 c 0
 626 59 648 49 677 49 c 0
 705 49 728 59 747 78 c 0
 766 97 774 122 774 149 c 0
 774 177 766 200 745 218 c 0
 726 238 703 248 677 248 c 0
 648 248 626 238 606 218 c 0
 587 200 577 177 577 149 c 0
EndSplineSet
EndChar
StartChar: ampersand
Encoding: 8 38 8
OldEncoding: 38
Width: 655
Flags: W
HStem: -23 78<243 264> 629 68<278 308>
VStem: 130 85<542 566> 380 83<545 554>
Fore
626 0 m 1
 518 0 l 1
 457 72 l 1
 452 68 445 62 434 52 c 0
 423 41 412 33 400 25 c 0
 387 14 374 7 358 -1 c 1
 319 -16 281 -23 248 -23 c 0
 209 -23 174 -14 144 3 c 0
 86 38 52 88 51 160 c 0
 49 204 59 242 77 273 c 0
 96 302 122 329 155 352 c 2
 206 387 l 1
 174 434 l 2
 149 470 130 505 130 544 c 0
 130 594 154 639 202 670 c 0
 231 690 264 697 300 697 c 0
 344 697 381 683 412 655 c 0
 445 622 463 587 463 545 c 0
 463 518 454 492 438 467 c 0
 420 441 402 419 377 405 c 2
 325 373 l 1
 454 213 l 1
 476 255 484 293 484 328 c 1
 564 328 l 1
 564 302 557 273 545 238 c 0
 534 203 521 174 505 149 c 1
 626 0 l 1
370 589 m 0
 365 602 355 610 342 618 c 0
 329 626 313 629 294 629 c 0
 276 629 257 625 242 613 c 0
 228 602 219 587 215 566 c 1
 215 534 218 512 226 499 c 0
 235 484 252 464 278 432 c 1
 300 441 323 454 345 474 c 0
 368 493 380 518 380 545 c 0
 380 560 377 574 370 589 c 0
412 133 m 1
 254 329 l 1
 244 325 232 316 218 306 c 0
 203 297 190 286 178 274 c 0
 167 261 155 244 148 225 c 0
 139 204 135 184 135 161 c 1
 138 139 151 116 173 91 c 0
 193 67 225 55 262 55 c 0
 287 55 310 61 331 71 c 0
 352 78 378 100 412 133 c 1
EndSplineSet
EndChar
StartChar: quotesingle
Encoding: 9 39 9
OldEncoding: 39
Width: 175
VWidth: 2048
Flags: W
VStem: 44 82<604 716>
Fore
64 476 m 1
 44 605 l 1
 44 716 l 1
 126 716 l 5
 126 605 l 1
 104 476 l 1
 64 476 l 1
EndSplineSet
EndChar
StartChar: parenleft
Encoding: 10 40 10
OldEncoding: 40
Width: 327
Flags: W
VStem: 72 82<254 287>
Fore
231 716 m 1
 287 716 l 1
 239 635 204 557 186 477 c 0
 164 396 154 320 154 254 c 0
 154 187 164 113 186 33 c 0
 204 -48 239 -129 287 -210 c 1
 231 -210 l 1
 210 -180 188 -146 168 -109 c 0
 149 -72 130 -33 116 10 c 0
 102 52 91 96 84 136 c 0
 75 178 72 218 72 254 c 0
 72 307 80 362 93 418 c 0
 109 476 126 529 151 580 c 0
 175 632 202 679 231 716 c 1
EndSplineSet
EndChar
StartChar: parenright
Encoding: 11 41 11
OldEncoding: 41
Width: 327
Flags: W
VStem: 171 81<254 287>
Fore
38 716 m 1
 91 716 l 1
 123 676 149 631 174 580 c 0
 199 529 216 474 231 416 c 0
 246 358 252 304 252 254 c 0
 252 202 246 148 231 91 c 0
 216 35 199 -20 174 -71 c 0
 149 -122 123 -168 91 -210 c 1
 38 -210 l 1
 71 -155 97 -100 116 -42 c 0
 136 12 151 64 160 115 c 0
 167 165 171 212 171 254 c 0
 171 289 168 320 164 355 c 0
 160 390 152 426 142 465 c 0
 133 503 119 545 102 592 c 0
 81 638 61 679 38 716 c 1
EndSplineSet
EndChar
StartChar: asterisk
Encoding: 12 42 12
OldEncoding: 42
Width: 381
Flags: W
Fore
39 597 m 1
 58 655 l 1
 161 618 l 1
 157 728 l 1
 218 728 l 1
 215 618 l 1
 316 654 l 1
 338 593 l 1
 231 567 l 1
 297 478 l 1
 249 444 l 1
 188 536 l 1
 125 445 l 1
 77 480 l 1
 144 567 l 1
 39 597 l 1
EndSplineSet
EndChar
StartChar: plus
Encoding: 13 43 13
OldEncoding: 43
Width: 572
Flags: W
HStem: 318 69<49 252 320 525>
VStem: 252 68<115 318 387 590>
Fore
252 590 m 5
 320 590 l 5
 320 387 l 5
 525 387 l 5
 525 318 l 5
 320 318 l 5
 320 115 l 5
 252 115 l 5
 252 318 l 5
 49 318 l 5
 49 387 l 5
 252 387 l 5
 252 590 l 5
EndSplineSet
EndChar
StartChar: comma
Encoding: 14 44 14
OldEncoding: 44
Width: 272
Flags: W
Fore
209 49 m 0
 209 4 194 -30 168 -55 c 0
 141 -80 113 -93 81 -99 c 0
 67 -99 59 -96 59 -90 c 0
 59 -88 61 -86 64 -81 c 1
 78 -77 96 -67 116 -54 c 0
 138 -41 149 -25 152 -3 c 1
 149 -4 144 -4 139 -7 c 0
 135 -9 128 -10 122 -10 c 0
 77 -4 55 17 55 59 c 0
 55 78 62 96 74 109 c 0
 86 122 102 128 123 128 c 0
 177 128 206 102 209 49 c 0
EndSplineSet
EndChar
StartChar: hyphen
Encoding: 15 45 15
OldEncoding: 45
Width: 327
Flags: W
HStem: 236 71<46 278>
Fore
278 307 m 1
 278 236 l 1
 46 236 l 1
 46 307 l 1
 278 307 l 1
EndSplineSet
EndChar
StartChar: period
Encoding: 16 46 16
OldEncoding: 46
Width: 272
Flags: W
Fore
52 75 m 0
 52 93 59 110 74 125 c 0
 88 139 104 146 123 146 c 0
 135 146 146 142 157 136 c 0
 168 129 177 122 184 110 c 0
 190 99 193 87 193 75 c 0
 193 58 187 41 173 26 c 0
 160 12 142 4 123 4 c 0
 104 4 88 12 74 26 c 0
 59 41 52 58 52 75 c 0
EndSplineSet
EndChar
StartChar: slash
Encoding: 17 47 17
OldEncoding: 47
Width: 272
Flags: W
Fore
-9 -22 m 1
 225 696 l 1
 278 696 l 1
 46 -22 l 1
 -9 -22 l 1
EndSplineSet
EndChar
StartChar: zero
Encoding: 18 48 18
OldEncoding: 48
Width: 561
Flags: W
HStem: -25 84<277 285> 629 87<277 285>
VStem: 44 84<326 376> 426 86<310 376>
Fore
277 -25 m 0
 242 -25 209 -16 177 1 c 0
 142 19 117 48 94 83 c 0
 77 116 64 157 57 207 c 0
 48 257 44 302 44 348 c 0
 44 392 48 438 57 487 c 0
 64 536 77 579 94 612 c 1
 117 645 142 671 177 690 c 0
 209 708 242 716 277 716 c 4
 316 716 349 708 383 690 c 0
 415 671 441 645 460 612 c 0
 493 554 512 467 512 348 c 0
 512 228 493 141 460 83 c 0
 441 48 415 19 381 1 c 0
 348 -16 315 -25 277 -25 c 0
277 59 m 0
 326 59 367 83 393 133 c 0
 399 142 406 158 410 181 c 0
 415 202 418 228 420 258 c 0
 425 287 426 318 426 345 c 0
 426 370 425 400 420 432 c 0
 418 461 415 487 410 509 c 0
 406 532 399 548 393 558 c 0
 367 608 326 629 277 629 c 0
 257 629 233 625 215 612 c 0
 194 600 177 583 164 558 c 0
 154 541 148 512 139 468 c 0
 133 425 128 383 128 345 c 0
 128 307 133 265 139 223 c 0
 144 181 152 151 164 133 c 0
 177 109 193 91 215 78 c 0
 235 65 257 59 277 59 c 0
EndSplineSet
EndChar
StartChar: one
Encoding: 19 49 19
OldEncoding: 49
Width: 561
Flags: W
HStem: 0 21G<265 351>
VStem: 265 86<0 716>
Fore
351 0 m 1
 265 0 l 1
 265 505 l 1
 103 505 l 1
 103 576 l 1
 152 581 187 590 210 596 c 0
 232 605 245 616 257 632 c 0
 265 650 277 676 291 716 c 1
 351 716 l 5
 351 0 l 1
EndSplineSet
EndChar
StartChar: two
Encoding: 20 50 20
OldEncoding: 50
Width: 561
Flags: W
HStem: 0 83<128 512> 638 78<272 302>
VStem: 426 92<492 502>
Fore
376 293 m 2
 257 232 l 2
 233 219 207 200 177 170 c 0
 144 141 128 112 128 83 c 1
 512 83 l 1
 512 0 l 1
 33 0 l 1
 41 58 48 99 55 126 c 0
 61 152 77 181 103 210 c 0
 126 241 167 273 219 302 c 2
 329 362 l 2
 392 396 425 442 426 494 c 0
 428 525 418 552 406 576 c 0
 392 596 373 612 351 624 c 0
 329 632 306 638 284 638 c 0
 232 637 194 621 173 592 c 0
 151 561 139 521 136 468 c 1
 49 468 l 1
 51 515 59 552 70 586 c 0
 78 619 99 645 133 668 c 1
 157 687 181 700 207 705 c 0
 232 712 264 716 302 716 c 4
 360 713 407 699 444 667 c 0
 478 635 502 594 512 548 c 0
 516 529 518 515 518 502 c 0
 518 458 503 418 474 381 c 0
 444 342 410 310 376 293 c 2
EndSplineSet
EndChar
StartChar: three
Encoding: 21 51 21
OldEncoding: 51
Width: 561
Flags: W
HStem: -25 83<245 274> 329 77<225 265> 637 79<257 277>
VStem: 49 84<484 510.754> 399 91<502 525> 420 92<199 216>
Fore
32 209 m 1xf4
 117 209 l 1
 119 200 120 187 123 170 c 0
 125 154 128 139 136 120 c 0
 144 103 157 90 174 78 c 1
 193 65 216 58 245 58 c 0
 362 57 423 107 420 209 c 0xf4
 420 254 406 284 378 302 c 0
 352 319 316 329 265 329 c 0
 248 329 233 329 225 326 c 1
 225 406 l 1
 287 407 334 415 360 428 c 0
 384 442 400 474 399 523 c 0
 399 568 383 600 357 615 c 0
 332 628 299 637 257 637 c 1
 226 629 202 624 184 610 c 0
 167 599 154 584 149 570 c 0
 141 554 136 538 135 521 c 0
 133 503 133 492 133 484 c 1
 49 486 l 1
 49 560 67 615 106 657 c 0
 142 696 197 716 265 716 c 0
 307 716 345 708 378 695 c 0
 412 680 441 657 460 626 c 0
 478 594 490 558 490 512 c 0xf8
 490 476 483 448 468 429 c 0
 452 410 429 392 406 370 c 1
 445 352 474 329 487 303 c 0
 502 277 512 242 512 199 c 0
 515 152 499 112 476 77 c 0
 452 41 418 12 370 -3 c 0
 335 -16 303 -22 274 -25 c 0
 244 -25 223 -19 209 -17 c 0
 148 -3 106 19 78 59 c 0
 55 99 36 149 32 209 c 1xf4
EndSplineSet
EndChar
StartChar: four
Encoding: 22 52 22
OldEncoding: 52
Width: 561
Flags: W
HStem: 0 21G<336 420> 168 84<107 336 420 525>
VStem: 336 84<0 168 252 716>
Fore
336 168 m 1
 28 168 l 1
 28 264 l 1
 354 716 l 1
 420 716 l 1
 420 252 l 1
 525 252 l 1
 525 168 l 1
 420 168 l 1
 420 0 l 1
 336 0 l 1
 336 168 l 1
336 252 m 1
 336 574 l 1
 107 252 l 1
 336 252 l 1
EndSplineSet
EndChar
StartChar: five
Encoding: 23 53 23
OldEncoding: 53
Width: 561
Flags: W
HStem: -25 86<272 290> 387 84<258 292> 628 88<112 484>
VStem: 420 99<197 227>
Fore
139 325 m 1
 58 325 l 1
 112 716 l 1
 484 716 l 1
 484 628 l 1
 184 628 l 1
 154 429 l 1
 187 458 231 471 281 471 c 0
 318 471 349 467 377 457 c 0
 471 420 521 342 519 225 c 0
 518 173 502 128 478 91 c 0
 458 57 428 28 393 9 c 0
 365 -6 332 -16 290 -25 c 1
 254 -25 219 -19 190 -12 c 0
 157 -1 128 14 107 33 c 0
 86 51 72 67 64 86 c 0
 55 103 48 120 44 139 c 0
 41 157 36 168 35 174 c 1
 126 174 l 1
 136 144 152 119 174 94 c 0
 197 74 232 61 286 61 c 1
 367 72 412 116 420 197 c 1
 420 261 409 310 378 342 c 0
 351 373 316 387 274 387 c 0
 223 387 177 367 139 325 c 1
EndSplineSet
EndChar
StartChar: six
Encoding: 24 54 24
OldEncoding: 54
Width: 561
Flags: W
HStem: -25 80<267 286> 367 78<279 305> 635 81<297 319>
VStem: 44 81<365 401> 429 90<198 220>
Fore
503 529 m 1
 416 529 l 1
 416 554 409 579 392 596 c 0
 373 615 349 628 319 635 c 1
 244 635 193 603 164 541 c 0
 136 486 125 434 125 387 c 0
 125 378 126 370 128 362 c 1
 144 377 157 387 167 399 c 0
 177 409 186 416 200 423 c 0
 215 429 228 436 242 441 c 0
 257 444 274 445 299 445 c 0
 336 445 373 438 402 423 c 0
 432 407 458 384 476 360 c 0
 493 334 508 306 512 276 c 1
 518 260 519 241 519 218 c 0
 519 197 518 177 512 164 c 1
 505 125 492 93 470 67 c 0
 444 35 418 12 393 -1 c 0
 365 -16 326 -25 281 -25 c 0
 245 -25 212 -16 181 0 c 0
 149 14 125 35 109 61 c 1
 78 102 61 142 55 187 c 0
 48 232 44 291 44 365 c 0
 44 423 51 477 67 528 c 0
 90 593 120 641 165 670 c 0
 207 700 252 716 302 716 c 0
 354 716 400 699 438 666 c 0
 458 645 474 626 484 608 c 0
 493 590 500 563 503 529 c 1
406 117 m 0
 423 141 429 170 429 207 c 0
 429 244 420 281 399 319 c 0
 378 351 341 367 286 367 c 0
 264 367 244 362 225 352 c 0
 202 342 186 332 174 318 c 0
 149 291 136 260 136 218 c 0
 136 181 149 144 170 112 c 0
 199 75 235 55 286 55 c 0
 336 51 377 75 406 117 c 0
EndSplineSet
EndChar
StartChar: seven
Encoding: 25 55 25
OldEncoding: 55
Width: 561
Flags: W
HStem: 0 21G<139 233> 632 84<48 432>
Fore
48 632 m 1
 48 716 l 1
 525 716 l 1
 525 641 l 1
 445 528 l 2
 416 486 386 432 352 367 c 0
 299 260 257 136 233 0 c 1
 139 0 l 1
 161 91 181 158 197 202 c 0
 210 244 235 294 270 360 c 0
 293 400 325 454 362 519 c 0
 400 583 425 621 432 632 c 1
 48 632 l 1
EndSplineSet
EndChar
StartChar: eight
Encoding: 26 56 26
OldEncoding: 56
Width: 561
Flags: W
HStem: 336 76<263 273> 638 78<263 282>
VStem: 64 88<525 536> 406 87<525 536> 426 93<181 200>
Fore
139 674 m 0xe8
 177 702 219 716 270 716 c 0
 326 716 381 703 426 674 c 0xe8
 448 660 463 637 476 609 c 0
 487 581 493 552 493 525 c 0xf0
 493 486 484 457 467 436 c 1
 452 416 429 396 402 377 c 1
 425 373 451 352 477 318 c 0
 505 281 519 235 519 181 c 1
 512 117 483 65 429 25 c 1
 383 -9 329 -26 268 -25 c 0
 239 -25 209 -16 178 -6 c 0
 149 3 125 19 103 41 c 0
 61 75 42 123 41 181 c 0
 36 239 51 281 74 307 c 1
 81 325 107 349 152 377 c 1
 135 392 123 399 117 406 c 0
 110 410 103 416 97 425 c 0
 91 432 86 441 78 451 c 0
 70 471 64 499 64 525 c 0
 64 586 90 637 139 674 c 0xe8
362 612 m 0
 342 629 316 638 278 638 c 0
 241 638 210 628 187 609 c 0
 165 590 152 561 152 525 c 0
 152 515 152 499 161 478 c 0
 177 438 212 412 265 412 c 0
 320 410 360 426 381 457 c 0
 396 477 406 502 406 525 c 0xf0
 406 561 392 592 362 612 c 0
396 286 m 0
 367 319 325 339 273 336 c 0
 219 336 181 318 154 284 c 0
 136 260 128 228 128 190 c 0
 133 149 144 120 165 103 c 1
 183 83 216 70 265 59 c 1
 302 61 335 70 365 83 c 1
 407 110 426 149 426 194 c 0xe8
 426 216 425 233 418 248 c 0
 412 264 407 276 396 286 c 0
EndSplineSet
EndChar
StartChar: nine
Encoding: 27 57 27
OldEncoding: 57
Width: 561
Flags: W
HStem: -25 86<242 270> 244 75<264 294> 635 81<264 276>
VStem: 41 85<468 488> 432 83<302 354>
Fore
51 158 m 1
 141 158 l 1
 141 135 151 112 170 94 c 0
 190 77 215 65 242 61 c 1
 316 61 367 90 394 148 c 0
 406 170 412 197 420 226 c 0
 426 254 432 278 432 302 c 0
 432 307 429 318 428 326 c 1
 407 300 381 277 351 261 c 0
 336 254 318 248 294 244 c 1
 264 244 239 245 218 248 c 0
 170 254 133 274 103 306 c 0
 74 335 55 370 44 412 c 0
 42 426 41 445 41 471 c 0
 41 486 42 505 44 532 c 1
 51 568 65 599 87 625 c 0
 116 658 141 683 167 696 c 0
 193 708 228 716 276 716 c 0
 354 718 412 686 451 628 c 0
 483 583 502 515 512 420 c 0
 515 407 515 384 515 354 c 0
 515 325 515 303 512 290 c 0
 509 249 502 209 490 164 c 0
 471 97 436 45 386 16 c 0
 351 -6 310 -17 270 -25 c 1
 232 -25 202 -19 178 -14 c 0
 154 -6 133 6 112 25 c 0
 75 61 57 107 51 158 c 1
152 576 m 0
 135 551 126 519 126 483 c 0
 126 444 136 407 158 370 c 0
 181 336 218 318 273 319 c 0
 294 319 318 326 336 336 c 0
 357 348 373 360 383 373 c 1
 409 399 420 429 420 470 c 0
 420 509 409 545 386 579 c 0
 377 594 361 609 339 619 c 0
 319 628 299 635 274 635 c 0
 219 635 181 615 152 576 c 0
EndSplineSet
EndChar
StartChar: colon
Encoding: 28 58 28
OldEncoding: 58
Width: 272
Flags: W
HStem: 12 140<142 153> 425 141<142 153>
Fore
72 81 m 0
 72 100 78 116 93 130 c 0
 109 146 125 152 142 152 c 0
 155 152 167 149 177 142 c 0
 188 138 197 128 203 116 c 0
 210 104 213 93 213 81 c 0
 213 64 206 48 191 33 c 0
 177 17 161 12 142 12 c 0
 125 12 109 17 93 33 c 0
 78 48 72 64 72 81 c 0
72 494 m 0
 72 513 78 531 93 545 c 0
 109 558 125 566 142 566 c 0
 162 566 178 558 193 545 c 1
 206 531 213 513 213 494 c 0
 213 477 206 461 191 445 c 0
 177 431 161 425 142 425 c 0
 125 425 109 431 93 445 c 0
 78 461 72 477 72 494 c 0
EndSplineSet
EndChar
StartChar: semicolon
Encoding: 29 59 29
OldEncoding: 59
Width: 272
Flags: W
HStem: -10 138<128 132> 418 140<116 127>
Fore
215 49 m 0
 215 4 202 -30 174 -55 c 0
 148 -80 119 -93 88 -99 c 0
 74 -99 65 -96 65 -90 c 0
 65 -88 67 -86 71 -81 c 1
 86 -77 102 -67 123 -54 c 0
 144 -41 157 -25 160 -3 c 1
 155 -4 151 -4 146 -7 c 0
 139 -9 133 -10 128 -10 c 0
 84 -4 62 17 62 59 c 0
 62 78 68 96 80 109 c 0
 91 122 109 128 129 128 c 0
 184 128 213 102 215 49 c 0
46 489 m 0
 46 506 52 522 67 538 c 0
 81 552 99 558 116 558 c 0
 128 558 139 555 151 550 c 0
 162 542 173 534 177 522 c 0
 184 513 187 502 187 489 c 0
 187 470 180 454 165 439 c 0
 151 425 135 418 116 418 c 0
 99 418 81 425 67 439 c 0
 52 454 46 470 46 489 c 0
EndSplineSet
EndChar
StartChar: less
Encoding: 30 60 30
OldEncoding: 60
Width: 572
Flags: W
Fore
525 592 m 5
 525 513 l 5
 136 354 l 5
 525 194 l 5
 525 116 l 5
 45 319 l 5
 45 389 l 5
 525 592 l 5
EndSplineSet
EndChar
StartChar: equal
Encoding: 31 61 31
OldEncoding: 61
Width: 572
Flags: W
HStem: 235 68<49 525> 402 68<49 525>
Fore
49 470 m 5
 525 470 l 5
 525 402 l 5
 49 402 l 5
 49 470 l 5
49 303 m 5
 525 303 l 5
 525 235 l 5
 49 235 l 5
 49 303 l 5
EndSplineSet
EndChar
StartChar: greater
Encoding: 32 62 32
OldEncoding: 62
Width: 572
Flags: W
Fore
529 389 m 5
 529 319 l 5
 49 116 l 5
 49 194 l 5
 434 354 l 5
 49 513 l 5
 49 592 l 5
 529 389 l 5
EndSplineSet
EndChar
StartChar: question
Encoding: 33 63 33
OldEncoding: 63
Width: 546
Flags: W
HStem: 0 21G<236 326> 494 21G<75 161> 651 75<282 299>
VStem: 75 89<494 532> 236 90<0 102 191 253> 412 88<530 544>
Fore
326 191 m 1
 236 191 l 1
 236 251 l 2
 236 278 244 304 262 328 c 0
 280 352 300 374 323 394 c 0
 335 405 342 413 351 420 c 0
 376 445 l 0
 383 455 389 465 393 474 c 0
 405 500 412 522 412 542 c 0
 412 564 406 581 396 597 c 0
 386 615 373 628 354 638 c 0
 336 645 315 651 291 651 c 0
 261 651 235 644 216 632 c 0
 197 621 184 605 175 587 c 0
 167 568 164 551 164 532 c 0
 162 515 162 503 161 494 c 1
 75 494 l 1
 75 538 81 577 97 610 c 0
 110 645 133 671 167 693 c 0
 200 715 242 726 297 726 c 0
 312 726 323 726 331 724 c 0
 374 719 407 706 432 684 c 0
 457 666 476 642 484 616 c 0
 494 590 500 564 500 538 c 0
 500 515 496 493 490 471 c 0
 481 441 445 396 381 339 c 0
 365 325 352 312 342 297 c 0
 331 281 326 262 326 238 c 2
 326 191 l 1
236 0 m 1
 236 102 l 1
 326 102 l 1
 326 0 l 1
 236 0 l 1
EndSplineSet
EndChar
StartChar: at
Encoding: 34 64 34
OldEncoding: 64
Width: 997
Flags: W
HStem: -144 73<464 509> 52 70<668 695> 441 72<496 514>
VStem: 33 84<255 289> 257 91<236 257> 857 77<351 386>
Fore
735 490 m 1
 641 194 l 2
 635 180 634 171 634 165 c 0
 634 157 638 148 642 139 c 0
 651 128 668 122 695 122 c 1
 722 128 747 139 768 157 c 0
 790 175 806 193 818 213 c 0
 844 260 857 315 857 380 c 1
 853 406 842 434 828 465 c 0
 812 496 796 521 779 539 c 0
 760 558 729 580 689 602 c 0
 647 622 606 638 564 645 c 0
 544 648 525 651 505 651 c 0
 461 651 418 642 377 626 c 0
 336 609 302 589 270 564 c 0
 235 534 204 500 180 463 c 0
 155 425 139 392 130 364 c 0
 123 332 117 302 117 273 c 0
 117 218 129 165 152 116 c 0
 167 86 193 55 228 28 c 0
 262 -1 302 -28 349 -48 c 0
 390 -64 432 -71 480 -71 c 0
 539 -71 603 -59 673 -36 c 1
 702 -102 l 1
 625 -129 551 -144 478 -144 c 0
 426 -144 374 -136 323 -119 c 0
 286 -106 239 -81 187 -46 c 0
 135 -10 97 30 74 77 c 0
 46 130 33 191 33 260 c 0
 33 297 38 329 46 357 c 0
 61 405 81 454 110 502 c 0
 139 550 178 592 228 628 c 0
 252 645 281 664 315 679 c 0
 349 693 386 705 423 713 c 0
 461 721 500 726 541 724 c 0
 590 722 644 708 705 683 c 0
 764 658 809 625 847 583 c 0
 870 557 893 528 908 492 c 0
 924 454 934 419 934 386 c 0
 935 339 931 303 922 277 c 0
 915 252 903 225 887 197 c 0
 874 173 857 146 834 119 c 0
 811 96 780 74 742 62 c 0
 718 54 693 52 668 52 c 0
 647 52 631 54 621 58 c 0
 603 62 589 72 577 87 c 0
 566 100 558 113 557 126 c 1
 538 106 l 0
 531 99 522 91 512 86 c 0
 500 77 484 71 467 65 c 0
 452 61 434 58 415 58 c 0
 394 58 377 61 361 67 c 0
 332 78 313 93 302 110 c 0
 290 125 278 144 268 167 c 0
 261 188 257 212 257 236 c 0
 257 257 260 276 264 293 c 0
 281 364 318 425 377 467 c 0
 420 500 467 513 512 513 c 0
 525 513 536 512 547 508 c 0
 568 502 587 490 603 474 c 0
 618 455 628 439 632 425 c 1
 654 490 l 1
 735 490 l 1
596 370 m 0
 594 389 590 403 581 413 c 0
 574 423 558 431 538 436 c 0
 529 439 519 441 508 441 c 0
 484 441 463 434 441 420 c 0
 420 407 405 393 392 376 c 0
 378 357 368 335 361 307 c 0
 352 283 348 260 348 236 c 0
 348 206 355 180 374 157 c 0
 392 133 416 119 444 119 c 0
 452 119 461 122 468 123 c 0
 496 130 522 151 544 186 c 1
 558 204 568 232 580 270 c 0
 590 306 596 339 596 370 c 0
EndSplineSet
EndChar
StartChar: A
Encoding: 35 65 35
OldEncoding: 65
Width: 655
Flags: W
HStem: 0 21G<16 115 539 642> 215 76<216 465>
Fore
191 215 m 1
 115 0 l 1
 16 0 l 1
 277 716 l 1
 390 716 l 1
 642 0 l 1
 539 0 l 1
 465 215 l 1
 191 215 l 1
332 605 m 1
 216 291 l 1
 439 291 l 1
 332 605 l 1
EndSplineSet
EndChar
StartChar: B
Encoding: 36 66 36
OldEncoding: 66
Width: 655
Flags: W
HStem: 0 81<171 431> 328 81<171 382> 635 81<77 354>
VStem: 77 94<0 328 0 635> 487 93<540 558> 521 92<193 226>
Fore
431 0 m 2xf4
 77 0 l 1
 77 716 l 1
 394 716 l 2
 419 716 445 710 470 700 c 0
 494 689 515 676 532 657 c 0
 558 632 576 600 580 558 c 1xf8
 580 465 551 406 490 380 c 1
 502 376 513 370 525 364 c 0
 536 357 550 348 563 335 c 0
 576 320 589 303 597 280 c 0
 609 255 613 228 613 193 c 0
 610 151 600 115 579 87 c 0
 557 59 532 38 505 23 c 0
 477 9 452 0 431 0 c 2xf4
171 635 m 1
 171 409 l 1
 361 409 l 2
 407 409 442 420 461 444 c 0
 478 468 487 502 487 542 c 1
 481 577 463 602 428 616 c 0
 393 629 362 635 338 635 c 2
 171 635 l 1
171 328 m 1
 171 81 l 1
 402 81 l 2
 442 81 474 96 492 123 c 0
 512 151 521 186 521 226 c 1xf4
 516 267 500 293 471 307 c 0
 444 320 403 328 351 328 c 2
 171 328 l 1
EndSplineSet
EndChar
StartChar: C
Encoding: 37 67 37
OldEncoding: 67
Width: 709
Flags: W
HStem: -23 84<351 369> 494 21G<557 652> 645 84<351 369>
VStem: 48 93<352 378>
Fore
652 494 m 1
 557 494 l 1
 544 529 529 555 513 577 c 0
 502 592 487 605 470 615 c 0
 452 626 436 634 419 639 c 0
 403 644 386 645 365 645 c 0
 336 645 307 639 280 628 c 0
 252 616 229 600 210 577 c 0
 188 551 171 518 160 478 c 0
 148 438 141 394 141 352 c 0
 141 310 149 268 161 229 c 0
 174 188 188 155 210 129 c 0
 248 84 299 61 365 61 c 0
 428 61 477 84 513 129 c 0
 525 144 536 164 547 188 c 0
 558 213 567 238 571 262 c 1
 666 262 l 1
 651 175 616 104 558 51 c 0
 541 35 515 17 477 1 c 0
 439 -14 400 -23 361 -23 c 0
 319 -23 281 -14 244 1 c 0
 206 16 178 33 161 51 c 0
 122 88 91 135 74 188 c 0
 55 242 48 297 48 352 c 0
 48 409 55 464 74 518 c 0
 91 571 122 618 161 655 c 0
 178 673 206 690 244 705 c 0
 281 719 319 729 361 729 c 0
 400 729 439 719 477 705 c 0
 515 690 541 673 558 655 c 0
 600 618 631 564 652 494 c 1
EndSplineSet
EndChar
StartChar: D
Encoding: 38 68 38
OldEncoding: 68
Width: 709
Flags: W
HStem: 0 81<180 415> 635 81<87 376>
VStem: 87 93<0 635> 564 91<355 385>
Fore
415 0 m 2
 87 0 l 1
 87 716 l 1
 364 716 l 2
 441 716 506 690 560 639 c 0
 615 587 645 515 652 425 c 0
 655 392 655 368 655 355 c 0
 655 252 631 168 580 106 c 0
 552 71 522 45 492 28 c 0
 461 10 436 0 415 0 c 2
355 635 m 2
 180 635 l 1
 180 81 l 1
 380 81 l 2
 405 81 429 87 454 97 c 0
 468 103 487 119 506 144 c 0
 528 171 538 191 542 210 c 0
 554 260 563 307 564 355 c 0
 566 438 551 500 525 544 c 0
 487 605 431 635 355 635 c 2
EndSplineSet
EndChar
StartChar: E
Encoding: 39 69 39
OldEncoding: 69
Width: 655
Flags: W
HStem: 0 81<180 603> 328 81<180 570> 635 81<88 587>
VStem: 88 92<0 328 0 635>
Fore
88 0 m 1
 88 716 l 1
 587 716 l 1
 587 635 l 1
 180 635 l 1
 180 409 l 1
 570 409 l 1
 570 328 l 1
 180 328 l 1
 180 81 l 1
 603 81 l 1
 603 0 l 1
 88 0 l 1
EndSplineSet
EndChar
StartChar: F
Encoding: 40 70 40
OldEncoding: 70
Width: 600
Flags: W
HStem: 0 21G<88 180> 328 81<180 521> 635 81<88 568>
VStem: 88 92<0 328 0 635>
Fore
88 0 m 1
 88 716 l 1
 568 716 l 1
 568 635 l 1
 180 635 l 1
 180 409 l 1
 521 409 l 1
 521 328 l 1
 180 328 l 1
 180 0 l 1
 88 0 l 1
EndSplineSet
EndChar
StartChar: G
Encoding: 41 71 41
OldEncoding: 71
Width: 764
Flags: W
HStem: -23 81<363 397> 299 81<396 615> 500 21G<597 689>
VStem: 42 94<351 362> 615 81<248 380>
Fore
396 299 m 1
 396 380 l 1
 696 380 l 1
 696 -3 l 1
 638 -3 l 1
 616 86 l 1
 576 49 538 22 505 3 c 0
 471 -14 425 -23 364 -23 c 0
 331 -23 294 -14 257 0 c 0
 219 14 190 29 168 46 c 0
 125 84 93 130 72 186 c 0
 52 239 41 294 42 351 c 0
 42 387 49 423 58 458 c 0
 65 494 78 531 97 566 c 0
 115 600 139 629 168 655 c 0
 190 673 219 690 261 705 c 0
 302 719 344 729 390 729 c 0
 455 731 506 719 542 700 c 0
 596 671 632 641 652 606 c 0
 671 571 683 538 689 500 c 1
 597 500 l 1
 596 534 577 568 539 600 c 0
 502 631 451 645 390 645 c 0
 357 645 325 639 293 628 c 0
 262 616 236 600 215 577 c 0
 190 552 173 519 157 478 c 0
 142 438 136 394 136 351 c 0
 136 307 142 267 157 226 c 0
 173 186 190 152 215 126 c 0
 260 80 316 58 390 58 c 0
 441 58 481 68 515 91 c 0
 541 110 560 128 576 148 c 0
 590 165 600 186 605 204 c 0
 610 223 615 239 615 254 c 0
 615 267 615 281 615 299 c 1
 396 299 l 1
EndSplineSet
EndChar
StartChar: H
Encoding: 42 72 42
OldEncoding: 72
Width: 709
Flags: W
HStem: 328 81<174 541>
VStem: 81 93<0 328 0 716> 541 91<0 716>
Fore
541 0 m 1
 541 328 l 1
 174 328 l 1
 174 0 l 1
 81 0 l 1
 81 716 l 1
 174 716 l 1
 174 409 l 1
 541 409 l 1
 541 716 l 1
 632 716 l 1
 632 0 l 1
 541 0 l 1
EndSplineSet
EndChar
StartChar: I
Encoding: 43 73 43
OldEncoding: 73
Width: 272
Flags: W
HStem: 0 21G<99 190>
VStem: 99 91<0 716>
Fore
99 0 m 1
 99 716 l 1
 190 716 l 5
 190 0 l 1
 99 0 l 1
EndSplineSet
EndChar
StartChar: J
Encoding: 44 74 44
OldEncoding: 74
Width: 491
Flags: W
HStem: -23 81<190 210>
VStem: 16 94<147 228> 326 93<200 716>
Fore
16 228 m 1
 110 228 l 1
 110 155 l 2
 110 130 116 110 130 93 c 0
 144 77 162 65 184 61 c 0
 194 59 204 58 210 58 c 0
 248 58 278 72 302 100 c 0
 318 119 326 162 326 229 c 2
 326 716 l 1
 419 716 l 1
 419 149 l 1
 409 86 380 36 329 3 c 0
 302 -14 255 -25 190 -23 c 0
 129 -22 86 1 58 39 c 0
 29 78 16 116 16 152 c 2
 16 228 l 1
EndSplineSet
EndChar
StartChar: K
Encoding: 45 75 45
OldEncoding: 75
Width: 655
Flags: W
HStem: 0 21G<77 171 538 644>
VStem: 77 94<0 244 0 716>
Fore
77 716 m 1
 171 716 l 1
 171 362 l 1
 526 716 l 1
 647 716 l 1
 351 425 l 1
 644 0 l 1
 538 0 l 1
 289 361 l 1
 171 244 l 1
 171 0 l 1
 77 0 l 1
 77 716 l 1
EndSplineSet
EndChar
StartChar: L
Encoding: 46 76 46
OldEncoding: 76
Width: 546
Flags: W
HStem: 0 81<170 525>
VStem: 78 93<0 716>
Fore
78 716 m 1
 171 716 l 1
 171 81 l 1
 525 81 l 1
 525 0 l 1
 78 0 l 1
 78 716 l 1
EndSplineSet
EndChar
StartChar: M
Encoding: 47 77 47
OldEncoding: 77
Width: 819
Flags: W
HStem: 0 21G<74 168 364 458 654 748>
VStem: 74 94<0 581> 654 94<0 716>
Fore
458 0 m 1
 364 0 l 1
 168 581 l 1
 168 0 l 1
 74 0 l 1
 74 716 l 1
 204 716 l 1
 412 106 l 1
 618 716 l 1
 748 716 l 1
 748 0 l 1
 654 0 l 1
 654 581 l 1
 458 0 l 1
EndSplineSet
EndChar
StartChar: N
Encoding: 48 78 48
OldEncoding: 78
Width: 709
Flags: W
HStem: 0 21G<75 167 529 635>
VStem: 75 92<0 574> 542 93<136 716>
Fore
635 0 m 1
 529 0 l 1
 167 574 l 1
 167 0 l 1
 75 0 l 1
 75 716 l 1
 184 716 l 1
 542 136 l 1
 542 716 l 1
 635 716 l 1
 635 0 l 1
EndSplineSet
EndChar
StartChar: O
Encoding: 49 79 49
OldEncoding: 79
Width: 764
Flags: W
HStem: -23 84<383 407> 645 84<383 407>
VStem: 38 92<352 378> 635 94<352 378>
Fore
383 729 m 0
 428 729 471 719 513 705 c 0
 554 690 584 673 603 655 c 0
 645 618 677 571 697 518 c 0
 719 464 729 409 729 352 c 0
 729 297 719 242 697 188 c 0
 679 135 647 88 603 51 c 0
 584 35 554 17 513 1 c 0
 471 -14 428 -23 383 -23 c 0
 339 -23 297 -14 255 1 c 0
 215 16 186 33 164 51 c 0
 119 88 88 135 68 188 c 0
 48 242 38 297 38 352 c 0
 38 387 42 423 51 461 c 0
 59 499 72 534 91 568 c 0
 110 602 136 631 164 655 c 0
 186 673 215 690 255 705 c 0
 297 719 339 729 383 729 c 0
383 645 m 0
 351 645 319 639 289 628 c 0
 257 616 231 600 210 577 c 0
 186 552 167 519 152 478 c 0
 139 439 130 396 130 352 c 0
 130 307 138 267 152 228 c 0
 165 188 186 155 210 129 c 0
 252 84 310 61 383 61 c 0
 457 61 515 84 557 129 c 0
 581 154 600 187 615 228 c 0
 628 267 635 307 635 352 c 0
 635 396 628 439 615 478 c 0
 600 519 581 552 557 577 c 0
 536 597 512 616 480 628 c 0
 450 639 418 645 383 645 c 0
EndSplineSet
EndChar
StartChar: P
Encoding: 50 80 50
OldEncoding: 80
Width: 655
Flags: W
HStem: 0 21G<90 181> 303 83<181 427> 635 81<90 395>
VStem: 90 91<0 303 0 635> 513 93<506 529>
Fore
90 0 m 1
 90 716 l 1
 390 716 l 2
 444 716 492 703 532 677 c 0
 574 651 596 606 605 542 c 0
 606 534 606 521 606 506 c 0
 606 441 587 390 545 355 c 0
 505 320 464 303 419 303 c 2
 181 303 l 1
 181 0 l 1
 90 0 l 1
181 635 m 1
 181 386 l 1
 416 386 l 2
 434 386 454 396 478 418 c 0
 502 439 515 471 513 518 c 0
 512 563 494 592 468 609 c 0
 444 628 416 635 389 635 c 2
 181 635 l 1
EndSplineSet
EndChar
StartChar: Q
Encoding: 51 81 51
OldEncoding: 81
Width: 764
Flags: W
HStem: -23 84<383 391> 645 84<383 407>
VStem: 38 92<352 375> 635 94<352 375>
Fore
628 75 m 1
 721 0 l 1
 673 -58 l 1
 571 26 l 1
 512 -4 447 -22 383 -23 c 0
 339 -23 297 -14 255 1 c 0
 215 16 186 33 164 51 c 0
 119 88 88 135 68 188 c 0
 48 242 38 297 38 352 c 0
 38 387 42 423 51 461 c 0
 59 499 72 534 91 568 c 0
 110 602 136 631 164 655 c 0
 186 673 215 690 255 705 c 0
 297 719 339 729 383 729 c 0
 428 729 471 719 513 705 c 0
 554 690 584 673 603 655 c 0
 645 618 677 571 697 518 c 0
 719 464 729 409 729 352 c 0
 729 302 721 251 705 202 c 0
 689 152 663 110 628 75 c 1
499 87 m 1
 426 146 l 1
 470 202 l 1
 560 129 l 1
 576 146 589 165 600 190 c 0
 610 215 621 239 628 267 c 0
 632 294 635 323 635 352 c 0
 635 396 628 439 615 478 c 0
 600 519 581 552 557 577 c 0
 536 597 512 616 480 628 c 0
 450 639 418 645 383 645 c 0
 351 645 319 639 289 628 c 0
 257 616 231 600 210 577 c 0
 186 552 167 519 152 478 c 0
 139 439 130 396 130 352 c 0
 130 307 138 267 152 228 c 0
 165 188 186 155 210 129 c 0
 252 84 310 61 383 61 c 0
 425 61 464 68 499 87 c 1
EndSplineSet
EndChar
StartChar: R
Encoding: 52 82 52
OldEncoding: 82
Width: 709
Flags: W
HStem: 0 21G<91 184 557 667> 307 83<184 428> 635 81<91 428>
VStem: 91 93<0 307 0 635> 536 93<90 193> 547 94<499 534>
Fore
91 0 m 1xf8
 91 716 l 1
 412 716 l 2
 478 716 534 706 576 682 c 0
 615 658 638 608 641 534 c 0xf4
 642 489 635 454 621 429 c 0
 608 406 581 381 545 354 c 1
 583 331 606 310 615 290 c 0
 622 268 628 229 629 171 c 0
 631 123 632 90 638 71 c 0
 642 51 652 35 667 23 c 1
 667 0 l 1
 557 0 l 1
 547 22 541 52 536 90 c 1
 536 174 l 2
 536 216 528 249 513 274 c 0
 499 297 467 307 419 307 c 2
 184 307 l 1
 184 0 l 1
 91 0 l 1xf8
415 635 m 2
 184 635 l 1
 184 390 l 1
 415 390 l 2
 494 390 539 426 547 499 c 1
 547 590 503 635 415 635 c 2
EndSplineSet
EndChar
StartChar: S
Encoding: 53 83 53
OldEncoding: 83
Width: 655
Flags: W
HStem: -23 84<303 365> 651 78<303 337>
VStem: 72 85<496 531> 499 88<508 525.918>
Fore
587 508 m 1
 499 508 l 1
 499 558 477 596 434 622 c 0
 415 634 394 642 377 645 c 0
 358 648 339 651 315 651 c 0
 264 651 226 639 200 615 c 0
 173 590 157 563 157 531 c 0
 157 516 161 502 168 489 c 0
 177 476 188 464 203 454 c 0
 231 438 267 429 312 418 c 0
 413 393 471 376 489 370 c 0
 519 358 550 338 574 306 c 0
 597 276 610 244 610 210 c 0
 613 162 600 119 576 86 c 0
 551 51 516 23 474 4 c 0
 429 -13 381 -23 328 -23 c 0
 274 -22 231 -14 197 -1 c 0
 162 10 128 33 100 67 c 0
 77 96 64 119 58 141 c 0
 52 162 49 191 48 228 c 1
 133 228 l 1
 133 193 142 161 162 128 c 0
 181 93 218 72 273 64 c 0
 287 62 318 61 365 61 c 1
 412 65 445 77 467 96 c 0
 499 122 515 152 515 190 c 0
 515 223 499 251 464 276 c 1
 428 293 377 306 313 320 c 0
 265 331 236 341 225 345 c 0
 212 351 191 357 167 365 c 0
 110 383 78 426 72 496 c 1
 72 541 81 580 100 616 c 0
 117 651 144 679 180 700 c 0
 216 719 261 729 313 729 c 0
 389 729 445 716 487 692 c 0
 554 648 587 589 587 508 c 1
EndSplineSet
EndChar
StartChar: T
Encoding: 54 84 54
OldEncoding: 84
Width: 600
Flags: W
HStem: 0 21G<257 349> 635 81<22 257 22 583>
VStem: 257 92<0 635>
Fore
257 0 m 1
 257 635 l 1
 22 635 l 1
 22 716 l 1
 583 716 l 1
 583 635 l 1
 349 635 l 1
 349 0 l 1
 257 0 l 1
EndSplineSet
EndChar
StartChar: U
Encoding: 55 85 55
OldEncoding: 85
Width: 709
Flags: W
HStem: -23 78<358 373>
VStem: 84 91<198 716> 542 92<198 716>
Fore
84 716 m 1
 175 716 l 1
 175 204 l 2
 175 168 190 135 219 103 c 0
 249 72 294 55 358 55 c 0
 423 55 468 72 499 103 c 0
 528 135 542 168 542 204 c 2
 542 716 l 1
 634 716 l 1
 634 200 l 2
 634 178 629 155 621 130 c 0
 613 106 597 81 577 58 c 0
 555 33 526 14 490 0 c 0
 454 -14 409 -23 358 -23 c 0
 293 -23 239 -12 199 13 c 0
 157 38 128 68 110 103 c 0
 91 138 84 168 84 200 c 2
 84 716 l 1
EndSplineSet
EndChar
StartChar: V
Encoding: 56 86 56
OldEncoding: 86
Width: 655
Flags: W
HStem: 0 21G<283 381>
Fore
336 110 m 1
 536 716 l 1
 634 716 l 1
 381 0 l 1
 283 0 l 1
 29 716 l 1
 128 716 l 1
 336 110 l 1
EndSplineSet
EndChar
StartChar: W
Encoding: 57 87 57
OldEncoding: 87
Width: 926
Flags: W
HStem: 0 21G<203 303 629 731>
Fore
676 139 m 1
 811 716 l 1
 912 716 l 1
 731 0 l 1
 629 0 l 1
 465 583 l 1
 303 0 l 1
 203 0 l 1
 22 716 l 1
 125 716 l 1
 257 139 l 1
 416 716 l 1
 516 716 l 1
 676 139 l 1
EndSplineSet
EndChar
StartChar: X
Encoding: 58 88 58
OldEncoding: 88
Width: 655
Flags: W
HStem: 0 21G<22 136 525 638>
Fore
628 716 m 1
 389 367 l 1
 638 0 l 1
 525 0 l 1
 332 291 l 1
 136 0 l 1
 22 0 l 1
 274 367 l 1
 39 716 l 1
 151 716 l 1
 332 442 l 1
 516 716 l 5
 628 716 l 1
EndSplineSet
EndChar
StartChar: Y
Encoding: 59 89 59
OldEncoding: 89
Width: 655
Flags: W
HStem: 0 21G<287 380>
VStem: 287 93<0 280>
Fore
13 716 m 1
 126 716 l 1
 332 368 l 1
 538 716 l 1
 651 716 l 1
 380 280 l 1
 380 0 l 1
 287 0 l 1
 287 280 l 1
 13 716 l 1
EndSplineSet
EndChar
StartChar: Z
Encoding: 60 90 60
OldEncoding: 90
Width: 600
Flags: W
HStem: 0 81<144 574> 635 81<58 455>
Fore
58 635 m 1
 58 716 l 1
 571 716 l 1
 571 632 l 1
 144 81 l 1
 574 81 l 1
 574 0 l 1
 28 0 l 1
 28 78 l 1
 455 635 l 1
 58 635 l 1
EndSplineSet
EndChar
StartChar: bracketleft
Encoding: 61 91 61
OldEncoding: 91
Width: 272
Flags: W
HStem: -210 74<146 246> 642 74<62 246>
VStem: 62 84<-210 642>
Fore
62 716 m 1
 246 716 l 1
 246 642 l 1
 146 642 l 1
 146 -136 l 1
 246 -136 l 1
 246 -210 l 1
 62 -210 l 1
 62 716 l 1
EndSplineSet
EndChar
StartChar: backslash
Encoding: 62 92 62
OldEncoding: 92
Width: 272
Flags: W
Fore
225 -20 m 1
 -9 716 l 1
 46 716 l 1
 278 -20 l 1
 225 -20 l 1
EndSplineSet
EndChar
StartChar: bracketright
Encoding: 63 93 63
OldEncoding: 93
Width: 272
Flags: W
HStem: -212 74<23 204> 642 74<23 122>
VStem: 122 82<-138 716>
Fore
23 642 m 1
 23 716 l 1
 204 716 l 1
 204 -212 l 1
 23 -212 l 1
 23 -138 l 1
 122 -138 l 1
 122 642 l 1
 23 642 l 1
EndSplineSet
EndChar
StartChar: asciicircum
Encoding: 64 94 64
OldEncoding: 94
Width: 459
Flags: W
Fore
42 328 m 1
 194 702 l 1
 267 702 l 1
 418 328 l 1
 349 328 l 1
 229 618 l 1
 112 328 l 1
 42 328 l 1
EndSplineSet
EndChar
StartChar: underscore
Encoding: 65 95 65
OldEncoding: 95
Width: 546
Flags: W
HStem: -173 50<-22 568>
Fore
568 -123 m 1
 568 -173 l 1
 -22 -173 l 1
 -22 -123 l 1
 568 -123 l 1
EndSplineSet
EndChar
StartChar: grave
Encoding: 66 96 66
OldEncoding: 96
Width: 263
VWidth: 2048
Flags: W
HStem: 586 130<41 215>
Fore
215 586 m 1
 148 586 l 1
 41 716 l 5
 152 716 l 1
 215 586 l 1
EndSplineSet
EndChar
StartChar: a
Encoding: 67 97 67
OldEncoding: 97
Width: 546
Flags: W
HStem: 362 21G<65 142>
VStem: 41 85<136 151> 381 87<147 423>
Fore
468 423 m 2
 468 77 l 2
 468 68 474 62 483 55 c 0
 493 51 508 48 526 48 c 1
 526 -13 l 1
 457 -23 l 1
 413 -10 389 14 386 52 c 1
 354 28 328 10 306 -1 c 0
 286 -13 255 -23 222 -23 c 0
 164 -25 119 -9 88 20 c 0
 58 48 39 88 41 139 c 0
 41 178 54 209 74 229 c 0
 93 249 117 264 149 274 c 0
 174 281 197 287 218 290 c 0
 239 293 262 297 290 299 c 0
 316 300 332 302 341 303 c 0
 368 312 381 325 381 342 c 2
 381 405 l 1
 378 420 364 436 338 444 c 0
 310 454 277 458 239 457 c 0
 178 455 148 423 142 362 c 1
 65 362 l 1
 67 406 l 1
 72 426 81 445 97 464 c 0
 112 481 129 496 154 508 c 0
 175 519 206 526 246 531 c 1
 287 531 320 528 348 522 c 0
 381 515 412 503 434 484 c 0
 455 468 468 447 468 423 c 2
381 149 m 2
 381 252 l 1
 362 244 341 239 316 236 c 0
 291 231 265 228 238 223 c 0
 210 218 188 212 175 206 c 0
 165 202 154 193 142 180 c 0
 130 168 126 154 126 136 c 0
 126 106 135 86 152 71 c 0
 171 55 191 48 216 48 c 0
 249 46 278 54 303 67 c 0
 328 80 348 96 361 112 c 0
 376 129 381 141 381 149 c 2
EndSplineSet
EndChar
StartChar: b
Encoding: 68 98 68
OldEncoding: 98
Width: 546
Flags: W
HStem: -23 78<267 288> 447 84<275 294>
VStem: 52 83<0 266 0 716> 420 93<223 257>
Fore
52 716 m 1
 136 716 l 1
 136 454 l 1
 144 470 161 484 184 500 c 0
 199 508 215 516 232 522 c 0
 251 528 273 531 294 531 c 0
 354 531 405 509 445 465 c 0
 461 451 474 431 483 409 c 0
 494 389 503 365 508 341 c 0
 513 316 515 289 515 261 c 0
 515 244 515 231 513 223 c 0
 512 173 496 128 476 88 c 0
 454 48 425 16 387 -1 c 0
 354 -17 319 -23 286 -23 c 0
 248 -23 218 -16 197 -1 c 0
 160 23 136 42 125 58 c 1
 125 0 l 1
 52 0 l 1
 52 716 l 1
377 103 m 0
 406 144 420 194 420 257 c 0
 420 287 418 315 412 339 c 0
 406 364 396 381 386 396 c 1
 364 431 328 450 277 447 c 0
 232 447 199 429 175 399 c 0
 165 383 155 364 148 336 c 0
 139 306 135 277 135 246 c 0
 135 197 146 152 171 112 c 0
 191 78 225 61 268 55 c 1
 319 55 355 72 377 103 c 0
EndSplineSet
EndChar
StartChar: c
Encoding: 69 99 69
OldEncoding: 99
Width: 491
Flags: W
HStem: -23 78<246 267> 455 76<260 280.051>
Fore
390 178 m 1
 468 178 l 1
 467 136 458 102 441 74 c 0
 423 42 394 17 361 1 c 0
 326 -14 289 -25 248 -23 c 0
 209 -23 173 -10 139 9 c 0
 106 26 81 52 65 87 c 0
 42 136 30 194 30 262 c 0
 33 341 58 406 104 461 c 0
 144 506 194 529 260 531 c 0
 289 531 316 528 341 519 c 0
 367 512 389 500 405 484 c 1
 425 474 439 454 450 429 c 0
 461 405 467 376 468 342 c 1
 387 342 l 1
 381 370 377 392 368 406 c 0
 361 419 349 431 332 439 c 0
 307 451 283 455 262 455 c 0
 225 454 190 436 161 402 c 0
 139 377 122 335 119 274 c 0
 116 206 126 160 139 135 c 0
 165 81 209 54 267 55 c 0
 289 55 307 62 328 74 c 0
 345 86 358 97 365 112 c 0
 378 136 387 157 390 178 c 1
EndSplineSet
EndChar
StartChar: d
Encoding: 70 100 70
OldEncoding: 100
Width: 546
Flags: W
HStem: -23 78<249 272> 445 86<242 267>
VStem: 26 91<232 282> 415 72<-1 716>
Fore
405 716 m 1
 487 716 l 1
 487 -1 l 1
 415 -1 l 1
 415 59 l 1
 393 35 370 13 344 -3 c 0
 325 -16 294 -23 255 -23 c 0
 216 -23 181 -16 152 -1 c 0
 116 16 88 46 67 87 c 0
 46 126 33 171 28 222 c 0
 26 229 26 244 26 262 c 0
 26 302 33 339 45 376 c 0
 55 413 72 442 93 464 c 0
 138 508 187 531 244 531 c 0
 287 531 325 521 357 500 c 0
 378 484 394 470 405 454 c 1
 405 716 l 1
162 102 m 0
 187 71 223 54 270 55 c 0
 291 55 312 62 329 72 c 0
 348 81 361 96 370 112 c 0
 393 151 405 194 405 244 c 0
 405 277 400 307 392 336 c 0
 383 364 374 386 365 396 c 0
 341 429 306 445 262 445 c 0
 213 445 177 429 154 396 c 0
 129 362 117 315 117 255 c 0
 117 193 133 142 162 102 c 0
EndSplineSet
EndChar
StartChar: e
Encoding: 71 101 71
OldEncoding: 101
Width: 546
Flags: W
HStem: -23 72<262 295> 225 74<130 505> 464 67<262 295>
VStem: 39 89<223 254>
Fore
505 225 m 1
 128 225 l 1
 128 202 129 181 133 167 c 0
 136 152 144 135 155 113 c 1
 187 71 225 49 273 49 c 0
 297 49 316 52 335 61 c 0
 351 68 364 78 376 90 c 0
 386 102 393 115 399 126 c 0
 403 138 406 148 409 157 c 1
 493 157 l 1
 483 113 467 78 447 54 c 0
 428 29 406 12 376 -1 c 0
 344 -16 310 -23 274 -23 c 0
 238 -23 203 -16 173 -1 c 0
 141 13 113 33 91 61 c 0
 58 104 39 171 39 254 c 0
 41 341 62 407 103 454 c 0
 151 505 213 532 293 531 c 0
 313 531 332 526 352 519 c 0
 373 513 390 505 407 493 c 0
 423 481 436 470 445 457 c 0
 464 432 477 409 484 387 c 0
 493 364 500 342 502 325 c 0
 503 304 503 273 505 225 c 1
130 299 m 1
 415 299 l 1
 415 319 409 344 402 368 c 0
 393 393 386 409 377 418 c 1
 373 429 362 439 344 447 c 0
 328 455 310 464 289 464 c 0
 236 465 199 450 175 418 c 1
 167 412 157 394 148 370 c 0
 136 344 133 319 130 299 c 1
EndSplineSet
EndChar
StartChar: f
Encoding: 72 102 72
OldEncoding: 102
Width: 272
Flags: W
HStem: 0 21G<87 171> 441 75<17 87 171 252> 647 72<210 254>
VStem: 87 84<0 441 516 605>
Fore
87 0 m 1
 87 441 l 1
 17 441 l 1
 17 516 l 1
 87 516 l 1
 87 603 l 2
 87 638 99 666 119 686 c 0
 141 706 157 716 171 716 c 0
 178 718 191 719 210 719 c 0
 229 719 244 718 254 716 c 1
 254 647 l 1
 223 647 200 644 188 638 c 0
 177 629 171 615 171 592 c 2
 171 516 l 1
 252 516 l 1
 252 441 l 1
 171 441 l 1
 171 0 l 1
 87 0 l 1
EndSplineSet
EndChar
StartChar: g
Encoding: 73 103 73
OldEncoding: 103
Width: 546
Flags: W
HStem: -215 73<235 273> 441 90<247 260>
VStem: 28 88<216 251> 399 81<53 87 223 516>
Fore
399 516 m 1
 480 516 l 1
 480 87 l 2
 480 36 476 -7 470 -42 c 0
 464 -78 452 -110 434 -138 c 0
 416 -165 392 -184 357 -194 c 0
 326 -204 297 -212 273 -215 c 1
 219 -215 180 -210 155 -200 c 0
 128 -188 104 -175 88 -160 c 0
 72 -142 61 -126 55 -109 c 0
 51 -91 48 -75 46 -59 c 1
 129 -59 l 1
 130 -62 133 -67 135 -75 c 0
 136 -84 138 -90 141 -96 c 0
 142 -100 148 -106 155 -112 c 0
 162 -117 173 -125 187 -130 c 0
 203 -139 225 -142 251 -142 c 0
 278 -142 304 -138 326 -129 c 1
 348 -117 362 -106 368 -96 c 0
 376 -86 381 -68 387 -46 c 0
 394 -12 399 25 399 62 c 1
 349 4 293 -25 229 -23 c 0
 191 -22 155 -4 122 23 c 1
 93 41 71 68 54 104 c 0
 39 141 29 180 28 225 c 0
 28 267 33 310 42 351 c 0
 52 392 67 426 86 451 c 0
 97 465 117 483 149 503 c 0
 180 521 215 531 251 531 c 0
 307 529 357 505 399 454 c 1
 399 516 l 1
352 96 m 0
 383 128 399 178 399 248 c 0
 399 280 394 312 387 341 c 0
 378 370 365 392 351 406 c 0
 345 413 332 420 315 429 c 0
 297 438 277 441 260 441 c 0
 204 441 164 416 141 365 c 0
 126 335 117 297 116 249 c 0
 115 188 128 142 149 112 c 0
 174 77 209 55 249 55 c 0
 293 54 328 68 352 96 c 0
EndSplineSet
EndChar
StartChar: h
Encoding: 74 104 74
OldEncoding: 104
Width: 546
Flags: W
HStem: 0 21G<68 151 394 478> 455 76<264 310>
VStem: 68 83<0 352 0 716> 394 84<0 392>
Fore
68 0 m 1
 68 716 l 1
 151 716 l 1
 151 454 l 1
 177 481 206 503 239 518 c 1
 270 526 293 531 310 531 c 0
 338 531 365 522 393 513 c 0
 428 500 450 483 461 457 c 0
 471 431 478 409 478 392 c 2
 478 0 l 1
 394 0 l 1
 394 352 l 2
 394 400 380 429 352 442 c 1
 326 451 297 455 264 455 c 1
 239 451 213 436 184 412 c 0
 162 392 151 367 151 336 c 2
 151 0 l 1
 68 0 l 1
EndSplineSet
EndChar
StartChar: i
Encoding: 75 105 75
OldEncoding: 105
Width: 217
Flags: W
HStem: 0 21G<65 148>
VStem: 65 83<0 516 615 716>
Fore
148 516 m 1
 148 0 l 1
 65 0 l 1
 65 516 l 1
 148 516 l 1
148 716 m 1
 148 615 l 1
 65 615 l 1
 65 716 l 1
 148 716 l 1
EndSplineSet
EndChar
StartChar: j
Encoding: 76 106 76
OldEncoding: 106
Width: 217
Flags: W
VStem: 67 84<-104 516 615 716>
Fore
67 615 m 1
 67 716 l 1
 151 716 l 1
 151 615 l 1
 67 615 l 1
-17 -215 m 1
 -17 -142 l 1
 30 -138 l 2
 42 -136 52 -130 59 -122 c 0
 64 -113 67 -103 67 -96 c 2
 67 516 l 1
 151 516 l 1
 151 -113 l 2
 151 -130 146 -149 135 -168 c 0
 123 -187 103 -200 75 -209 c 0
 55 -213 25 -215 -17 -215 c 1
EndSplineSet
EndChar
StartChar: k
Encoding: 77 107 77
OldEncoding: 107
Width: 491
Flags: W
HStem: 0 21G<58 139 392 493>
VStem: 58 81<0 193 0 716>
Fore
58 716 m 1
 139 716 l 1
 139 302 l 1
 357 516 l 1
 464 516 l 1
 283 338 l 1
 493 0 l 1
 392 0 l 1
 223 276 l 1
 139 193 l 1
 139 0 l 1
 58 0 l 1
 58 716 l 1
EndSplineSet
EndChar
StartChar: l
Encoding: 78 108 78
OldEncoding: 108
Width: 217
Flags: W
HStem: 0 21G<67 149>
VStem: 67 82<0 716>
Fore
67 0 m 1
 67 716 l 1
 149 716 l 1
 149 0 l 1
 67 0 l 1
EndSplineSet
EndChar
StartChar: m
Encoding: 79 109 79
OldEncoding: 109
Width: 819
Flags: W
HStem: 0 21G<71 152 368 451 667 751> 455 76<274 303 566 589>
VStem: 71 81<0 332 0 516> 368 83<0 351> 667 84<0 403>
Fore
71 0 m 1
 71 516 l 1
 152 516 l 1
 152 451 l 1
 174 483 191 503 206 509 c 0
 232 525 265 531 303 531 c 0
 342 531 373 525 390 512 c 0
 412 496 429 478 444 454 c 1
 454 465 463 476 467 481 c 0
 471 489 478 494 487 502 c 0
 494 508 503 513 513 518 c 0
 534 526 558 531 589 531 c 0
 634 531 667 526 684 515 c 0
 695 509 705 502 716 489 c 0
 728 477 735 463 742 447 c 0
 747 432 751 418 751 403 c 2
 751 0 l 1
 667 0 l 1
 667 368 l 1
 658 426 626 455 568 455 c 0
 532 455 505 445 487 426 c 0
 467 406 455 381 451 351 c 1
 451 0 l 1
 368 0 l 1
 368 370 l 2
 368 428 331 455 274 455 c 0
 241 455 213 444 190 420 c 0
 168 399 155 368 152 332 c 1
 152 0 l 1
 71 0 l 1
EndSplineSet
EndChar
StartChar: n
Encoding: 80 110 80
OldEncoding: 110
Width: 546
Flags: W
HStem: 0 21G<68 151 396 478> 455 76<291 313>
VStem: 68 83<0 289 0 516> 396 82<0 402>
Fore
68 516 m 1
 151 516 l 1
 151 451 l 1
 173 480 191 500 210 508 c 1
 231 522 265 532 313 531 c 0
 351 531 378 526 396 518 c 0
 418 506 436 492 451 477 c 0
 465 461 474 436 478 402 c 1
 478 0 l 1
 396 0 l 1
 396 358 l 2
 396 380 392 396 383 412 c 0
 374 426 361 438 344 444 c 0
 329 452 312 455 293 455 c 0
 254 455 219 441 191 413 c 0
 164 386 151 338 151 274 c 2
 151 0 l 1
 68 0 l 1
 68 516 l 1
EndSplineSet
EndChar
StartChar: o
Encoding: 81 111 81
OldEncoding: 111
Width: 546
Flags: W
HStem: -23 84<268 277> 450 81<268 277>
VStem: 36 83<254 266> 416 86<254 266>
Fore
75 78 m 0
 49 123 36 181 36 254 c 0
 36 328 49 386 75 429 c 0
 97 464 125 492 160 508 c 0
 193 525 229 531 268 531 c 0
 306 531 344 522 378 506 c 0
 413 490 439 464 461 429 c 0
 489 383 502 325 502 254 c 0
 502 186 489 126 461 78 c 0
 439 45 413 17 378 1 c 0
 344 -14 306 -23 268 -23 c 0
 229 -23 193 -14 160 1 c 0
 125 17 97 45 75 78 c 0
268 61 m 0
 294 61 319 67 341 80 c 0
 364 93 378 113 390 139 c 0
 406 178 416 216 416 254 c 0
 416 290 407 329 390 370 c 0
 378 396 362 416 341 429 c 0
 318 442 293 450 268 450 c 0
 242 450 218 442 194 431 c 0
 171 418 152 399 141 370 c 1
 135 345 129 323 126 304 c 0
 122 287 119 268 119 254 c 0
 119 223 128 184 146 139 c 0
 157 113 175 93 197 80 c 0
 218 67 242 61 268 61 c 0
EndSplineSet
EndChar
StartChar: p
Encoding: 82 112 82
OldEncoding: 112
Width: 546
Flags: W
HStem: -23 85<275 296> 454 77<259 285>
VStem: 52 73<-215 516> 52 84<-215 55 -215 289> 420 93<251 287>
Fore
136 -215 m 1xd8
 52 -215 l 1
 52 516 l 1
 125 516 l 1
 125 451 l 1xe8
 138 470 161 490 194 512 c 0
 216 525 246 531 283 531 c 0
 320 531 355 525 387 509 c 0
 425 492 454 463 476 420 c 0
 496 380 512 336 513 287 c 0
 515 278 515 265 515 249 c 0
 515 209 508 168 496 133 c 0
 484 96 467 65 445 45 c 0
 403 0 352 -23 294 -23 c 0
 252 -23 215 -13 184 9 c 0
 162 23 146 38 136 55 c 1
 136 -215 l 1xd8
377 406 m 0
 354 438 318 455 268 454 c 0
 248 454 229 445 212 438 c 1
 193 426 180 413 171 396 c 0
 146 357 135 313 135 264 c 0
 135 235 139 204 148 177 c 0
 155 149 165 126 175 112 c 0
 188 96 203 84 222 75 c 0
 239 67 257 62 277 62 c 0
 328 62 362 78 386 112 c 0
 407 144 420 190 420 251 c 0
 420 313 406 365 377 406 c 0
EndSplineSet
EndChar
StartChar: q
Encoding: 83 113 83
OldEncoding: 113
Width: 546
Flags: W
HStem: -23 85<242 267> 454 77<249 272>
VStem: 26 91<224 266> 405 82<-215 516>
Fore
487 -215 m 1
 405 -215 l 1
 405 55 l 1
 396 39 380 23 357 9 c 0
 325 -13 287 -23 244 -23 c 0
 187 -23 138 0 93 45 c 0
 49 90 26 157 26 246 c 0
 26 264 26 278 28 287 c 0
 33 336 46 380 67 420 c 0
 88 463 116 492 152 509 c 0
 181 525 216 531 255 531 c 0
 293 531 323 525 344 512 c 0
 374 493 396 474 415 451 c 1
 415 516 l 1
 487 516 l 1
 487 -215 l 1
162 406 m 0
 130 365 116 312 117 249 c 0
 117 188 133 142 154 112 c 0
 177 78 213 62 262 62 c 0
 283 62 303 67 320 75 c 0
 339 84 354 97 365 112 c 0
 386 139 399 177 403 226 c 0
 405 235 405 246 405 262 c 0
 405 315 392 358 370 396 c 0
 361 413 349 426 331 436 c 0
 313 445 291 454 270 454 c 0
 223 455 186 439 162 406 c 0
EndSplineSet
EndChar
StartChar: r
Encoding: 84 114 84
OldEncoding: 114
Width: 327
Flags: W
HStem: 0 21G<67 151> 444 87<268 316>
VStem: 67 84<0 289 0 516>
Fore
67 0 m 1
 67 516 l 1
 151 516 l 1
 151 436 l 1
 165 464 186 487 209 505 c 0
 229 521 251 529 268 531 c 2
 316 531 l 1
 316 444 l 1
 286 444 260 441 238 432 c 0
 209 419 187 400 173 376 c 0
 157 348 151 313 151 268 c 2
 151 0 l 1
 67 0 l 1
EndSplineSet
EndChar
StartChar: s
Encoding: 85 115 85
OldEncoding: 115
Width: 491
Flags: W
VStem: 48 78<371 379> 370 81<123 138>
Fore
33 152 m 1
 112 152 l 1
 116 130 119 116 123 106 c 0
 126 99 135 88 146 78 c 0
 157 68 175 61 200 52 c 1
 213 51 238 49 274 49 c 1
 303 54 325 61 338 71 c 0
 345 75 354 86 361 99 c 0
 367 110 370 122 370 133 c 0
 370 164 352 187 315 199 c 0
 303 202 289 204 268 210 c 0
 248 215 229 219 215 223 c 0
 200 226 184 231 165 236 c 0
 148 241 133 246 123 251 c 0
 72 268 48 312 48 377 c 0
 48 425 65 463 103 490 c 0
 139 518 184 531 238 531 c 4
 362 531 426 478 429 373 c 1
 348 373 l 1
 348 394 339 415 325 429 c 0
 310 444 278 452 229 454 c 1
 178 451 146 432 129 400 c 0
 128 394 126 387 126 376 c 0
 126 352 136 336 154 328 c 0
 165 323 175 318 186 315 c 0
 193 312 206 310 223 304 c 0
 239 300 257 294 276 290 c 0
 325 281 364 268 394 251 c 0
 432 229 451 187 451 123 c 1
 447 97 438 72 420 51 c 0
 405 28 383 10 357 -1 c 0
 332 -13 302 -22 264 -23 c 0
 223 -25 190 -22 164 -16 c 0
 77 1 33 59 33 152 c 1
EndSplineSet
EndChar
StartChar: t
Encoding: 86 116 86
OldEncoding: 116
Width: 272
Flags: W
HStem: -23 75<161 212> 441 75<13 86 168 249>
VStem: 86 82<51 441 516 655>
Fore
168 655 m 1
 168 516 l 1
 249 516 l 1
 249 441 l 1
 168 441 l 1
 168 81 l 2
 168 62 184 52 212 52 c 0
 219 52 231 54 249 55 c 1
 249 -16 l 1
 226 -22 197 -23 161 -23 c 1
 136 -20 116 -10 103 7 c 0
 91 23 86 38 86 51 c 2
 86 441 l 1
 13 441 l 1
 13 516 l 1
 86 516 l 1
 86 655 l 1
 168 655 l 1
EndSplineSet
EndChar
StartChar: u
Encoding: 87 117 87
OldEncoding: 117
Width: 546
Flags: W
HStem: -23 78<223 241>
VStem: 64 82<104 516> 392 82<0 516>
Fore
474 0 m 1
 392 0 l 1
 392 55 l 1
 370 26 351 9 332 -1 c 0
 306 -14 273 -23 228 -23 c 0
 197 -23 168 -20 146 -12 c 1
 100 13 72 51 64 104 c 1
 64 516 l 1
 146 516 l 1
 146 151 l 2
 146 113 160 87 186 68 c 0
 200 61 215 55 232 55 c 0
 257 55 276 58 290 61 c 0
 331 75 357 97 373 128 c 0
 386 155 392 191 392 236 c 2
 392 516 l 1
 474 516 l 1
 474 0 l 1
EndSplineSet
EndChar
StartChar: v
Encoding: 88 118 88
OldEncoding: 118
Width: 491
Flags: W
HStem: 0 21G<190 280>
Fore
280 0 m 1
 190 0 l 1
 10 516 l 1
 102 516 l 1
 236 99 l 1
 386 516 l 1
 478 516 l 1
 280 0 l 1
EndSplineSet
EndChar
StartChar: w
Encoding: 89 119 89
OldEncoding: 119
Width: 709
Flags: W
HStem: 0 21G<154 248 451 544>
Fore
154 0 m 1
 7 516 l 1
 99 516 l 1
 200 115 l 1
 300 516 l 1
 402 516 l 1
 499 115 l 1
 603 516 l 1
 696 516 l 1
 544 0 l 1
 451 0 l 1
 345 392 l 1
 248 0 l 1
 154 0 l 1
EndSplineSet
EndChar
StartChar: x
Encoding: 90 120 90
OldEncoding: 120
Width: 491
Flags: W
HStem: 0 21G<16 110 373 465>
Fore
242 193 m 1
 110 0 l 1
 16 0 l 1
 199 264 l 1
 28 516 l 1
 122 516 l 1
 246 335 l 1
 370 516 l 1
 464 516 l 1
 289 265 l 1
 465 0 l 1
 373 0 l 1
 242 193 l 1
EndSplineSet
EndChar
StartChar: y
Encoding: 91 121 91
OldEncoding: 121
Width: 491
Flags: W
HStem: -215 80<95 112>
Fore
381 516 m 1
 470 516 l 1
 236 -119 l 2
 222 -161 197 -187 164 -202 c 0
 146 -210 123 -215 97 -215 c 0
 78 -215 64 -212 51 -203 c 1
 51 -126 l 1
 62 -130 84 -135 112 -135 c 1
 133 -130 149 -116 160 -90 c 2
 188 -9 l 1
 20 516 l 1
 106 516 l 1
 238 126 l 1
 381 516 l 1
EndSplineSet
EndChar
StartChar: z
Encoding: 92 122 92
OldEncoding: 122
Width: 491
Flags: W
HStem: 0 81<141 450> 434 82<52 332>
Fore
438 516 m 1
 438 444 l 1
 141 81 l 1
 450 81 l 1
 450 0 l 1
 30 0 l 1
 30 67 l 1
 332 434 l 1
 52 434 l 1
 52 516 l 1
 438 516 l 1
EndSplineSet
EndChar
StartChar: braceleft
Encoding: 93 123 93
OldEncoding: 123
Width: 327
Flags: W
VStem: 119 74<-90 111 397 598>
Fore
42 219 m 1
 42 289 l 1
 74 294 96 310 104 331 c 0
 115 352 119 386 119 429 c 2
 119 596 l 2
 119 631 129 658 148 682 c 0
 165 703 184 716 200 716 c 2
 273 719 l 1
 273 654 l 1
 228 648 l 2
 215 647 206 642 202 632 c 0
 197 622 193 608 193 587 c 2
 193 412 l 2
 193 367 186 332 171 310 c 0
 155 287 139 268 122 254 c 1
 136 244 152 228 168 203 c 0
 186 178 193 142 193 97 c 2
 193 -77 l 2
 193 -99 197 -115 202 -125 c 0
 206 -135 215 -139 228 -141 c 2
 273 -146 l 1
 273 -210 l 1
 200 -209 l 2
 184 -209 165 -194 148 -173 c 0
 129 -151 119 -123 119 -88 c 2
 119 80 l 2
 119 125 115 157 104 178 c 0
 93 200 74 213 42 219 c 1
EndSplineSet
EndChar
StartChar: bar
Encoding: 94 124 94
OldEncoding: 124
Width: 255
Flags: W
VStem: 99 58<-212 716>
Fore
157 716 m 1
 157 -212 l 1
 99 -212 l 1
 99 716 l 1
 157 716 l 1
EndSplineSet
EndChar
StartChar: braceright
Encoding: 95 125 95
OldEncoding: 125
Width: 327
Flags: W
VStem: 106 74<-99 111 410 607>
Fore
257 289 m 1
 257 219 l 1
 226 213 204 200 194 178 c 0
 186 157 180 125 180 80 c 2
 180 -88 l 2
 180 -112 175 -130 167 -149 c 0
 157 -167 146 -180 135 -191 c 0
 123 -202 112 -206 100 -209 c 2
 28 -210 l 1
 28 -146 l 1
 72 -141 l 2
 86 -139 96 -133 100 -123 c 0
 104 -113 106 -99 106 -77 c 2
 106 97 l 2
 106 141 115 177 133 202 c 0
 149 226 164 244 178 254 c 0
 177 254 174 260 165 267 c 0
 155 276 146 287 138 302 c 0
 128 316 119 331 115 349 c 0
 110 367 106 387 106 412 c 2
 106 587 l 2
 106 608 104 622 100 632 c 0
 96 642 86 647 72 648 c 2
 28 654 l 1
 28 719 l 1
 100 716 l 2
 112 715 123 709 135 700 c 0
 146 689 157 676 167 657 c 0
 175 639 180 619 180 596 c 2
 180 429 l 2
 180 386 186 352 194 331 c 0
 204 310 226 294 257 289 c 1
EndSplineSet
EndChar
StartChar: asciitilde
Encoding: 96 126 96
OldEncoding: 126
Width: 572
Flags: W
HStem: 262 67<392 401> 368 63<178 187>
VStem: 74 52<287 306.565>
Fore
126 287 m 1
 74 287 l 1
 75 338 87 376 106 396 c 0
 128 419 151 431 178 431 c 0
 197 431 213 428 229 418 c 2
 358 341 l 2
 370 335 383 329 399 329 c 0
 412 329 420 332 429 339 c 0
 441 349 447 370 447 405 c 1
 499 405 l 1
 499 362 489 328 468 302 c 0
 451 276 426 262 394 262 c 0
 374 262 345 268 318 287 c 2
 213 354 l 1
 202 364 190 368 178 368 c 0
 164 368 151 361 141 345 c 0
 130 331 126 312 126 287 c 1
EndSplineSet
EndChar
StartChar: exclamdown
Encoding: 99 161 223
OldEncoding: 161
Width: 210
VWidth: 2048
Flags: W
HStem: 496 104<42 155>
VStem: 41 119<-139 23>
Fore
155 600 m 1
 155 496 l 1
 42 496 l 1
 42 600 l 1
 155 600 l 1
133 416 m 1
 160 23 l 1
 160 -139 l 1
 41 -139 l 1
 41 23 l 1
 65 416 l 1
 133 416 l 1
EndSplineSet
EndChar
StartChar: cent
Encoding: 100 162 224
OldEncoding: 162
Width: 504
VWidth: 2048
Flags: W
HStem: 9 77<242 249>
VStem: -7 97<269 319>
Fore
329 494 m 1
 212 90 l 1
 242 86 l 1
 325 86 374 133 389 226 c 1
 481 216 l 1
 471 155 445 104 403 67 c 0
 361 28 307 9 244 9 c 0
 225 9 206 10 190 14 c 1
 128 -194 l 1
 68 -177 l 1
 130 35 l 1
 39 80 -7 171 -7 300 c 0
 -7 386 13 454 51 508 c 1
 97 566 161 594 241 594 c 1
 293 592 l 1
 354 796 l 1
 412 780 l 1
 352 574 l 1
 418 547 457 496 471 418 c 1
 378 405 l 1
 370 444 352 476 329 494 c 1
273 506 m 1
 246 508 l 2
 142 512 90 439 90 293 c 0
 90 200 112 136 155 103 c 1
 273 506 l 1
EndSplineSet
EndChar
StartChar: sterling
Encoding: 101 163 225
OldEncoding: 163
Width: 426
VWidth: 2048
Flags: W
HStem: -3 67<313 327> 30 61<133 144> 273 59<-1 75 138 265> 547 61<219 233>
VStem: 39 77<427 461> 81 79<219 238>
Fore
138 332 m 1xb8
 265 332 l 1
 265 273 l 1
 151 273 l 1
 155 261 160 249 160 238 c 0
 160 184 135 133 87 84 c 1
 109 88 128 91 144 91 c 0x74
 167 91 193 88 219 80 c 0
 267 68 297 64 313 64 c 0
 332 64 357 71 390 87 c 1
 413 22 l 1
 374 4 341 -3 316 -3 c 1xb4
 280 0 l 1
 231 13 l 1
 177 29 l 1
 139 30 l 1x74
 97 30 55 20 20 -4 c 1
 -10 64 l 1
 51 100 81 152 81 222 c 1xb4
 75 273 l 1
 -1 273 l 1
 -1 332 l 1
 58 332 l 1
 46 377 39 412 39 439 c 0
 39 490 55 531 91 560 c 0
 125 592 167 608 219 608 c 0
 323 608 381 555 399 454 c 1
 328 442 l 1
 316 513 280 547 219 547 c 0
 191 547 167 538 146 518 c 0
 126 500 116 477 116 447 c 0
 116 419 123 381 138 332 c 1xb8
EndSplineSet
EndChar
StartChar: currency
Encoding: 102 164 226
OldEncoding: 164
Width: 507
VWidth: 2048
Flags: W
HStem: 75 80<222 240> 407 77<222 240>
VStem: 17 85<281 286> 368 86<281 286>
Fore
54 394 m 1
 -17 461 l 1
 41 519 l 1
 115 451 l 1
 151 476 191 484 238 484 c 0
 281 484 320 476 358 451 c 1
 431 519 l 1
 489 461 l 1
 418 394 l 1
 442 361 454 323 454 281 c 0
 454 241 442 203 418 168 c 1
 489 102 l 1
 431 45 l 1
 358 113 l 1
 320 88 281 75 238 75 c 0
 190 75 149 88 115 113 c 1
 41 45 l 1
 -17 102 l 1
 54 168 l 1
 30 203 17 241 17 281 c 0
 17 323 30 361 54 394 c 1
102 281 m 0
 102 246 115 216 139 191 c 0
 167 168 199 155 236 155 c 0
 274 155 304 168 331 191 c 0
 355 216 368 246 368 281 c 0
 368 316 355 345 331 370 c 0
 303 394 273 407 236 407 c 0
 199 407 167 394 141 370 c 0
 115 345 102 316 102 281 c 0
EndSplineSet
EndChar
StartChar: yen
Encoding: 103 165 227
OldEncoding: 165
Width: 633
VWidth: 2048
Flags: W
HStem: 173 73<26 251 348 570> 318 78<26 251 386 570>
VStem: 251 97<3 173 246 318>
Fore
251 3 m 1
 251 173 l 1
 26 173 l 1
 26 246 l 1
 251 246 l 1
 251 318 l 1
 26 318 l 1
 26 396 l 1
 210 396 l 1
 -9 761 l 1
 99 761 l 1
 255 494 l 1
 297 416 l 1
 341 502 l 1
 489 761 l 1
 605 761 l 1
 386 396 l 1
 570 396 l 1
 570 318 l 1
 348 318 l 1
 348 246 l 1
 570 246 l 1
 570 173 l 1
 348 173 l 1
 348 3 l 1
 251 3 l 1
EndSplineSet
EndChar
StartChar: brokenbar
Encoding: 104 166 228
OldEncoding: 166
Width: 127
VWidth: 2048
Flags: W
VStem: 16 80<-232 113 265 610>
Fore
96 610 m 1
 96 265 l 1
 16 265 l 1
 16 610 l 1
 96 610 l 1
96 113 m 1
 96 -232 l 1
 16 -232 l 1
 16 113 l 1
 96 113 l 1
EndSplineSet
EndChar
StartChar: section
Encoding: 105 167 229
OldEncoding: 167
Width: 569
VWidth: 2048
Flags: W
HStem: -180 76<263 301> 686 87<246 279>
VStem: -4 91<344 356> 48 101<603 611> 402 103<-24 -15> 444 98<240 257>
Fore
29 -3 m 1xc8
 133 10 l 1
 149 -67 199 -104 277 -104 c 0
 310 -104 338 -99 361 -84 c 0
 389 -68 402 -48 402 -22 c 0
 402 7 373 39 313 75 c 1
 187 144 l 2
 128 177 86 204 59 226 c 0
 16 262 -4 303 -4 345 c 0xe8
 -4 415 36 463 122 483 c 1
 72 522 48 564 48 605 c 0
 48 652 71 690 113 719 c 0
 154 747 186 764 210 770 c 0
 222 773 236 773 248 773 c 0
 348 773 419 742 463 679 c 2
 463 677 l 2
 478 651 489 622 494 590 c 1
 389 580 l 1
 376 652 335 686 265 686 c 0
 238 686 210 682 187 668 c 1
 162 652 149 632 149 609 c 0
 149 581 175 552 228 518 c 1
 344 454 l 2
 409 419 454 393 477 376 c 0
 519 341 542 302 542 257 c 0xd4
 542 194 500 148 415 116 c 1
 476 78 505 33 505 -17 c 0
 505 -68 480 -110 434 -141 c 0
 392 -167 341 -180 280 -180 c 0
 136 -180 52 -122 29 -3 c 1xc8
361 149 m 1
 416 174 444 204 444 241 c 0xe4
 444 280 393 328 289 381 c 0
 241 407 203 429 173 451 c 1
 115 423 87 390 87 354 c 0
 87 315 135 273 231 222 c 0
 291 191 335 167 361 149 c 1
EndSplineSet
EndChar
StartChar: dieresis
Encoding: 106 168 230
OldEncoding: 168
Width: 343
VWidth: 2048
Flags: W
HStem: 647 101<-1 110 216 326>
Fore
-1 647 m 1
 -1 748 l 1
 110 748 l 1
 110 647 l 1
 -1 647 l 1
216 647 m 1
 216 748 l 1
 326 748 l 1
 326 647 l 1
 216 647 l 1
EndSplineSet
EndChar
StartChar: copyright
Encoding: 107 169 231
OldEncoding: 169
Width: 638
VWidth: 2048
Flags: W
HStem: 1 57<300 314> 141 50<281.443 314> 457 49<296 314> 594 53<300 314>
VStem: -7 49<325 338> 138 56<304 338> 557 51<325 338>
Fore
300 647 m 0
 387 647 461 615 518 552 c 1
 579 492 608 415 608 325 c 0
 608 236 579 161 518 97 c 0
 458 35 386 1 300 1 c 0
 213 1 141 33 81 96 c 0
 23 157 -7 235 -7 325 c 0
 -7 415 22 492 80 554 c 0
 139 616 213 647 300 647 c 0
300 594 m 0
 228 594 167 568 117 516 c 0
 67 464 42 400 42 325 c 0
 42 249 67 186 117 135 c 0
 167 84 228 58 300 58 c 0
 373 58 432 84 481 135 c 0
 532 186 557 249 557 325 c 0
 557 399 532 463 481 515 c 0
 432 568 373 594 300 594 c 0
399 274 m 1
 450 257 l 1
 429 178 378 141 300 141 c 0
 249 141 209 157 180 191 c 0
 152 226 138 270 138 325 c 0
 138 378 152 423 181 455 c 0
 212 490 252 506 304 506 c 0
 376 506 423 474 442 405 c 1
 393 393 l 1
 377 436 345 457 303 457 c 0
 267 457 239 444 219 416 c 0
 203 392 194 361 194 323 c 0
 194 235 229 191 299 191 c 0
 351 191 386 218 399 274 c 1
EndSplineSet
EndChar
StartChar: ordfeminine
Encoding: 108 170 232
OldEncoding: 170
Width: 256
VWidth: 2048
Flags: W
HStem: 478 47<88 104> 718 43<119 130>
VStem: 1 54<563 565> 175 51<600 672>
Fore
180 519 m 1
 152 493 122 478 88 478 c 0
 30 478 1 506 1 563 c 0
 1 597 20 622 52 635 c 1
 88 644 l 1
 141 651 l 1
 175 660 l 1
 175 697 157 718 119 718 c 0
 84 718 64 702 61 670 c 1
 12 683 l 1
 20 735 58 761 119 761 c 0
 191 761 226 731 226 670 c 2
 226 555 l 1
 226 522 231 499 241 484 c 1
 188 484 l 1
 184 496 180 508 180 519 c 1
175 615 m 1
 104 602 l 1
 71 593 55 580 55 563 c 0
 55 538 71 525 102 525 c 0
 151 525 175 554 175 615 c 1
EndSplineSet
EndChar
StartChar: guillemotleft
Encoding: 109 171 233
OldEncoding: 171
Width: 577
VWidth: 2048
Flags: W
Fore
135 299 m 1
 293 13 l 1
 204 13 l 1
 7 299 l 1
 204 581 l 1
 294 581 l 1
 135 299 l 1
376 299 m 1
 538 13 l 1
 442 13 l 1
 249 299 l 1
 442 581 l 1
 538 581 l 1
 376 299 l 1
EndSplineSet
EndChar
StartChar: logicalnot
Encoding: 110 172 234
OldEncoding: 172
Width: 426
VWidth: 2048
Flags: W
HStem: 481 48<3 329>
VStem: 329 71<362 529>
Fore
400 362 m 1
 329 362 l 1
 329 481 l 1
 3 481 l 1
 3 529 l 1
 400 529 l 1
 400 362 l 1
EndSplineSet
EndChar
StartChar: uni00AD
Encoding: 111 173 235
OldEncoding: 173
Width: 216
VWidth: 2048
Flags: W
HStem: 261 55<9 194>
Fore
9 261 m 1
 9 316 l 1
 194 316 l 1
 194 261 l 1
 9 261 l 1
EndSplineSet
EndChar
StartChar: registered
Encoding: 112 174 236
OldEncoding: 174
Width: 819
VWidth: 2048
Flags: W
HStem: -17 45<389 415> 173 20<204 222.958 381 381 600.263 612.984> 370 24<331 358.285> 576 18<212 240.929> 705 43<389 415>
VStem: 4 45<350 384> 261 70<217 370 222 550> 478 74<490 502> 728 43<365 384>
Fore
771 365 m 0
 771 313 761 265 742 219 c 0
 722 173 696 130 660 96 c 0
 628 62 587 35 536 12 c 0
 490 -9 441 -17 389 -17 c 0
 318 -17 254 0 194 35 c 0
 136 68 90 113 58 173 c 0
 23 235 4 299 4 365 c 0
 4 416 14 467 35 513 c 0
 58 566 86 606 117 638 c 0
 154 673 194 702 242 719 c 0
 287 740 336 748 389 748 c 0
 441 748 490 740 536 719 c 1
 589 696 629 668 660 638 c 0
 692 608 719 566 742 513 c 1
 761 467 771 418 771 365 c 0
728 365 m 0
 728 409 718 454 702 499 c 0
 684 536 660 571 628 605 c 0
 593 639 557 663 519 679 c 0
 477 696 432 705 389 705 c 0
 328 705 273 690 219 660 c 1
 168 628 126 587 97 534 c 0
 65 481 49 426 49 364 c 0
 49 303 65 248 97 199 c 0
 128 146 168 104 219 74 c 0
 270 42 326 28 389 28 c 0
 450 28 506 42 557 74 c 0
 609 103 651 146 683 199 c 1
 713 249 728 304 728 365 c 0
331 370 m 1
 331 226 l 2
 331 204 348 193 381 193 c 1
 381 173 l 1
 204 173 l 1
 204 193 l 1
 242 193 261 203 261 222 c 2
 261 542 l 2
 261 558 260 568 254 571 c 0
 246 576 232 576 212 576 c 1
 212 594 l 1
 396 594 l 2
 434 594 463 592 483 583 c 1
 512 571 531 555 541 541 c 0
 547 528 552 512 552 492 c 0
 552 458 541 431 518 412 c 1
 492 392 467 380 441 378 c 1
 574 209 l 2
 580 199 594 193 613 193 c 1
 613 173 l 1
 506 173 l 1
 361 370 l 1
 331 370 l 1
329 550 m 1
 331 394 l 1
 367 394 393 399 409 403 c 1
 457 420 478 452 478 496 c 0
 478 519 470 538 452 550 c 1
 439 563 425 568 413 568 c 2
 352 571 l 2
 339 571 331 564 329 550 c 1
EndSplineSet
EndChar
StartChar: macron
Encoding: 113 175 237
OldEncoding: 175
Width: 210
VWidth: 2048
Flags: W
HStem: 716 37<-3 203>
Fore
-3 716 m 1
 -3 753 l 1
 203 753 l 1
 203 716 l 1
 -3 716 l 1
EndSplineSet
EndChar
StartChar: degree
Encoding: 114 176 238
OldEncoding: 176
Width: 223
VWidth: 2048
Flags: W
HStem: 577 39<104 114> 745 39<104 114>
VStem: 1 41<682 690> 171 39<682 690>
Fore
1 682 m 0
 1 709 12 734 30 755 c 0
 52 777 77 784 104 784 c 0
 136 784 161 777 180 755 c 0
 202 734 210 709 210 682 c 0
 210 651 202 626 180 606 c 0
 160 584 135 577 104 577 c 0
 77 577 52 584 30 606 c 0
 12 626 1 651 1 682 c 0
42 682 m 0
 42 664 49 648 62 635 c 0
 74 622 88 616 104 616 c 0
 123 616 138 622 151 635 c 0
 164 648 171 664 171 682 c 0
 171 697 164 715 151 726 c 0
 138 740 123 745 104 745 c 0
 88 745 74 740 62 728 c 0
 49 715 42 697 42 682 c 0
EndSplineSet
EndChar
StartChar: plusminus
Encoding: 115 177 239
OldEncoding: 177
Width: 533
VWidth: 2048
Flags: W
HStem: 7 95<-17 521> 381 96<-17 204 299 521>
VStem: 204 95<154 381 477 700>
Fore
204 154 m 1
 204 381 l 1
 -17 381 l 1
 -17 477 l 1
 204 477 l 1
 204 700 l 1
 299 700 l 1
 299 477 l 1
 521 477 l 1
 521 381 l 1
 299 381 l 1
 299 154 l 1
 204 154 l 1
521 7 m 1
 -17 7 l 1
 -17 102 l 1
 521 102 l 1
 521 7 l 1
EndSplineSet
EndChar
StartChar: twosuperior
Encoding: 116 178 240
OldEncoding: 178
Width: 179
VWidth: 2048
Flags: W
HStem: 500 36<67 162> 690 34<79.3645 98>
VStem: 122 38<653 666>
Fore
10 500 m 1
 12 525 33 554 71 590 c 2
 102 618 l 1
 115 632 122 645 122 655 c 0
 122 679 112 690 90 690 c 0
 68 690 55 679 51 655 c 1
 14 660 l 1
 23 703 49 724 90 724 c 0
 136 724 160 705 160 664 c 0
 160 644 151 625 136 606 c 0
 130 597 116 584 96 566 c 0
 84 554 74 544 67 536 c 1
 162 536 l 1
 162 500 l 1
 10 500 l 1
EndSplineSet
EndChar
StartChar: threesuperior
Encoding: 117 179 241
OldEncoding: 179
Width: 174
VWidth: 2048
Flags: W
HStem: 509 33<70 86> 610 31<72 85> 695 31<81 87>
VStem: 113 41<665 675> 123 41<569 582>
Fore
3 570 m 1xe8
 41 574 l 1
 48 552 61 542 81 542 c 0
 109 542 123 555 123 580 c 0xe8
 123 602 109 610 81 610 c 1
 72 609 l 1
 67 609 l 1
 72 641 l 1
 100 641 113 651 113 668 c 0
 113 686 102 695 81 695 c 0
 64 695 51 684 45 667 c 1
 7 673 l 1
 17 708 42 726 81 726 c 0
 129 726 154 708 154 673 c 0xf0
 154 652 141 638 117 629 c 1
 148 619 164 602 164 574 c 0
 164 552 154 538 136 526 c 0
 122 515 103 509 84 509 c 0
 36 509 10 529 3 570 c 1xe8
EndSplineSet
EndChar
StartChar: acute
Encoding: 118 180 242
OldEncoding: 180
Width: 171
VWidth: 2048
Flags: W
Fore
10 655 m 1
 67 751 l 1
 168 751 l 1
 74 655 l 1
 10 655 l 1
EndSplineSet
EndChar
StartChar: mu
Encoding: 119 181 243
OldEncoding: 181
Width: 456
VWidth: 2048
Flags: W
HStem: 20 84<208 226>
VStem: 1 90<-181 90 -181 593> 349 82<35 593>
Fore
431 593 m 1
 431 35 l 1
 349 35 l 1
 349 100 l 1
 320 46 277 20 218 20 c 0
 167 20 125 42 91 90 c 1
 91 -181 l 1
 1 -181 l 1
 1 593 l 1
 91 593 l 1
 91 355 l 2
 91 277 97 225 104 193 c 0
 122 136 157 104 213 104 c 0
 273 104 307 135 328 191 c 0
 338 223 342 277 342 354 c 2
 342 593 l 1
 431 593 l 1
EndSplineSet
EndChar
StartChar: paragraph
Encoding: 120 182 244
OldEncoding: 182
Width: 580
VWidth: 2048
Flags: W
HStem: 705 78<231 399 231 563>
VStem: 194 86<-122 705> 399 88<-122 705>
Fore
194 -122 m 1
 194 406 l 1
 135 406 84 423 42 457 c 0
 3 493 -16 538 -16 590 c 0
 -16 654 7 703 54 737 c 1
 99 767 157 783 231 783 c 2
 563 783 l 1
 563 705 l 1
 487 705 l 1
 487 -122 l 1
 399 -122 l 1
 399 705 l 1
 280 705 l 1
 280 -122 l 1
 194 -122 l 1
EndSplineSet
EndChar
StartChar: periodcentered
Encoding: 121 183 245
OldEncoding: 183
Width: 101
VWidth: 2048
Flags: W
VStem: 10 78<373 454>
Fore
10 373 m 1
 10 454 l 1
 88 454 l 1
 88 373 l 1
 10 373 l 1
EndSplineSet
EndChar
StartChar: cedilla
Encoding: 122 184 246
OldEncoding: 184
Width: 223
VWidth: 2048
Flags: W
HStem: -102 51<51 80> 7 70<52 81>
VStem: 130 82<-27 -18>
Fore
52 7 m 1
 78 77 l 1
 146 77 l 1
 129 35 l 1
 184 29 212 10 212 -25 c 0
 212 -51 194 -71 162 -84 c 0
 136 -96 106 -102 72 -102 c 0
 46 -102 22 -100 0 -96 c 1
 7 -49 l 1
 51 -51 l 2
 103 -52 130 -41 130 -20 c 0
 130 -1 104 7 52 7 c 1
EndSplineSet
EndChar
StartChar: onesuperior
Encoding: 123 185 247
OldEncoding: 185
Width: 156
VWidth: 2048
Flags: W
VStem: 87 43<480 705>
Fore
87 480 m 1
 87 645 l 1
 65 629 42 618 17 613 c 1
 17 648 l 1
 48 658 74 679 97 705 c 1
 130 705 l 1
 130 480 l 1
 87 480 l 1
EndSplineSet
EndChar
StartChar: ordmasculine
Encoding: 124 186 248
OldEncoding: 186
Width: 227
VWidth: 2048
Flags: W
HStem: 493 45<106 114> 695 45<106 114>
VStem: 1 48<604 622> 164 48<604 622>
Fore
106 740 m 0
 139 740 167 728 186 703 c 0
 203 682 212 652 212 616 c 0
 212 581 203 552 186 531 c 0
 167 506 139 493 106 493 c 0
 74 493 48 506 28 531 c 0
 10 552 1 580 1 615 c 0
 1 651 10 680 28 702 c 0
 46 728 72 740 106 740 c 0
106 695 m 0
 68 695 49 670 49 616 c 0
 49 564 68 538 106 538 c 0
 144 538 164 564 164 618 c 0
 164 670 144 695 106 695 c 0
EndSplineSet
EndChar
StartChar: guillemotright
Encoding: 125 187 249
OldEncoding: 187
Width: 577
VWidth: 2048
Flags: W
Fore
409 299 m 1
 251 14 l 1
 341 14 l 1
 538 299 l 1
 341 581 l 1
 249 581 l 1
 409 299 l 1
171 299 m 1
 7 14 l 1
 102 14 l 1
 294 299 l 1
 102 581 l 1
 7 581 l 1
 171 299 l 1
EndSplineSet
EndChar
StartChar: onequarter
Encoding: 126 188 250
OldEncoding: 188
Width: 920
VWidth: 2048
Flags: W
HStem: -13 21G<726 806> 62 51<600 726 806 864>
VStem: 123 81<351 708> 726 80<-13 62 113 344>
Fore
78 -25 m 1
 683 709 l 1
 771 709 l 1
 167 -25 l 1
 78 -25 l 1
123 351 m 1
 123 615 l 1
 87 589 46 571 0 560 c 1
 0 619 l 1
 55 635 103 666 144 708 c 1
 204 708 l 1
 204 351 l 1
 123 351 l 1
726 -13 m 1
 726 62 l 1
 515 62 l 1
 515 122 l 1
 740 344 l 1
 806 344 l 1
 806 113 l 1
 864 113 l 1
 864 62 l 1
 806 62 l 1
 806 -13 l 1
 726 -13 l 1
726 113 m 1
 726 238 l 1
 600 113 l 1
 726 113 l 1
EndSplineSet
EndChar
StartChar: onehalf
Encoding: 127 189 251
OldEncoding: 189
Width: 920
VWidth: 2048
Flags: W
HStem: -28 58<677 850> 274 55<704 731>
VStem: 125 79<351 708> 571 279<-28 -17.0026> 779 69<220 234>
Fore
80 -25 m 1xe0
 684 710 l 1
 773 710 l 1
 168 -25 l 1
 80 -25 l 1xe0
125 351 m 1
 125 615 l 1
 88 589 48 571 1 560 c 1
 1 619 l 1
 58 635 104 666 146 708 c 1
 204 708 l 1
 204 351 l 1
 125 351 l 1
571 -28 m 1xf0
 571 10 609 59 684 117 c 0
 747 165 779 200 779 222 c 0
 779 255 757 274 716 274 c 0
 683 274 660 255 648 222 c 1
 581 226 l 1
 597 294 644 329 718 329 c 0
 805 329 848 297 848 232 c 0xe8
 848 202 834 171 808 139 c 1
 731 75 l 1
 677 30 l 1
 850 30 l 1
 850 -28 l 1
 571 -28 l 1xf0
EndSplineSet
EndChar
StartChar: threequarters
Encoding: 128 190 252
OldEncoding: 190
Width: 920
VWidth: 2048
Flags: W
HStem: -13 21G<728 808> 61 51<602 728 808 866> 341 58<118 136> 516 51<106 127> 658 57<125 136>
VStem: 186 76<608 624> 203 77<449 465> 728 80<-13 61 112 344>
Fore
-25 444 m 1xfb
 49 451 l 1
 59 416 84 399 125 399 c 0
 175 399 203 419 203 463 c 0xfb
 203 499 175 516 125 516 c 1
 106 513 l 1
 97 513 l 1
 106 567 l 1
 160 567 186 583 186 616 c 0
 186 644 165 658 125 658 c 0
 90 658 67 644 54 610 c 1
 -16 622 l 1
 4 683 52 715 125 715 c 0
 216 715 262 683 262 622 c 0xfd
 262 584 239 560 194 545 c 1
 251 531 280 500 280 451 c 0
 280 416 264 389 231 368 c 0
 202 349 168 341 129 341 c 0
 41 341 -10 376 -25 444 c 1xfb
80 -25 m 1
 684 709 l 1
 773 709 l 1
 168 -25 l 1
 80 -25 l 1
728 -13 m 1
 728 61 l 1
 516 61 l 1
 516 122 l 1
 741 344 l 1
 808 344 l 1
 808 112 l 1
 866 112 l 1
 866 61 l 1
 808 61 l 1
 808 -13 l 1
 728 -13 l 1
728 112 m 1
 728 236 l 1
 602 112 l 1
 728 112 l 1
EndSplineSet
EndChar
StartChar: questiondown
Encoding: 129 191 253
OldEncoding: 191
Width: 464
VWidth: 2048
Flags: W
HStem: -194 75<199.028 232>
VStem: -9 90<-3 19> 171 97<451 554> 178 84<346 374>
Fore
268 554 m 1xe0
 268 451 l 1
 171 451 l 1
 171 554 l 1
 268 554 l 1xe0
262 374 m 1xd0
 262 348 l 2
 262 299 252 255 236 225 c 0
 223 200 194 171 154 133 c 0
 104 90 81 49 81 13 c 0
 81 -25 96 -55 122 -81 c 0
 149 -106 180 -119 216 -119 c 0
 294 -119 341 -71 357 28 c 1
 445 17 l 1
 428 -125 351 -194 218 -194 c 0
 157 -194 104 -177 64 -142 c 0
 16 -106 -9 -55 -9 7 c 0
 -9 65 28 128 100 194 c 0
 133 226 154 252 164 270 c 0
 174 293 178 328 178 374 c 1
 262 374 l 1xd0
EndSplineSet
EndChar
StartChar: caron
Encoding: 130 711 254
OldEncoding: 711
Width: 1044
VWidth: 2048
Flags: W
Fore
492 837 m 1
 246 1024 l 1
 225 1045 l 1
 222 1060 l 1
 222 1073 226 1083 235 1089 c 1
 241 1096 251 1099 261 1099 c 0
 268 1099 278 1095 291 1086 c 2
 492 932 l 1
 692 1085 l 1
 705 1095 715 1099 722 1099 c 0
 734 1099 744 1096 751 1089 c 0
 757 1082 761 1073 761 1060 c 0
 761 1050 753 1037 735 1024 c 1
 492 837 l 1
EndSplineSet
EndChar
StartChar: ring
Encoding: 131 730 255
OldEncoding: 730
Width: 1044
VWidth: 2048
Flags: W
HStem: 834 53<492 503> 1102 55<492 503>
VStem: 326 54<981.128 998> 602 53<980.777 998>
Fore
655 995 m 0
 655 954 639 915 606 883 c 0
 576 850 538 834 492 834 c 0
 445 834 406 850 376 883 c 0
 342 916 326 954 326 995 c 0
 326 1038 342 1076 376 1111 c 0
 406 1140 444 1157 492 1157 c 0
 538 1157 577 1140 606 1111 c 0
 639 1079 655 1038 655 995 c 0
602 995 m 0
 602 1024 590 1050 568 1072 c 0
 545 1093 519 1102 492 1102 c 0
 463 1102 436 1093 413 1072 c 0
 392 1050 380 1025 380 995 c 0
 380 967 392 942 413 921 c 0
 436 898 463 887 492 887 c 0
 521 887 547 898 568 921 c 1
 590 941 602 966 602 995 c 0
EndSplineSet
EndChar
StartChar: uni0E01
Encoding: 132 3585 131
OldEncoding: 3585
Width: 594
Flags: W
HStem: 0 21G<91 161 441 509> 508 59<274 308>
VStem: 91 70<0 289> 441 68<0 401>
Fore
35 438 m 1
 49 458 78 487 122 519 c 0
 164 551 219 567 287 567 c 4
 328 567 365 560 400 547 c 0
 434 534 461 515 480 487 c 0
 500 458 509 425 509 387 c 2
 509 0 l 1
 441 0 l 1
 441 387 l 2
 441 412 434 432 419 451 c 0
 406 468 389 483 365 493 c 0
 342 503 316 508 289 508 c 0
 229 508 178 490 136 454 c 1
 146 452 162 445 186 436 c 0
 209 426 229 412 249 393 c 1
 235 390 216 380 194 364 c 0
 173 348 161 319 161 280 c 2
 161 0 l 1
 91 0 l 1
 91 277 l 2
 91 310 99 335 110 352 c 0
 123 368 139 381 157 390 c 1
 149 396 136 405 115 416 c 0
 93 428 65 436 35 438 c 1
EndSplineSet
EndChar
StartChar: uni0E02
Encoding: 133 3586 132
OldEncoding: 3586
Width: 603
Flags: W
HStem: 0 59<174 404> 328 52<126 143> 515 52<199 212>
VStem: 35 55<429 451> 242 70<59 273> 302 63<419 433> 451 68<106 557>
Fore
199 567 m 4xfa
 232 567 262 560 287 547 c 0
 312 532 331 515 345 493 c 0
 358 471 365 450 365 425 c 0xf6
 365 403 364 387 358 376 c 0
 354 364 348 352 339 338 c 0
 329 323 323 312 318 300 c 0
 313 289 312 270 312 246 c 2
 312 59 l 1
 400 59 l 2
 420 59 436 62 442 68 c 0
 447 74 451 87 451 106 c 2
 451 557 l 1
 519 557 l 1
 519 106 l 2
 519 62 512 33 496 20 c 0
 480 7 447 0 400 0 c 2
 174 0 l 1
 174 59 l 1
 242 59 l 1
 242 255 l 2xfa
 242 276 244 291 249 303 c 0
 252 313 260 325 268 339 c 0
 278 352 287 364 291 376 c 0
 297 387 300 402 302 419 c 0xf6
 302 447 293 470 276 489 c 0
 257 506 235 515 210 515 c 0
 204 515 197 513 186 512 c 1
 194 509 206 502 222 489 c 0
 236 476 244 452 242 419 c 0
 242 390 229 367 210 352 c 0
 188 336 161 328 126 328 c 1
 65 336 35 377 35 451 c 1
 39 484 59 515 93 536 c 0
 128 557 162 567 199 567 c 4xfa
141 481 m 0
 125 481 112 477 103 467 c 0
 96 457 90 445 90 431 c 0
 90 418 96 406 103 396 c 0
 112 386 125 380 141 380 c 0
 157 380 171 386 178 396 c 0
 187 406 191 418 191 431 c 0
 191 445 187 457 178 467 c 0
 171 477 157 481 141 481 c 0
EndSplineSet
EndChar
StartChar: uni0E03
Encoding: 134 3587 133
OldEncoding: 3587
Width: 640
Flags: W
HStem: 0 59<212 443> 249 51<126 139> 402 48<121 128>
VStem: 10 65<351 387> 177 52<347 361> 280 69<59 369> 341 59<461 471> 489 68<106 557>
Fore
400 463 m 0xfb
 400 451 399 441 393 434 c 0
 389 428 383 420 376 413 c 0
 367 406 361 399 355 390 c 0
 351 381 349 370 349 355 c 2
 349 59 l 1
 438 59 l 2
 458 59 474 62 478 68 c 1
 484 74 489 87 489 106 c 2
 489 557 l 1
 557 557 l 1
 557 106 l 2
 557 62 550 33 534 20 c 0
 519 7 487 0 438 0 c 2
 212 0 l 1
 212 59 l 1
 280 59 l 1
 280 358 l 2xfd
 280 378 281 393 287 405 c 0
 291 415 299 423 304 429 c 0
 310 434 319 441 331 450 c 0
 338 454 341 458 341 467 c 0
 341 476 336 487 325 499 c 0
 313 508 303 515 293 516 c 1
 226 470 l 1
 148 516 l 1
 125 512 106 499 96 480 c 0
 81 463 75 445 75 431 c 1
 77 434 84 438 91 442 c 0
 100 447 112 450 128 450 c 0
 155 447 180 439 200 425 c 0
 219 407 229 383 229 349 c 0
 229 318 218 293 197 276 c 0
 175 257 151 249 126 249 c 0
 93 249 64 262 42 287 c 0
 20 313 10 345 10 387 c 0
 10 412 13 436 22 457 c 1
 29 490 49 516 78 538 c 0
 106 557 133 567 154 567 c 1
 226 522 l 1
 290 567 l 1
 318 558 342 545 365 528 c 0
 389 509 400 487 400 463 c 0xfb
126 402 m 0
 112 402 99 396 90 387 c 0
 80 377 75 365 75 351 c 0
 75 338 80 326 90 316 c 0
 99 304 112 300 126 300 c 0
 142 300 155 304 164 315 c 0
 173 326 177 338 177 351 c 0
 177 365 173 377 164 387 c 0
 155 396 142 402 126 402 c 0
EndSplineSet
EndChar
StartChar: uni0E04
Encoding: 135 3588 134
OldEncoding: 3588
Width: 600
Flags: W
HStem: 0 21G<141 209 447 516> 232 49<270 281> 383 51<270 283> 516 55<264 298>
VStem: 41 68<353.814 385> 141 68<0 252> 320 50<321.147 337> 447 69<0 385>
Fore
109 368 m 0
 109 349 115 326 126 302 c 0
 138 277 144 257 148 242 c 1
 148 294 l 2
 148 336 157 368 178 394 c 0
 200 420 231 434 270 434 c 0
 302 434 326 425 344 405 c 0
 362 386 370 361 370 332 c 0
 370 304 362 281 344 262 c 0
 326 242 302 232 270 232 c 0
 242 232 222 239 209 252 c 1
 209 0 l 1
 141 0 l 1
 141 100 l 2
 141 125 138 146 129 165 c 0
 122 184 109 206 90 235 c 0
 72 262 61 286 52 304 c 0
 45 323 41 345 41 373 c 0
 41 415 52 451 75 480 c 0
 99 512 128 534 165 550 c 0
 202 564 241 571 281 571 c 0
 345 571 400 554 445 521 c 0
 493 487 516 441 516 378 c 2
 516 0 l 1
 447 0 l 1
 447 373 l 2
 447 418 431 454 396 478 c 0
 362 503 323 516 277 516 c 0
 229 516 190 503 157 478 c 0
 125 454 109 416 109 368 c 0
270 383 m 0
 254 383 241 378 232 368 c 0
 225 358 219 348 219 332 c 0
 219 319 225 307 232 299 c 0
 241 287 254 281 270 281 c 0
 287 281 300 287 307 299 c 0
 316 307 320 319 320 332 c 0
 320 348 316 358 307 368 c 0
 300 378 287 383 270 383 c 0
EndSplineSet
EndChar
StartChar: uni0E05
Encoding: 136 3589 135
OldEncoding: 3589
Width: 600
Flags: W
HStem: 0 21G<141 209 447 516> 232 49<270 282> 383 51<270 282>
VStem: 41 68<353.814 369> 141 68<0 252> 320 50<321.147 337> 447 69<0 401>
Fore
41 373 m 0
 41 409 55 447 87 483 c 0
 117 519 154 547 199 567 c 1
 293 503 l 1
 387 567 l 1
 474 526 516 463 516 378 c 2
 516 0 l 1
 447 0 l 1
 447 373 l 2
 447 396 445 418 442 434 c 0
 438 451 432 464 426 471 c 0
 420 480 413 487 405 493 c 0
 396 500 389 505 383 509 c 1
 293 451 l 1
 293 452 281 458 261 474 c 0
 239 489 219 500 204 509 c 1
 171 493 148 474 133 451 c 0
 117 426 110 400 109 368 c 0
 109 349 115 326 126 302 c 0
 138 277 144 257 148 242 c 1
 148 294 l 2
 148 336 157 368 178 394 c 0
 200 420 231 434 270 434 c 0
 302 434 326 425 344 405 c 0
 362 386 370 361 370 332 c 0
 370 304 362 281 344 262 c 0
 326 242 302 232 270 232 c 0
 242 232 222 239 209 252 c 1
 209 0 l 1
 141 0 l 1
 141 100 l 2
 141 125 138 146 129 165 c 0
 122 184 109 206 90 235 c 0
 72 262 61 286 52 304 c 0
 45 323 41 345 41 373 c 0
270 383 m 0
 254 383 241 378 232 368 c 0
 225 358 219 348 219 332 c 0
 219 319 225 307 232 299 c 0
 241 287 254 281 270 281 c 0
 287 281 300 287 307 299 c 0
 316 307 320 319 320 332 c 0
 320 348 316 358 307 368 c 0
 300 378 287 383 270 383 c 0
EndSplineSet
EndChar
StartChar: uni0E06
Encoding: 137 3590 136
OldEncoding: 3590
Width: 751
Flags: W
HStem: -10 58<264 272> 249 51<141 154>
VStem: 25 65<351 387> 165 58<101 119> 191 51<341 361> 293 69<69 188 241 361> 355 58<461 471> 597 70<0 13.4092 116 557>
Fore
293 242 m 1xf5
 293 358 l 2xf5
 293 377 297 393 302 405 c 0
 306 416 312 425 319 431 c 0
 326 436 335 442 345 450 c 0
 352 454 355 458 355 467 c 0
 355 477 351 487 339 499 c 0
 328 508 316 515 307 516 c 1
 239 470 l 1
 161 516 l 1
 139 512 123 499 109 480 c 0
 96 463 88 445 88 431 c 1
 91 434 97 438 104 442 c 0
 113 447 126 450 141 450 c 0
 168 447 193 439 213 423 c 0
 232 407 242 383 242 349 c 0
 242 318 231 293 210 276 c 0
 188 257 165 249 141 249 c 0
 106 249 78 262 58 287 c 0
 36 313 25 345 25 387 c 0
 25 409 28 432 35 457 c 0
 45 490 64 516 91 538 c 0
 119 557 146 567 167 567 c 1
 239 522 l 1
 304 567 l 1
 331 558 355 545 378 528 c 0
 402 509 413 487 413 463 c 0xeb
 413 451 412 441 406 434 c 0
 402 428 396 420 389 413 c 0
 380 405 374 399 368 390 c 0
 364 381 362 370 362 355 c 2
 362 242 l 1
 399 239 432 231 465 216 c 0
 496 203 525 187 547 168 c 0
 570 149 587 130 597 116 c 1
 597 557 l 1
 667 557 l 1
 667 0 l 1
 597 0 l 1
 597 22 589 46 567 74 c 0
 545 102 516 128 478 149 c 0
 442 171 403 184 362 188 c 1
 362 86 l 2
 362 55 354 33 339 16 c 0
 323 -1 300 -10 270 -10 c 0
 238 -10 212 1 193 26 c 0
 175 49 165 77 165 110 c 0
 165 144 177 175 200 202 c 0
 222 226 252 241 293 242 c 1xf5
239 62 m 0
 248 52 257 48 268 48 c 0
 286 48 293 58 293 75 c 2
 293 191 l 1
 270 191 252 184 241 168 c 0
 229 152 223 135 223 113 c 0
 223 91 228 74 239 62 c 0
141 402 m 0
 125 402 112 396 103 387 c 0
 96 378 90 365 90 351 c 0
 90 338 96 326 103 315 c 0
 112 304 125 300 141 300 c 0
 157 300 171 304 178 315 c 0
 187 325 191 336 191 351 c 0xe9
 191 365 187 378 178 387 c 0
 171 396 157 402 141 402 c 0
EndSplineSet
EndChar
StartChar: uni0E07
Encoding: 138 3591 137
OldEncoding: 3591
Width: 471
Flags: W
HStem: -12 63<284 302> 362 51<286 298> 513 51<286 295>
VStem: 186 49<464 469> 318 69<67 368> 338 49<461 469>
Fore
318 77 m 2xf8
 318 368 l 1xf8
 310 364 300 362 286 362 c 0
 254 362 229 373 212 393 c 0
 193 413 186 436 186 464 c 0
 186 492 193 516 212 536 c 0
 229 554 254 564 286 564 c 0
 306 564 325 558 339 551 c 0
 354 542 367 529 376 515 c 0
 383 500 387 481 387 463 c 2xf4
 387 72 l 2
 387 46 378 25 362 10 c 0
 345 -4 325 -12 300 -12 c 0
 281 -12 265 -9 249 0 c 0
 235 9 218 20 209 38 c 2
 25 349 l 1
 78 378 l 1
 264 68 l 2
 270 58 280 51 293 51 c 0
 302 51 306 52 312 58 c 0
 316 62 318 68 318 77 c 2xf8
286 513 m 0
 270 513 257 508 249 499 c 0
 239 487 235 476 235 464 c 0
 235 451 239 439 248 429 c 0
 257 418 270 413 286 413 c 0
 302 413 315 418 325 429 c 0
 332 439 338 451 338 464 c 0xf4
 338 476 332 487 323 499 c 0
 313 508 300 513 286 513 c 0
EndSplineSet
EndChar
StartChar: uni0E08
Encoding: 139 3592 138
OldEncoding: 3592
Width: 559
Flags: W
HStem: 0 21G<406 476> 352 54<236 244> 515 52<234 275>
VStem: 136 50<301 309> 406 70<0 29.9168 226 401>
Fore
236 406 m 0
 268 406 297 396 320 373 c 0
 345 348 362 319 378 286 c 0
 393 252 405 232 406 226 c 1
 406 383 l 2
 406 425 392 457 364 478 c 0
 335 502 299 515 254 515 c 0
 180 516 122 484 78 425 c 1
 35 458 l 1
 51 487 78 512 117 534 c 0
 157 555 203 567 255 567 c 0
 297 567 335 560 368 545 c 0
 402 531 428 512 445 483 c 0
 465 455 476 423 476 383 c 2
 476 0 l 1
 406 0 l 1
 406 30 403 65 394 102 c 0
 387 136 376 168 364 199 c 0
 351 228 338 249 326 264 c 1
 323 254 315 242 302 228 c 0
 287 213 265 204 236 203 c 0
 209 203 184 213 165 232 c 0
 146 252 136 277 136 307 c 0
 136 338 146 361 164 378 c 0
 181 396 204 406 236 406 c 0
236 352 m 0
 219 352 206 348 199 338 c 0
 190 328 186 316 186 303 c 0
 186 290 190 278 200 268 c 0
 209 257 222 252 236 252 c 0
 251 252 264 257 273 267 c 0
 280 277 286 289 286 303 c 0
 286 316 281 328 274 338 c 0
 265 348 252 352 236 352 c 0
EndSplineSet
EndChar
StartChar: uni0E09
Encoding: 140 3593 139
OldEncoding: 3593
Width: 640
Flags: W
HStem: -10 55<519 534> 188 50<136 148> 339 51<136 148> 513 54<307 324>
VStem: 35 51<277 295> 167 69<0 12.8825 0 287> 187 49<285 295> 454 68<53 186 238 392> 577 52<110 121>
Fore
236 287 m 2xfd80
 236 119 l 1
 261 154 293 180 335 202 c 0
 374 222 413 235 454 239 c 1
 454 383 l 2
 454 425 441 457 415 478 c 0
 389 502 352 513 307 513 c 0
 270 513 236 503 204 484 c 0
 175 467 152 444 136 419 c 1
 91 454 l 1
 113 484 141 513 178 534 c 0
 216 555 261 567 307 567 c 0
 373 567 425 551 464 518 c 0
 503 487 522 441 522 383 c 2
 522 239 l 1
 557 232 584 218 603 197 c 0
 621 174 629 144 629 110 c 0
 629 75 619 46 597 25 c 0
 577 1 551 -10 519 -10 c 0
 500 -10 483 -3 471 9 c 0
 461 20 454 36 454 55 c 2
 454 186 l 1
 413 177 377 164 342 144 c 0
 307 123 281 100 264 74 c 0
 246 48 236 23 236 0 c 1
 167 0 l 1
 167 194 l 1
 161 190 151 188 136 188 c 0
 104 188 80 199 62 219 c 0
 45 239 35 262 35 290 c 0
 35 318 42 341 61 361 c 0
 78 380 103 390 136 390 c 0
 167 390 190 380 209 361 c 0
 226 341 236 316 236 287 c 2xfd80
136 339 m 0
 119 339 106 335 99 325 c 0
 90 315 86 303 86 289 c 0
 86 274 90 262 99 252 c 0
 106 242 119 238 136 238 c 0
 152 238 165 242 174 252 c 0
 181 264 187 276 187 289 c 0xfb80
 187 303 181 315 174 325 c 0
 165 335 152 339 136 339 c 0
577 110 m 0
 577 129 571 148 564 162 c 0
 554 175 541 184 522 186 c 1
 522 59 l 2
 522 49 526 45 532 45 c 0
 544 45 555 51 564 64 c 0
 571 77 577 91 577 110 c 0
EndSplineSet
EndChar
StartChar: uni0E0A
Encoding: 141 3594 140
OldEncoding: 3594
Width: 603
Flags: W
HStem: 0 59<174 404> 328 52<126 143> 419 49<355 366> 515 52<199 212>
VStem: 35 55<429 451> 242 70<59 273> 451 68<106 339>
Fore
441 447 m 1
 445 447 455 445 467 441 c 0
 478 436 490 426 502 407 c 0
 513 390 519 365 519 335 c 2
 519 106 l 2
 519 62 512 33 496 20 c 0
 480 7 447 0 400 0 c 2
 174 0 l 1
 174 59 l 1
 242 59 l 1
 242 255 l 2
 242 276 244 291 249 303 c 0
 252 313 260 325 268 339 c 0
 278 352 287 364 291 376 c 0
 297 387 300 402 302 419 c 0
 302 447 293 470 276 489 c 0
 257 506 235 515 210 515 c 0
 204 515 197 513 186 512 c 1
 194 509 206 502 222 489 c 0
 236 476 244 452 242 419 c 0
 242 390 229 367 210 352 c 0
 188 336 161 328 126 328 c 1
 65 336 35 377 35 451 c 1
 39 484 59 515 93 536 c 0
 128 557 162 567 199 567 c 0
 225 567 249 563 270 554 c 0
 291 545 310 532 325 518 c 0
 339 503 349 487 355 468 c 1
 373 468 399 477 432 494 c 0
 467 512 502 545 532 597 c 1
 581 567 l 1
 564 529 541 500 512 481 c 0
 480 464 457 452 441 447 c 1
364 419 m 1
 364 402 362 386 357 374 c 0
 352 362 348 349 339 338 c 0
 331 325 323 312 318 299 c 0
 313 286 312 267 312 246 c 2
 312 59 l 1
 400 59 l 2
 420 59 436 62 442 68 c 0
 447 74 451 87 451 106 c 2
 451 320 l 2
 451 387 420 419 364 419 c 1
141 481 m 0
 125 481 112 477 103 467 c 0
 96 457 90 445 90 431 c 0
 90 418 96 406 103 396 c 0
 112 386 125 380 141 380 c 0
 157 380 171 386 178 396 c 0
 187 406 191 418 191 431 c 0
 191 445 187 457 178 467 c 0
 171 477 157 481 141 481 c 0
EndSplineSet
EndChar
StartChar: uni0E0B
Encoding: 142 3595 141
OldEncoding: 3595
Width: 640
Flags: W
HStem: 0 59<212 443> 249 51<126 139> 402 48<121 128>
VStem: 10 65<351 387> 177 52<347 361> 280 69<59 369> 489 68<106 353>
Fore
400 478 m 1
 418 483 445 494 480 516 c 0
 515 536 545 568 570 615 c 1
 621 581 l 1
 608 557 590 532 568 515 c 0
 545 494 526 483 509 476 c 0
 492 465 480 458 471 457 c 1
 487 455 505 445 526 431 c 0
 547 415 557 381 557 335 c 2
 557 106 l 2
 557 62 550 33 534 20 c 0
 519 7 487 0 438 0 c 2
 212 0 l 1
 212 59 l 1
 280 59 l 1
 280 358 l 2
 280 386 286 403 293 415 c 0
 302 426 315 438 331 450 c 0
 338 454 341 458 341 467 c 0
 341 476 336 487 325 499 c 0
 313 508 303 515 293 516 c 1
 226 470 l 1
 148 516 l 1
 125 512 106 499 96 480 c 0
 81 463 75 445 75 431 c 1
 77 434 84 438 91 442 c 0
 100 447 112 450 128 450 c 0
 155 447 180 439 200 425 c 0
 219 407 229 383 229 349 c 0
 229 318 218 293 197 276 c 0
 175 257 151 249 126 249 c 0
 93 249 64 262 42 287 c 0
 20 313 10 345 10 387 c 0
 10 412 13 436 22 457 c 1
 29 490 49 516 78 538 c 0
 106 557 133 567 154 567 c 1
 226 522 l 1
 290 567 l 1
 315 563 335 554 349 541 c 0
 365 528 378 515 387 500 c 0
 394 487 400 480 400 478 c 1
 400 478 l 1
393 431 m 1
 389 426 383 419 376 413 c 0
 365 406 358 400 355 392 c 0
 351 383 349 373 349 355 c 2
 349 59 l 1
 438 59 l 2
 458 59 474 62 478 68 c 1
 484 74 489 87 489 106 c 2
 489 335 l 2
 489 399 457 431 393 431 c 1
126 402 m 0
 112 402 99 396 90 387 c 0
 80 377 75 365 75 351 c 0
 75 338 80 326 90 316 c 0
 99 304 112 300 126 300 c 0
 142 300 155 304 164 315 c 0
 173 326 177 338 177 351 c 0
 177 365 173 377 164 387 c 0
 155 396 142 402 126 402 c 0
EndSplineSet
EndChar
StartChar: uni0E0C
Encoding: 143 3596 142
OldEncoding: 3596
Width: 777
Flags: W
HStem: -10 51<181 196> -10 62<392 406> 141 50<181 196> 516 51<253 293>
VStem: 91 51<91 100> 91 70<91 311> 244 47<91 102> 318 47<85 106> 403 68<64 149 203 423> 625 68<100 557>
Fore
161 293 m 2x77c0
 161 186 l 1x77c0
 165 190 177 191 194 191 c 0
 226 191 249 181 267 162 c 0
 283 142 291 119 291 91 c 0
 291 64 283 41 267 22 c 0
 249 0 226 -10 194 -10 c 0
 165 -10 141 0 122 17 c 0
 102 36 91 61 91 91 c 2xbbc0
 91 290 l 2
 91 354 115 393 161 409 c 1
 152 416 136 426 115 438 c 0
 93 450 65 457 35 465 c 1
 48 483 74 505 112 529 c 0
 149 554 202 567 267 567 c 0
 403 567 471 515 471 409 c 2
 471 203 l 1
 496 199 525 187 554 168 c 0
 584 149 608 126 625 100 c 1
 625 557 l 5
 693 557 l 1
 693 0 l 1
 625 0 l 1
 618 16 609 33 600 51 c 0
 589 67 571 86 551 104 c 0
 529 123 503 138 471 149 c 1
 471 62 l 2
 471 14 451 -10 406 -10 c 0
 378 -10 357 1 341 23 c 0
 326 45 318 71 318 102 c 0
 318 129 326 154 341 174 c 0
 355 193 376 203 403 204 c 1
 403 409 l 2
 403 444 392 471 368 490 c 0
 345 508 315 516 277 516 c 0
 229 516 180 503 133 476 c 1
 144 471 161 464 186 452 c 0
 210 441 231 426 252 406 c 1
 244 406 235 405 222 400 c 0
 209 394 194 386 180 368 c 0
 167 351 161 326 161 293 c 2x77c0
403 65 m 1
 403 157 l 1
 378 152 365 133 365 96 c 0
 365 84 368 74 376 65 c 0
 380 58 387 52 392 52 c 0
 399 52 402 58 403 65 c 1
193 41 m 0xbbc0
 210 41 223 46 231 55 c 0
 239 65 244 77 244 91 c 0
 244 104 239 116 231 126 c 0
 222 136 209 141 193 141 c 0
 178 141 165 136 157 126 c 0
 148 116 142 104 142 91 c 0
 142 77 148 65 155 55 c 0
 165 46 178 41 193 41 c 0xbbc0
EndSplineSet
EndChar
StartChar: uni0E0D
Encoding: 144 3597 143
OldEncoding: 3597
Width: 777
Flags: W
HStem: -278 49<478 496> -106 52<425 431> -10 51<181 196> 0 59<335 592> 141 50<181 196> 516 51<253 293>
VStem: 91 51<81.0684 94> 91 70<91 299> 244 47<80.3445 94> 328 50<-156 -149> 403 68<59 427> 468 53<-151 -149> 625 68<-58 -58 106 557>
Fore
693 -58 m 1xccd8
 693 -106 683 -148 666 -180 c 0
 647 -215 622 -239 592 -254 c 0
 560 -270 529 -278 494 -278 c 0
 451 -278 412 -265 378 -242 c 0
 344 -218 328 -190 328 -154 c 0
 328 -128 336 -104 352 -84 c 0
 367 -64 393 -52 428 -54 c 0
 458 -54 481 -65 496 -84 c 0
 513 -102 521 -125 521 -151 c 0
 521 -167 518 -181 509 -197 c 0
 502 -212 492 -222 478 -229 c 1
 515 -229 547 -218 579 -197 c 0
 609 -175 625 -128 625 -58 c 1
 693 -58 l 1xccd8
91 91 m 2xeec8
 91 290 l 2
 91 354 115 393 161 409 c 1
 152 416 136 426 115 438 c 0
 93 450 65 457 35 465 c 1
 48 483 74 505 112 529 c 0
 149 554 202 567 267 567 c 0
 403 567 471 515 471 409 c 2
 471 59 l 1
 574 59 l 2
 594 59 609 62 615 68 c 1
 621 74 625 87 625 106 c 2
 625 557 l 1
 693 557 l 1
 693 106 l 2
 693 75 690 52 683 38 c 0
 677 23 666 13 648 9 c 0
 632 3 608 0 574 0 c 2
 335 0 l 1
 335 59 l 1
 403 59 l 1
 403 409 l 2
 403 444 392 471 368 490 c 0
 345 508 315 516 277 516 c 0
 229 516 180 503 133 476 c 1
 144 471 161 464 186 452 c 0
 210 441 231 426 252 406 c 1
 244 406 235 405 222 400 c 0
 209 394 194 386 180 368 c 0
 167 351 161 326 161 293 c 2
 161 186 l 1xdde8
 165 190 177 191 194 191 c 0
 226 191 249 181 267 162 c 0
 283 142 291 119 291 91 c 0
 291 64 283 41 267 22 c 0
 249 0 226 -10 194 -10 c 0
 165 -10 141 0 122 17 c 0
 102 36 91 61 91 91 c 2xeec8
425 -194 m 0
 439 -194 450 -190 457 -181 c 0
 465 -174 468 -162 468 -151 c 0xccd8
 468 -139 465 -129 457 -119 c 0
 450 -112 439 -106 425 -106 c 0
 409 -106 400 -112 392 -119 c 0
 383 -128 378 -139 378 -151 c 0
 378 -162 383 -174 392 -181 c 0
 400 -190 412 -194 425 -194 c 0
193 41 m 0xeec8
 210 41 223 46 231 55 c 0
 239 65 244 77 244 91 c 0
 244 104 239 116 231 126 c 0
 222 136 209 141 193 141 c 0
 178 141 165 136 157 126 c 0
 148 116 142 104 142 91 c 0
 142 77 148 65 155 55 c 0
 165 46 178 41 193 41 c 0xeec8
EndSplineSet
Substitution: 0 65534 'ndsc' uni0E0D.descless
EndChar
StartChar: uni0E0E
Encoding: 145 3598 144
OldEncoding: 3598
Width: 661
Flags: W
HStem: -283 64<201 216> -116 61<225 237> -10 51<128 132> 141 50<128 132> 508 59<333 369>
VStem: 28 49<91 102> 161 68<186 294> 180 49<84 102> 509 68<-188 395>
AnchorPoint: "BelowBase" 577.1 -324.8 basechar 0
Fore
161 186 m 1xfe80
 161 277 l 2
 161 299 164 318 171 335 c 0
 175 349 184 362 193 370 c 0
 203 378 215 386 226 390 c 1
 218 396 203 405 181 416 c 0
 161 428 133 436 102 438 c 1
 116 458 146 487 190 519 c 0
 235 551 289 567 355 567 c 0
 419 567 474 552 515 521 c 0
 555 490 577 445 577 387 c 2
 577 -280 l 1
 509 -280 l 1
 487 -249 461 -223 432 -202 c 0
 405 -180 381 -167 367 -160 c 1
 358 -190 339 -218 310 -244 c 0
 280 -270 246 -286 204 -283 c 0
 171 -283 144 -273 123 -251 c 0
 102 -229 91 -202 91 -167 c 0
 93 -130 106 -103 130 -84 c 0
 155 -65 187 -55 225 -55 c 0
 255 -55 290 -62 326 -74 c 1
 328 -68 331 -61 335 -46 c 0
 338 -35 339 -17 341 0 c 1
 403 -13 l 1
 402 -30 400 -49 394 -65 c 0
 392 -80 389 -91 387 -100 c 1
 413 -113 438 -128 463 -146 c 0
 487 -164 502 -177 509 -188 c 1
 509 387 l 2
 509 412 503 432 489 451 c 0
 476 468 457 483 434 493 c 0
 412 503 386 508 357 508 c 0
 299 508 248 490 204 454 c 1
 215 452 231 445 254 436 c 0
 277 426 299 412 318 393 c 1
 303 390 286 380 264 364 c 0
 241 348 229 319 229 280 c 2xfe80
 229 88 l 2xfd80
 229 61 222 38 203 20 c 0
 186 0 160 -10 128 -10 c 0
 97 -10 74 0 55 20 c 0
 38 39 28 64 28 91 c 0
 28 119 36 142 54 162 c 0
 72 181 97 191 128 191 c 0
 141 191 152 190 161 186 c 1xfe80
249 -212 m 0
 265 -203 278 -190 289 -173 c 0
 299 -154 304 -141 307 -130 c 1
 277 -122 249 -116 225 -116 c 0
 178 -116 155 -133 155 -167 c 0
 155 -175 157 -184 161 -191 c 0
 168 -210 187 -219 216 -219 c 0
 228 -219 238 -216 249 -212 c 0
128 41 m 0
 144 41 157 46 167 55 c 0
 175 65 180 77 180 91 c 0xfd80
 180 104 175 116 167 126 c 0
 157 136 144 141 128 141 c 0
 113 141 100 136 91 126 c 0
 81 115 77 103 77 91 c 0
 77 78 81 67 91 58 c 0
 100 46 113 41 128 41 c 0
EndSplineSet
EndChar
StartChar: uni0E0F
Encoding: 146 3599 145
OldEncoding: 3599
Width: 661
Flags: W
HStem: -283 54<178 193> -142 54<177 196> -10 51<128 130> 141 50<128 130> 508 59<340 365>
VStem: 28 49<91 102> 86 58<-189 -173> 161 68<186 294> 180 49<84 102> 509 68<-199 395>
AnchorPoint: "BelowBase" 578.55 -324.8 basechar 0
Fore
161 186 m 1xff40
 161 277 l 2
 161 299 164 318 171 335 c 0
 175 349 184 362 193 370 c 0
 203 378 215 386 226 390 c 1
 218 396 203 405 181 416 c 0
 161 428 133 436 102 438 c 1
 116 458 146 487 190 519 c 0
 235 551 289 567 355 567 c 4
 419 567 474 552 515 521 c 0
 555 490 577 445 577 387 c 2
 577 -280 l 1
 509 -280 l 1
 434 -188 l 1
 352 -283 l 1
 344 -268 335 -254 323 -239 c 0
 312 -225 302 -213 293 -204 c 1
 287 -218 274 -235 255 -254 c 0
 236 -274 210 -283 178 -283 c 0
 151 -283 128 -274 112 -254 c 0
 93 -236 86 -209 86 -174 c 1
 88 -146 99 -125 116 -110 c 0
 135 -96 157 -88 186 -88 c 0
 216 -88 244 -99 273 -116 c 1
 276 -106 280 -90 287 -67 c 0
 293 -46 299 -23 300 0 c 1
 358 -13 l 1
 357 -30 351 -55 342 -87 c 0
 335 -117 326 -141 319 -154 c 1
 320 -154 335 -167 358 -194 c 1
 431 -119 l 1
 509 -199 l 1
 509 387 l 2
 509 412 503 432 489 451 c 0
 476 468 457 483 434 493 c 0
 412 503 386 508 357 508 c 0
 299 508 248 490 204 454 c 1
 215 452 231 445 254 436 c 0
 277 426 299 412 318 393 c 1
 303 390 286 380 264 364 c 0
 241 348 229 319 229 280 c 2xff40
 229 88 l 2xfec0
 229 61 222 38 203 20 c 0
 186 0 160 -10 128 -10 c 0
 97 -10 74 0 55 20 c 0
 38 39 28 64 28 91 c 0
 28 119 36 142 54 162 c 0
 72 181 97 191 128 191 c 0
 142 191 152 190 161 186 c 1xff40
209 -222 m 0
 219 -213 228 -202 236 -190 c 0
 244 -178 249 -168 251 -164 c 1
 231 -149 212 -142 190 -142 c 0
 165 -142 149 -152 144 -173 c 1
 144 -209 157 -228 186 -229 c 0
 193 -229 202 -226 209 -222 c 0
128 41 m 0
 144 41 157 46 167 55 c 0
 175 65 180 77 180 91 c 0xfec0
 180 104 175 116 167 126 c 0
 157 136 144 141 128 141 c 0
 113 141 100 136 91 126 c 0
 81 115 77 103 77 91 c 0
 77 78 81 67 91 58 c 0
 100 46 113 41 128 41 c 0
EndSplineSet
EndChar
StartChar: uni0E10
Encoding: 147 3600 146
OldEncoding: 3600
Width: 527
Flags: W
HStem: -307 43<98 106> -210 39<365 369> -191 43<98 111> -91 40<365 369> 0 21G<362 444> 141 49<204 216> 291 51<204 216> 463 59<439 456> 512 55<246 272>
VStem: 23 44<-237 -221> 104 50<231.693 244> 286 40<-135 -125> 376 68<136 293> 383 61<-222 -133> 405 39<-135 -125>
Fore
204 342 m 0x9ef2
 226 342 246 336 265 325 c 0
 283 313 299 297 307 277 c 2
 376 136 l 1
 376 270 l 2
 376 312 368 339 354 354 c 0
 341 368 316 381 280 393 c 0
 241 405 202 413 161 419 c 0
 119 428 90 432 68 434 c 1
 90 471 117 503 149 529 c 0
 180 554 216 567 255 567 c 0x9ef8
 277 567 297 566 312 563 c 0
 328 557 345 552 367 544 c 0
 389 536 405 531 416 528 c 0
 428 525 441 522 452 522 c 0
 471 522 492 528 509 536 c 1
 522 478 l 1
 494 467 470 463 450 463 c 0x9f78
 434 463 420 464 409 467 c 0
 399 470 381 477 357 484 c 0
 335 493 316 500 302 505 c 0
 287 509 273 512 257 512 c 0
 241 512 225 506 206 499 c 0
 188 489 180 480 178 476 c 1
 186 474 197 471 212 467 c 0
 226 463 246 457 270 451 c 0
 294 445 313 441 325 438 c 0
 377 425 412 406 425 383 c 0
 439 358 444 323 444 274 c 2x9ef8
 444 0 l 1
 362 0 l 1
 357 35 345 68 329 106 c 0
 313 144 300 173 290 190 c 1
 286 175 274 164 257 154 c 0
 242 146 225 141 204 141 c 0
 174 141 149 151 130 171 c 0
 113 191 104 215 104 241 c 0
 104 268 113 293 130 313 c 0
 149 332 174 342 204 342 c 0x9ef2
377 -242 m 2
 378 -241 380 -235 381 -226 c 0
 383 -218 383 -213 383 -209 c 1
 381 -209 380 -209 377 -209 c 0
 376 -209 370 -209 365 -210 c 0
 341 -210 320 -202 306 -187 c 0
 291 -173 286 -154 286 -133 c 0
 286 -112 293 -93 307 -75 c 0
 323 -59 341 -51 365 -51 c 0
 390 -51 407 -58 423 -72 c 0
 438 -87 444 -106 444 -133 c 2xde74
 444 -229 l 2
 444 -241 442 -251 439 -257 c 0
 434 -264 429 -268 420 -274 c 0
 413 -278 405 -286 396 -290 c 2
 349 -318 l 1
 287 -277 l 1
 222 -315 l 1
 188 -255 l 1
 173 -290 142 -310 100 -307 c 0
 49 -306 22 -277 23 -223 c 0
 23 -202 33 -184 49 -168 c 0
 65 -154 86 -148 109 -148 c 0xbe72
 129 -148 149 -154 171 -167 c 1
 173 -161 175 -149 180 -130 c 0
 184 -113 186 -88 186 -58 c 1
 236 -58 l 1
 236 -113 228 -162 210 -206 c 1
 236 -246 l 1
 236 -246 242 -242 255 -236 c 0
 267 -228 278 -223 287 -218 c 1
 352 -260 l 1
 377 -242 l 2
365 -171 m 0
 377 -171 387 -167 394 -160 c 0
 402 -151 405 -142 405 -130 c 0xde72
 405 -119 402 -112 394 -103 c 0
 387 -96 377 -91 365 -91 c 0
 352 -91 342 -96 338 -103 c 1
 329 -112 326 -119 326 -130 c 0
 326 -141 329 -151 338 -160 c 1
 342 -167 352 -171 365 -171 c 0
204 190 m 0
 222 190 235 194 242 204 c 0
 251 216 255 228 255 241 c 0
 255 255 251 267 242 277 c 0
 235 287 222 291 204 291 c 0
 190 291 177 287 168 277 c 0
 160 267 154 255 154 241 c 0
 154 228 160 216 168 206 c 0
 177 194 190 190 204 190 c 0
106 -191 m 0xbe70
 93 -191 84 -194 77 -203 c 0
 71 -212 67 -219 67 -229 c 0
 67 -238 71 -246 77 -252 c 0
 84 -261 93 -264 106 -264 c 0
 116 -264 125 -261 133 -254 c 0
 141 -248 146 -241 151 -232 c 0
 154 -225 155 -219 157 -218 c 1
 154 -213 148 -209 139 -202 c 0
 130 -194 119 -191 106 -191 c 0xbe70
EndSplineSet
Substitution: 0 65534 'ndsc' uni0E10.descless
EndChar
StartChar: uni0E11
Encoding: 148 3601 147
OldEncoding: 3601
Width: 771
Flags: W
HStem: 0 21G<280 349 618 686> 249 51<126 139> 402 48<121 128> 494 63<569 587>
VStem: 10 65<351 387> 177 52<347 361> 280 69<0 28.1593 0 369> 341 59<461 471> 618 68<0 449>
Fore
280 0 m 1xfe80
 280 358 l 2xfe80
 280 378 281 393 287 405 c 0
 291 415 299 423 304 429 c 0
 310 434 319 441 331 450 c 0
 338 454 341 458 341 467 c 0
 341 476 336 487 325 499 c 0
 313 508 303 515 293 516 c 1
 226 470 l 1
 148 516 l 1
 125 512 106 499 96 480 c 0
 81 463 75 445 75 431 c 1
 77 434 84 438 91 442 c 0
 100 447 112 450 128 450 c 0
 155 447 180 439 200 425 c 0
 219 407 229 383 229 349 c 0
 229 318 218 293 197 276 c 0
 175 257 151 249 126 249 c 0
 93 249 64 262 42 287 c 0
 20 313 10 345 10 387 c 0
 10 412 13 436 22 457 c 1
 29 490 49 516 78 538 c 0
 106 557 133 567 154 567 c 1
 226 522 l 1
 290 567 l 1
 318 558 342 545 365 528 c 0
 389 509 400 487 400 463 c 0xfd80
 400 451 399 441 393 434 c 0
 389 428 383 420 376 413 c 0
 367 406 361 399 355 390 c 0
 351 381 349 370 349 355 c 2
 349 267 l 1
 357 289 370 320 390 365 c 0
 409 409 439 452 471 493 c 0
 506 536 541 557 581 557 c 0
 616 557 642 544 660 519 c 0
 679 494 686 465 686 431 c 2
 686 0 l 1
 618 0 l 1
 618 431 l 2
 618 474 605 494 577 494 c 0
 558 494 536 478 512 444 c 0
 487 409 461 367 436 315 c 0
 409 261 389 206 374 151 c 0
 357 96 349 45 349 0 c 1
 280 0 l 1xfe80
126 402 m 0
 112 402 99 396 90 387 c 0
 80 377 75 365 75 351 c 0
 75 338 80 326 90 316 c 0
 99 304 112 300 126 300 c 0
 142 300 155 304 164 315 c 0
 173 326 177 338 177 351 c 0
 177 365 173 377 164 387 c 0
 155 396 142 402 126 402 c 0
EndSplineSet
EndChar
StartChar: uni0E12
Encoding: 149 3602 148
OldEncoding: 3602
Width: 822
Flags: W
HStem: -10 62<436 451> 374 51<280 282>
VStem: 39 61<341 365> 178 51<318 327> 331 49<318 327> 362 47<85 104> 447 69<64 149 203 397> 670 67<100 557>
Fore
447 204 m 1xf7
 447 368 l 2
 447 406 444 434 436 454 c 0
 428 474 409 492 383 509 c 1
 293 451 l 1
 293 452 281 458 261 474 c 0
 239 489 219 500 204 509 c 1
 135 474 100 423 100 355 c 0
 100 312 116 260 151 202 c 0
 173 164 184 138 184 126 c 1
 194 151 209 173 222 190 c 0
 235 209 244 219 252 226 c 1
 229 232 212 246 199 264 c 0
 186 281 178 303 178 325 c 0
 178 352 187 376 204 394 c 0
 223 415 249 425 280 425 c 0
 312 425 336 415 354 393 c 0
 373 373 380 349 380 320 c 0xfb
 380 304 377 291 373 280 c 0
 367 268 358 257 351 249 c 0
 342 241 332 231 323 219 c 0
 302 194 283 173 268 151 c 0
 254 129 239 106 228 81 c 0
 216 58 206 29 202 0 c 1
 133 0 l 1
 141 13 144 28 144 45 c 0
 144 61 138 86 126 119 c 0
 123 130 113 152 97 186 c 0
 78 218 64 248 54 276 c 0
 45 303 39 332 39 365 c 0
 41 412 58 451 87 484 c 0
 116 519 154 547 199 567 c 1
 293 503 l 1
 387 567 l 1
 425 550 452 531 470 513 c 0
 489 494 500 476 506 454 c 0
 513 432 516 403 516 368 c 2
 516 203 l 1
 541 199 568 187 600 168 c 0
 631 149 654 126 670 100 c 1
 670 557 l 1
 737 557 l 1
 737 0 l 1
 670 0 l 1
 632 78 581 128 516 149 c 1
 516 62 l 2
 516 14 494 -10 451 -10 c 0
 423 -10 402 1 387 23 c 0
 370 45 362 71 362 102 c 0
 362 129 370 154 386 174 c 0
 400 193 420 203 447 204 c 1xf7
280 374 m 0
 265 374 252 368 242 358 c 0
 235 348 229 336 229 323 c 0
 229 310 235 299 242 289 c 0
 252 277 265 273 280 273 c 0
 297 273 310 277 318 287 c 0
 326 297 331 307 331 323 c 0
 331 338 326 349 318 358 c 0
 310 368 297 374 280 374 c 0
447 65 m 1
 447 157 l 1
 423 152 409 133 409 96 c 0xf7
 409 84 413 74 418 65 c 0
 425 58 431 52 436 52 c 0
 441 52 445 58 447 65 c 1
EndSplineSet
EndChar
StartChar: uni0E13
Encoding: 150 3603 149
OldEncoding: 3603
Width: 801
Flags: W
HStem: -12 57<683 696> -10 51<181 196> 141 50<181 196> 516 51<253 293>
VStem: 91 51<91 101> 91 70<91 309> 244 47<91 101> 403 68<0 421> 615 68<51 180 236 557> 740 50<113 128>
Fore
91 91 m 2x7bc0
 91 290 l 2
 91 354 115 393 161 409 c 1
 152 416 136 426 115 438 c 0
 93 450 65 457 35 465 c 1
 48 483 74 505 112 529 c 0
 149 554 202 567 267 567 c 0
 403 567 471 515 471 409 c 2
 471 119 l 1
 509 178 557 218 615 236 c 1
 615 557 l 1
 683 557 l 1
 683 241 l 1
 716 236 742 225 761 203 c 0
 780 181 790 151 790 113 c 0
 790 72 779 42 757 22 c 0
 735 0 710 -12 683 -12 c 0
 664 -12 647 -7 634 4 c 0
 621 16 615 30 615 51 c 2
 615 180 l 1
 576 165 542 138 518 99 c 0
 492 59 477 26 471 0 c 1
 403 0 l 1
 403 409 l 2
 403 444 392 471 368 490 c 0
 345 508 315 516 277 516 c 0
 229 516 180 503 133 476 c 1
 144 471 161 464 186 452 c 0
 210 441 231 426 252 406 c 1
 244 406 235 405 222 400 c 0
 209 394 194 386 180 368 c 0
 167 351 161 326 161 293 c 2
 161 186 l 1xb7c0
 165 190 177 191 194 191 c 0
 226 191 249 181 267 162 c 0
 283 142 291 119 291 91 c 0
 291 64 283 41 267 22 c 0
 249 0 226 -10 194 -10 c 0
 165 -10 141 0 122 17 c 0
 102 36 91 61 91 91 c 2x7bc0
683 62 m 2
 683 51 689 45 696 45 c 0
 706 45 716 51 724 64 c 0
 734 75 740 91 740 113 c 0
 740 157 721 184 683 188 c 1
 683 62 l 2
193 41 m 0x7bc0
 210 41 223 46 231 55 c 0
 239 65 244 77 244 91 c 0
 244 104 239 116 231 126 c 0
 222 136 209 141 193 141 c 0
 178 141 165 136 157 126 c 0
 148 116 142 104 142 91 c 0
 142 77 148 65 155 55 c 0
 165 46 178 41 193 41 c 0x7bc0
EndSplineSet
EndChar
StartChar: uni0E14
Encoding: 151 3604 150
OldEncoding: 3604
Width: 600
Flags: W
HStem: 0 21G<133 202 447 516> 374 51<280 282> 519 51<293 320>
VStem: 41 61<362 377> 178 51<318 327> 331 49<318 327> 447 69<0 395>
Fore
102 362 m 0
 100 313 117 261 151 204 c 0
 171 171 180 142 180 119 c 1
 193 146 206 168 222 187 c 0
 235 204 244 218 252 226 c 1
 229 232 212 246 199 264 c 0
 186 281 178 303 178 325 c 0
 178 352 187 376 204 394 c 0
 223 415 249 425 280 425 c 0
 312 425 336 415 354 393 c 0
 373 373 380 349 380 320 c 0
 380 304 377 291 373 280 c 0
 367 268 358 257 351 249 c 0
 342 241 332 231 323 219 c 0
 302 194 283 173 268 151 c 0
 254 129 239 106 228 81 c 0
 216 58 206 29 202 0 c 1
 133 0 l 1
 141 13 144 28 144 45 c 0
 144 61 138 86 126 119 c 0
 122 133 112 155 96 187 c 0
 77 219 64 249 55 277 c 0
 46 304 39 335 41 365 c 0
 42 420 67 470 110 512 c 0
 151 551 213 570 293 570 c 4
 442 570 516 503 516 368 c 2
 516 0 l 1
 447 0 l 1
 447 373 l 2
 447 416 438 451 418 478 c 0
 399 506 357 519 293 519 c 0
 239 519 193 505 157 476 c 0
 122 445 102 407 102 362 c 0
280 374 m 0
 265 374 252 368 242 358 c 0
 235 348 229 336 229 323 c 0
 229 310 235 299 242 289 c 0
 252 277 265 273 280 273 c 0
 297 273 310 277 318 287 c 0
 326 297 331 307 331 323 c 0
 331 338 326 349 318 358 c 0
 310 368 297 374 280 374 c 0
EndSplineSet
EndChar
StartChar: uni0E15
Encoding: 152 3605 151
OldEncoding: 3605
Width: 600
Flags: W
HStem: 0 21G<133 202 447 516> 374 51<280 282>
VStem: 39 61<351 365> 178 51<318 327> 331 49<318 327> 447 69<0 401>
Fore
184 126 m 1
 194 151 209 173 222 190 c 0
 235 209 244 219 252 226 c 1
 229 232 212 246 199 264 c 0
 186 281 178 303 178 325 c 0
 178 352 187 376 204 394 c 0
 223 415 249 425 280 425 c 0
 312 425 336 415 354 393 c 0
 373 373 380 349 380 320 c 0
 380 304 377 291 373 280 c 0
 367 268 358 257 351 249 c 0
 342 241 332 231 323 219 c 0
 302 194 283 173 268 151 c 0
 254 129 239 106 228 81 c 0
 216 58 206 29 202 0 c 1
 133 0 l 1
 141 13 144 28 144 45 c 0
 144 61 138 86 126 119 c 0
 123 130 113 152 97 186 c 0
 78 218 64 248 54 276 c 0
 45 303 39 332 39 365 c 0
 41 412 58 451 87 484 c 0
 116 519 154 547 199 567 c 1
 293 503 l 1
 387 567 l 1
 425 550 452 531 470 513 c 0
 489 494 500 476 506 454 c 0
 513 432 516 403 516 368 c 2
 516 0 l 1
 447 0 l 1
 447 368 l 2
 447 406 444 434 436 454 c 0
 428 474 409 492 383 509 c 1
 293 451 l 1
 293 452 281 458 261 474 c 0
 239 489 219 500 204 509 c 1
 135 474 100 423 100 355 c 0
 100 312 116 260 151 202 c 0
 173 164 184 138 184 126 c 1
280 374 m 0
 265 374 252 368 242 358 c 0
 235 348 229 336 229 323 c 0
 229 310 235 299 242 289 c 0
 252 277 265 273 280 273 c 0
 297 273 310 277 318 287 c 0
 326 297 331 307 331 323 c 0
 331 338 326 349 318 358 c 0
 310 368 297 374 280 374 c 0
EndSplineSet
EndChar
StartChar: uni0E16
Encoding: 153 3606 152
OldEncoding: 3606
Width: 594
Flags: W
HStem: -10 51<184 196> 141 50<184 196> 508 59<265 308>
VStem: 91 51<91 93> 91 70<91 295> 244 47<91 93> 441 68<0 395>
Fore
91 91 m 2xf6
 91 277 l 2
 91 310 99 335 110 352 c 0
 123 368 139 381 157 390 c 1
 149 396 136 405 115 416 c 0
 93 428 65 436 35 438 c 1
 49 458 78 487 122 519 c 0
 164 551 219 567 287 567 c 0
 328 567 365 560 400 547 c 0
 434 534 461 515 480 487 c 0
 500 458 509 425 509 387 c 2
 509 0 l 1
 441 0 l 1
 441 387 l 2
 441 412 434 432 419 451 c 0
 406 468 389 483 365 493 c 0
 342 503 316 508 289 508 c 0
 229 508 178 490 136 454 c 1
 146 452 162 445 186 436 c 0
 209 426 229 412 249 393 c 1
 235 390 216 380 194 364 c 0
 173 348 161 319 161 280 c 2
 161 186 l 1xee
 165 190 177 191 194 191 c 0
 226 191 249 181 267 162 c 0
 283 142 291 119 291 91 c 0
 291 64 283 41 267 22 c 0
 249 0 226 -10 194 -10 c 0
 165 -10 141 0 122 17 c 0
 102 36 91 61 91 91 c 2xf6
193 41 m 0
 210 41 223 46 231 55 c 0
 239 65 244 77 244 91 c 0
 244 104 239 116 231 126 c 0
 222 136 209 141 193 141 c 0
 178 141 165 136 157 126 c 0
 148 116 142 104 142 91 c 0xf6
 142 77 148 65 155 55 c 0
 165 46 178 41 193 41 c 0
EndSplineSet
EndChar
StartChar: uni0E17
Encoding: 154 3607 153
OldEncoding: 3607
Width: 659
Flags: W
HStem: 0 21G<167 236 505 574> 362 50<136 148> 494 63<463 470> 513 51<136 148>
VStem: 35 51<452.1 466> 167 69<0 28.1593 0 463> 187 49<453.622 466> 505 69<0 449>
Fore
167 0 m 1xed
 167 367 l 1
 160 364 149 362 136 362 c 0
 104 362 80 373 62 393 c 0
 45 413 35 436 35 464 c 0
 35 492 45 515 62 534 c 0
 80 554 104 564 136 564 c 0xdd
 157 564 174 558 188 551 c 0
 203 542 216 529 225 515 c 0
 232 500 236 481 236 463 c 2
 236 267 l 1
 246 289 260 316 274 349 c 0
 289 383 304 416 326 450 c 0
 348 480 368 506 393 528 c 0
 416 547 441 557 468 557 c 0
 493 557 513 551 528 539 c 0
 542 526 554 509 563 492 c 0
 570 474 574 452 574 431 c 2
 574 0 l 1
 505 0 l 1
 505 431 l 2
 505 474 492 494 465 494 c 0
 447 494 426 478 400 444 c 0
 374 409 348 367 323 315 c 0
 297 261 276 206 261 151 c 0
 244 96 236 45 236 0 c 1
 167 0 l 1xed
136 513 m 0
 119 513 106 508 99 499 c 0
 90 489 86 477 86 463 c 0
 86 450 90 438 99 428 c 0
 106 416 119 412 136 412 c 0
 152 412 165 416 174 428 c 0
 181 438 187 450 187 463 c 0xdb
 187 477 181 489 174 499 c 0
 165 508 152 513 136 513 c 0
EndSplineSet
EndChar
StartChar: uni0E18
Encoding: 155 3608 154
OldEncoding: 3608
Width: 532
Flags: W
HStem: 0 59<75 337> 335 20G<144 212> 465 56<414 440> 516 51<222 244>
VStem: 144 68<59 355> 368 70<106 289>
Fore
133 468 m 1xdc
 161 467 202 461 257 450 c 0
 312 438 358 415 396 383 c 0
 415 370 426 355 431 339 c 0
 436 323 438 300 438 273 c 2
 438 106 l 2
 438 62 429 33 415 20 c 0
 399 7 365 0 318 0 c 2
 75 0 l 1
 75 59 l 1
 144 59 l 1
 144 355 l 1
 212 355 l 1
 212 59 l 1
 318 59 l 2
 339 59 354 62 361 68 c 0
 365 74 368 87 368 106 c 2
 368 274 l 2
 368 293 367 310 364 320 c 0
 358 335 349 345 335 357 c 0
 307 378 273 394 228 406 c 0
 181 418 135 423 87 423 c 0
 74 423 55 420 35 419 c 1
 42 444 62 476 91 513 c 0
 122 550 164 567 222 567 c 4xdc
 257 567 297 558 339 544 c 0
 381 529 409 521 425 521 c 0
 444 521 464 526 481 536 c 1
 506 489 l 1
 480 474 454 465 429 465 c 0xec
 415 465 396 468 376 476 c 0
 354 481 336 490 319 494 c 0
 303 500 287 505 273 509 c 0
 255 515 239 516 222 516 c 0
 193 516 173 509 160 499 c 0
 144 487 136 477 133 468 c 1xdc
EndSplineSet
EndChar
StartChar: uni0E19
Encoding: 156 3609 155
OldEncoding: 3609
Width: 645
Flags: W
HStem: -12 57<526 541> 362 51<136 148> 513 51<136 148>
VStem: 35 51<464 469> 167 69<0 463> 187 49<461 469> 457 69<51 188 241 557> 581 51<113 117>
Fore
167 0 m 1xfb
 167 367 l 1
 160 364 149 362 136 362 c 0
 104 362 80 373 62 393 c 0
 45 413 35 436 35 464 c 0
 35 492 45 515 62 534 c 0
 80 554 104 564 136 564 c 4
 157 564 174 558 188 551 c 0
 203 542 216 529 225 515 c 0
 232 500 236 481 236 463 c 2
 236 106 l 1
 290 180 364 226 457 242 c 1
 457 557 l 1
 526 557 l 1
 526 241 l 1
 560 236 587 225 605 203 c 0
 622 181 632 152 632 113 c 0
 632 72 622 42 602 22 c 0
 580 0 554 -12 526 -12 c 0
 506 -12 490 -7 477 4 c 0
 464 16 457 30 457 51 c 2
 457 188 l 1
 418 181 381 165 351 141 c 0
 319 116 294 90 277 65 c 0
 260 41 244 17 236 0 c 1
 167 0 l 1xfb
136 513 m 0
 122 513 109 508 100 499 c 0
 90 489 86 477 86 464 c 0
 86 450 90 438 99 428 c 0
 106 418 119 413 136 413 c 0
 152 413 165 418 174 428 c 0
 181 439 187 451 187 464 c 0xf7
 187 477 181 489 173 499 c 0
 164 508 151 513 136 513 c 0
526 62 m 2
 526 51 531 45 541 45 c 0
 550 45 558 51 568 64 c 0
 577 77 581 93 581 113 c 0
 581 157 564 184 526 188 c 1
 526 62 l 2
EndSplineSet
EndChar
StartChar: uni0E1A
Encoding: 157 3610 156
OldEncoding: 3610
Width: 640
Flags: W
HStem: 0 59<100 452> 362 50<136 148> 513 51<136 148>
VStem: 35 51<452.1 466> 167 69<59 463> 187 49<453.622 466> 489 68<106 557>
Fore
167 59 m 1xfa
 167 367 l 1
 160 364 149 362 136 362 c 0
 104 362 80 373 62 393 c 0
 45 413 35 436 35 464 c 0
 35 492 45 515 62 534 c 0
 80 554 104 564 136 564 c 0
 157 564 174 558 188 551 c 0
 203 542 216 529 225 515 c 0
 232 500 236 481 236 463 c 2
 236 59 l 1
 438 59 l 2
 458 59 474 62 478 68 c 1
 484 74 489 87 489 106 c 2
 489 557 l 1
 557 557 l 5
 557 106 l 2
 557 62 550 33 534 20 c 0
 519 7 487 0 438 0 c 2
 100 0 l 1
 100 59 l 1
 167 59 l 1xfa
136 513 m 0
 119 513 106 508 99 499 c 0
 90 489 86 477 86 463 c 0
 86 450 90 438 99 428 c 0
 106 416 119 412 136 412 c 0
 152 412 165 416 174 428 c 0
 181 438 187 450 187 463 c 0xf6
 187 477 181 489 174 499 c 0
 165 508 152 513 136 513 c 0
EndSplineSet
EndChar
StartChar: uni0E1B
Encoding: 158 3611 157
OldEncoding: 3611
Width: 640
Flags: W
HStem: 0 59<100 452> 362 51<136 148> 513 51<136 148>
VStem: 35 51<464 466> 167 69<59 463> 187 49<461 466> 489 68<106 758>
AnchorPoint: "AboveBase" 439.35 652.5 basechar 0
Fore
167 59 m 1xfa
 167 367 l 1
 160 364 149 362 136 362 c 0
 104 362 80 373 62 393 c 0
 45 413 35 436 35 464 c 0
 35 492 45 515 62 534 c 0
 80 554 104 564 136 564 c 0
 157 564 174 558 188 551 c 0
 203 542 216 529 225 515 c 0
 232 500 236 481 236 463 c 2
 236 59 l 1
 438 59 l 2
 458 59 474 62 478 68 c 1
 484 74 489 87 489 106 c 2
 489 758 l 1
 557 758 l 1
 557 106 l 2
 557 62 550 33 534 20 c 0
 519 7 487 0 438 0 c 2
 100 0 l 1
 100 59 l 1
 167 59 l 1xfa
136 513 m 0
 122 513 109 508 100 499 c 0
 90 489 86 477 86 464 c 0
 86 450 90 438 99 428 c 0
 106 418 119 413 136 413 c 0
 152 413 165 418 174 428 c 0
 181 439 187 451 187 464 c 0xf6
 187 477 181 489 173 499 c 0
 164 508 151 513 136 513 c 0
EndSplineSet
EndChar
StartChar: uni0E1C
Encoding: 159 3612 158
OldEncoding: 3612
Width: 613
Flags: W
HStem: 0 21G<86 154 461 529> 362 50<186 199> 513 51<186 190>
VStem: 86 49<0 466> 86 68<0 21.2267 0 368> 238 49<461 466> 461 68<0 22.3586 144 557>
Fore
154 368 m 1xee
 154 144 l 1
 307 312 l 1
 461 144 l 1
 461 557 l 1
 529 557 l 1
 529 0 l 1
 461 0 l 1
 461 45 450 77 428 102 c 2
 307 236 l 1
 188 102 l 2
 165 77 154 42 154 0 c 1xee
 86 0 l 1
 86 463 l 2xf6
 86 492 93 516 112 536 c 0
 129 554 154 564 186 564 c 0
 218 564 242 554 261 534 c 0
 278 515 287 492 287 464 c 0
 287 436 278 412 261 392 c 0
 242 373 216 362 186 362 c 0
 175 362 165 364 154 368 c 1xee
186 412 m 0
 202 412 215 416 225 428 c 0
 232 439 238 451 238 463 c 0
 238 477 232 489 225 499 c 0
 215 508 202 513 186 513 c 0
 171 513 157 508 148 499 c 0
 139 487 135 476 135 463 c 0xf6
 135 451 139 439 148 428 c 0
 157 416 171 412 186 412 c 0
EndSplineSet
EndChar
StartChar: uni0E1D
Encoding: 160 3613 159
OldEncoding: 3613
Width: 613
Flags: W
HStem: 0 21G<86 154 461 529> 362 51<186 190> 513 51<186 190>
VStem: 86 49<0 466> 86 68<0 21.2267 0 368> 238 49<464 466> 461 68<0 22.3586 144 758>
AnchorPoint: "AboveBase" 411.8 652.5 basechar 0
Fore
154 368 m 1xee
 154 144 l 1
 307 312 l 1
 461 144 l 1
 461 758 l 1
 529 758 l 1
 529 0 l 1
 461 0 l 1
 461 45 450 77 428 102 c 2
 307 236 l 1
 188 102 l 2
 165 77 154 42 154 0 c 1xee
 86 0 l 1
 86 463 l 2xf6
 86 492 93 516 112 536 c 0
 129 554 154 564 186 564 c 0
 218 564 242 554 261 534 c 0
 278 515 287 492 287 464 c 0
 287 436 278 412 261 392 c 0
 242 373 216 362 186 362 c 0
 175 362 165 364 154 368 c 1xee
186 413 m 0
 202 413 215 418 225 429 c 0
 232 439 238 451 238 464 c 0
 238 476 232 487 223 499 c 0
 213 508 200 513 186 513 c 0
 171 513 157 508 149 499 c 0
 139 487 135 476 135 464 c 0xf6
 135 451 139 439 148 429 c 0
 157 418 171 413 186 413 c 0
EndSplineSet
EndChar
StartChar: uni0E1E
Encoding: 161 3614 160
OldEncoding: 3614
Width: 710
Flags: W
HStem: 0 21G<167 236 567 635> 362 51<136 148> 513 51<136 148>
VStem: 35 51<464 466> 167 69<0 463> 187 49<461 466> 567 68<0 29.9805 178 557>
Fore
167 0 m 1xfa
 167 367 l 1
 160 364 149 362 136 362 c 0
 104 362 80 373 62 393 c 0
 45 413 35 436 35 464 c 0
 35 492 45 515 62 534 c 0
 80 554 104 564 136 564 c 0
 157 564 174 558 188 551 c 0
 203 542 216 529 225 515 c 0
 232 500 236 481 236 463 c 2
 236 180 l 1
 402 557 l 1
 567 178 l 1
 567 557 l 1
 635 557 l 1
 635 0 l 1
 567 0 l 1
 567 7 567 16 566 30 c 0
 564 46 558 58 554 68 c 2
 402 425 l 1
 249 68 l 2
 244 58 241 45 239 30 c 0
 238 16 238 7 236 0 c 1
 167 0 l 1xfa
136 513 m 0
 122 513 109 508 100 499 c 0
 90 489 86 477 86 464 c 0
 86 450 90 438 99 428 c 0
 106 418 119 413 136 413 c 0
 152 413 165 418 174 428 c 0
 181 439 187 451 187 464 c 0xf6
 187 477 181 489 173 499 c 0
 164 508 151 513 136 513 c 0
EndSplineSet
EndChar
StartChar: uni0E1F
Encoding: 162 3615 161
OldEncoding: 3615
Width: 710
Flags: W
HStem: 0 21G<167 236 567 635> 362 50<136 148> 513 51<136 148>
VStem: 35 51<452.1 466> 167 69<0 463> 187 49<453.622 466> 567 68<0 29.9805 178 758>
AnchorPoint: "AboveBase" 508.95 652.5 basechar 0
Fore
167 0 m 1xfa
 167 367 l 1
 160 364 149 362 136 362 c 0
 104 362 80 373 62 393 c 0
 45 413 35 436 35 464 c 0
 35 492 45 515 62 534 c 0
 80 554 104 564 136 564 c 0
 157 564 174 558 188 551 c 0
 203 542 216 529 225 515 c 0
 232 500 236 481 236 463 c 2
 236 180 l 1
 402 557 l 1
 567 178 l 1
 567 758 l 1
 635 758 l 1
 635 0 l 1
 567 0 l 1
 567 7 567 16 566 30 c 0
 564 46 558 58 554 68 c 2
 402 425 l 1
 249 68 l 2
 244 58 241 45 239 30 c 0
 238 16 238 7 236 0 c 1
 167 0 l 1xfa
136 513 m 0
 119 513 106 508 99 499 c 0
 90 489 86 477 86 463 c 0
 86 450 90 438 99 428 c 0
 106 416 119 412 136 412 c 0
 152 412 165 416 174 428 c 0
 181 438 187 450 187 463 c 0xf6
 187 477 181 489 174 499 c 0
 165 508 152 513 136 513 c 0
EndSplineSet
EndChar
StartChar: uni0E20
Encoding: 163 3616 162
OldEncoding: 3616
Width: 661
Flags: W
HStem: -10 51<128 130> 141 50<128 130> 508 59<347 365>
VStem: 28 49<91 93> 161 68<186 295> 180 49<85 93> 509 68<0 395>
Fore
161 186 m 1xfa
 161 277 l 2
 161 299 164 318 171 335 c 0
 175 349 184 362 193 370 c 0
 203 378 215 386 226 390 c 1
 218 396 203 405 181 416 c 0
 161 428 133 436 102 438 c 1
 116 458 146 487 190 519 c 0
 235 551 289 567 355 567 c 0
 419 567 474 552 515 521 c 0
 555 490 577 445 577 387 c 2
 577 0 l 1
 509 0 l 1
 509 387 l 2
 509 412 503 432 489 451 c 0
 476 468 457 483 434 493 c 0
 412 503 386 508 357 508 c 0
 299 508 248 490 204 454 c 1
 215 452 231 445 254 436 c 0
 277 426 299 412 318 393 c 1
 303 390 286 380 264 364 c 0
 241 348 229 319 229 280 c 2xfa
 229 88 l 2xf6
 229 61 222 38 203 20 c 0
 186 0 160 -10 128 -10 c 0
 97 -10 74 0 55 20 c 0
 38 39 28 64 28 91 c 0
 28 119 36 142 54 162 c 0
 72 181 97 191 128 191 c 0
 142 191 152 190 161 186 c 1xfa
128 41 m 0
 144 41 157 46 167 55 c 0
 175 65 180 77 180 91 c 0xf6
 180 104 175 116 167 126 c 0
 157 136 144 141 128 141 c 0
 113 141 100 136 91 126 c 0
 81 115 77 103 77 91 c 0
 77 78 81 67 91 58 c 0
 100 46 113 41 128 41 c 0
EndSplineSet
EndChar
StartChar: uni0E21
Encoding: 164 3617 163
OldEncoding: 3617
Width: 638
Flags: W
HStem: -10 58<147 162> 362 50<149 162> 513 51<149 159>
VStem: 49 50<453 471> 52 58<101 119> 180 69<69 188 241 463> 200 49<463 471> 484 70<0 12.2232 116 557>
Fore
180 242 m 1xed
 180 367 l 1
 173 364 162 362 149 362 c 0
 117 362 93 373 75 392 c 0
 58 412 49 436 49 464 c 0xf5
 49 492 58 515 75 534 c 0
 93 554 117 564 149 564 c 0
 168 564 187 558 202 551 c 0
 216 542 229 529 238 515 c 0
 246 500 249 481 249 463 c 2
 249 242 l 1
 286 239 319 229 351 216 c 0
 383 202 412 187 434 168 c 0
 457 149 474 130 484 116 c 1
 484 557 l 1
 554 557 l 1
 554 0 l 1
 484 0 l 1
 484 22 474 46 452 74 c 0
 431 102 402 128 365 149 c 0
 329 171 290 184 249 188 c 1
 249 86 l 2
 249 55 241 33 226 16 c 0
 210 -1 187 -10 157 -10 c 0
 125 -10 99 1 80 26 c 0
 62 49 52 77 52 110 c 0
 52 144 64 175 86 202 c 0
 106 226 139 241 180 242 c 1xed
126 62 m 0
 135 52 144 48 155 48 c 0
 173 48 180 58 180 75 c 2
 180 191 l 1
 157 191 139 184 128 168 c 0
 116 152 110 135 110 113 c 0xed
 110 91 115 74 126 62 c 0
149 513 m 0
 135 513 122 508 112 499 c 0
 103 487 99 476 99 463 c 0
 99 451 103 439 112 428 c 0
 122 416 135 412 149 412 c 0
 165 412 178 416 187 428 c 0
 194 438 200 450 200 463 c 0xf3
 200 477 194 489 187 499 c 0
 178 508 165 513 149 513 c 0
EndSplineSet
EndChar
StartChar: uni0E22
Encoding: 165 3618 164
OldEncoding: 3618
Width: 569
Flags: W
HStem: 0 59<141 382> 376 49<190.028 203> 519 48<189.896 205>
VStem: 72 69<0 145> 249 50<463 481> 416 68<106 557>
Fore
164 264 m 1
 129 276 104 293 87 319 c 0
 68 345 61 376 61 406 c 0
 61 447 74 484 102 518 c 0
 128 551 161 567 202 567 c 0
 232 567 255 557 274 539 c 0
 290 519 299 496 299 470 c 0
 299 444 290 420 274 403 c 0
 255 386 231 376 202 376 c 0
 180 376 164 378 152 387 c 0
 141 394 133 402 129 406 c 1
 129 368 142 339 168 320 c 0
 193 303 222 293 252 293 c 1
 252 232 l 1
 216 232 188 225 171 206 c 0
 151 188 141 165 141 136 c 2
 141 59 l 1
 365 59 l 2
 387 59 402 62 407 68 c 0
 413 74 416 87 416 106 c 2
 416 557 l 1
 484 557 l 1
 484 106 l 2
 484 62 477 33 463 20 c 0
 445 7 413 0 365 0 c 2
 72 0 l 1
 72 136 l 2
 72 164 77 186 86 203 c 0
 93 219 104 232 116 241 c 0
 128 249 138 255 146 260 c 0
 154 261 161 262 164 264 c 1
202 425 m 0
 232 426 249 441 249 471 c 0
 249 484 246 496 238 506 c 0
 229 515 216 519 202 519 c 0
 187 519 175 515 167 506 c 0
 160 496 154 484 154 471 c 0
 154 461 160 450 167 439 c 0
 175 429 187 425 202 425 c 0
EndSplineSet
EndChar
StartChar: uni0E23
Encoding: 166 3619 165
OldEncoding: 3619
Width: 511
Flags: W
HStem: -10 51<310 312> 141 50<301 312> 463 59<407 420> 513 54<222 238>
VStem: 209 51<85 93> 341 68<187 295> 361 48<85 93>
Fore
409 274 m 2xdc
 409 88 l 2xda
 409 58 399 35 380 16 c 0
 362 -1 338 -10 310 -10 c 0
 278 -10 254 0 236 22 c 0
 218 41 209 64 209 90 c 0
 209 117 218 141 236 162 c 0
 254 181 277 191 307 191 c 0
 315 191 326 190 341 187 c 1
 341 270 l 2
 341 299 338 320 332 338 c 0
 326 354 316 365 303 374 c 0
 290 380 270 387 246 393 c 0
 204 405 165 413 125 419 c 0
 86 426 55 431 35 434 c 1
 55 471 84 503 115 529 c 0
 146 554 181 567 222 567 c 0xdc
 242 567 262 566 277 563 c 0
 293 557 312 552 332 544 c 0
 354 536 370 531 381 528 c 0
 393 525 406 522 418 522 c 0
 438 522 457 528 476 536 c 1
 489 478 l 1
 461 467 436 463 415 463 c 0xec
 399 463 386 464 376 467 c 0
 364 470 348 477 323 487 c 0
 299 494 278 502 265 506 c 0
 251 512 236 513 222 513 c 0
 203 513 186 508 167 500 c 0
 149 490 138 481 136 476 c 1
 136 476 l 1
 136 476 187 463 290 438 c 0
 342 426 376 407 390 383 c 0
 403 358 409 323 409 274 c 2xdc
310 41 m 0
 326 41 339 46 348 55 c 0
 355 65 361 77 361 91 c 0
 361 104 355 116 348 126 c 0
 339 136 326 141 310 141 c 0
 294 141 281 136 274 126 c 0
 264 115 260 103 260 91 c 0
 260 78 264 67 274 58 c 0
 281 46 294 41 310 41 c 0
EndSplineSet
EndChar
StartChar: uni0E24
Encoding: 167 3620 166
OldEncoding: 3620
Width: 594
Flags: W
HStem: -10 51<184 196> 141 50<184 196> 508 59<265 308>
VStem: 91 51<81.0684 94> 91 70<91 287> 244 47<80.3445 94> 441 68<-290 399>
Fore
91 91 m 2xf6
 91 277 l 2
 91 310 99 335 110 352 c 0
 123 368 139 381 157 390 c 1
 149 396 136 405 115 416 c 0
 93 428 65 436 35 438 c 1
 49 458 78 487 122 519 c 0
 164 551 219 567 287 567 c 0
 328 567 365 560 400 547 c 0
 434 534 461 515 480 487 c 0
 500 458 509 425 509 387 c 2
 509 -290 l 1
 441 -290 l 1
 441 387 l 2
 441 412 434 432 419 451 c 0
 406 468 389 483 365 493 c 0
 342 503 316 508 289 508 c 0
 229 508 178 490 136 454 c 1
 146 452 162 445 186 436 c 0
 209 426 229 412 249 393 c 1
 235 390 216 380 194 364 c 0
 173 348 161 319 161 280 c 2
 161 186 l 1xee
 165 190 177 191 194 191 c 0
 226 191 249 181 267 162 c 0
 283 142 291 119 291 91 c 0
 291 64 283 41 267 22 c 0
 249 0 226 -10 194 -10 c 0
 165 -10 141 0 122 17 c 0
 102 36 91 61 91 91 c 2xf6
193 41 m 0
 210 41 223 46 231 55 c 0
 239 65 244 77 244 91 c 0
 244 104 239 116 231 126 c 0
 222 136 209 141 193 141 c 0
 178 141 165 136 157 126 c 0
 148 116 142 104 142 91 c 0xf6
 142 77 148 65 155 55 c 0
 165 46 178 41 193 41 c 0
EndSplineSet
EndChar
StartChar: uni0E25
Encoding: 168 3621 167
OldEncoding: 3621
Width: 572
Flags: W
HStem: -10 49<181.129 204> 141 50<180.364 204> 352 57<202 214> 513 54<255 289>
VStem: 78 63<207 247> 242 49<85 95> 419 70<0 15.7816 191 391>
Fore
212 352 m 1
 164 348 141 306 141 229 c 0
 141 215 142 199 144 178 c 1
 146 180 151 184 160 187 c 0
 167 190 177 191 191 191 c 0
 223 191 248 181 265 162 c 0
 283 142 291 119 291 91 c 0
 291 62 283 38 265 20 c 0
 248 0 223 -10 191 -10 c 0
 161 -10 136 0 117 22 c 0
 100 42 88 65 86 93 c 0
 80 130 77 178 78 232 c 0
 78 281 91 323 112 354 c 0
 133 387 161 405 202 409 c 1
 246 409 281 394 313 367 c 0
 344 338 368 303 387 265 c 0
 405 226 415 202 419 191 c 1
 419 383 l 2
 419 425 405 455 377 478 c 0
 349 502 312 513 267 513 c 0
 193 513 135 483 91 425 c 1
 48 458 l 1
 64 487 91 512 133 534 c 0
 173 555 218 567 270 567 c 0
 335 567 387 551 428 519 c 0
 468 489 489 442 489 383 c 2
 489 0 l 1
 419 0 l 1
 419 20 413 49 402 88 c 0
 390 126 374 167 354 209 c 0
 335 249 312 283 287 312 c 0
 262 339 236 352 212 352 c 1
191 141 m 0
 177 141 164 136 154 126 c 0
 146 116 141 104 141 90 c 0
 141 77 146 65 154 55 c 0
 164 45 177 39 191 39 c 0
 209 39 222 45 229 55 c 0
 238 65 242 77 242 90 c 0
 242 104 238 116 229 126 c 0
 222 136 209 141 191 141 c 0
EndSplineSet
EndChar
StartChar: uni0E26
Encoding: 169 3622 168
OldEncoding: 3622
Width: 661
Flags: W
HStem: -10 51<128 130> 141 50<128 130> 508 59<347 365>
VStem: 28 49<91 95> 161 68<186 287> 180 49<86 95> 509 68<-290 399>
Fore
161 186 m 1xfa
 161 277 l 2
 161 299 164 318 171 335 c 0
 175 349 184 362 193 370 c 0
 203 378 215 386 226 390 c 1
 218 396 203 405 181 416 c 0
 161 428 133 436 102 438 c 1
 116 458 146 487 190 519 c 0
 235 551 289 567 355 567 c 0
 419 567 474 552 515 521 c 0
 555 490 577 445 577 387 c 2
 577 -290 l 1
 509 -290 l 1
 509 387 l 2
 509 412 503 432 489 451 c 0
 476 468 457 483 434 493 c 0
 412 503 386 508 357 508 c 0
 299 508 248 490 204 454 c 1
 215 452 231 445 254 436 c 0
 277 426 299 412 318 393 c 1
 303 390 286 380 264 364 c 0
 241 348 229 319 229 280 c 2xfa
 229 88 l 2xf6
 229 61 222 38 203 20 c 0
 186 0 160 -10 128 -10 c 0
 97 -10 74 0 55 20 c 0
 38 39 28 64 28 91 c 0
 28 119 36 142 54 162 c 0
 72 181 97 191 128 191 c 0
 142 191 152 190 161 186 c 1xfa
128 41 m 0
 144 41 157 46 167 55 c 0
 175 65 180 77 180 91 c 0xf6
 180 104 175 116 167 126 c 0
 157 136 144 141 128 141 c 0
 113 141 100 136 91 126 c 0
 81 115 77 103 77 91 c 0
 77 78 81 67 91 58 c 0
 100 46 113 41 128 41 c 0
EndSplineSet
EndChar
StartChar: uni0E27
Encoding: 170 3623 169
OldEncoding: 3623
Width: 543
Flags: W
HStem: -10 51<347 365> 141 50<357 365> 513 54<242 259>
VStem: 257 49<91 93> 390 67<187 391> 407 50<91 93>
Fore
457 383 m 2xf8
 457 91 l 2xf4
 457 64 450 41 434 22 c 0
 419 0 393 -10 358 -10 c 0
 328 -10 303 0 286 20 c 0
 267 39 257 64 257 91 c 0
 257 119 265 142 283 162 c 0
 300 181 325 191 357 191 c 0
 367 191 378 190 390 187 c 1
 390 383 l 2
 390 425 377 458 351 480 c 0
 323 503 287 513 242 513 c 0
 204 513 171 503 139 484 c 0
 110 467 87 444 71 419 c 1
 28 454 l 1
 39 474 55 492 77 509 c 0
 97 526 122 539 151 551 c 0
 180 563 212 567 242 567 c 0
 306 567 358 551 399 518 c 0
 438 487 457 441 457 383 c 2xf8
357 141 m 0
 342 141 329 136 320 126 c 0
 312 115 306 103 306 91 c 0
 306 78 312 67 319 58 c 0
 329 46 342 41 357 41 c 0
 374 41 387 46 394 55 c 0
 403 65 407 77 407 91 c 0
 407 104 403 116 394 126 c 0
 387 136 374 141 357 141 c 0
EndSplineSet
EndChar
StartChar: uni0E28
Encoding: 171 3624 170
OldEncoding: 3624
Width: 600
Flags: W
HStem: 0 21G<141 209 447 516> 232 49<270 282> 383 51<270 282> 516 54<280 298>
VStem: 41 68<363 389> 141 68<0 252> 320 50<326 337> 447 69<0 389>
Fore
465 506 m 1
 470 513 477 525 484 541 c 0
 493 555 500 571 506 592 c 1
 567 560 l 1
 560 538 551 516 536 499 c 0
 521 478 508 464 500 455 c 1
 512 432 516 406 516 378 c 2
 516 0 l 1
 447 0 l 1
 447 373 l 2
 447 387 445 399 444 407 c 1
 436 403 423 394 406 386 c 0
 390 376 377 368 365 365 c 1
 367 361 367 355 368 351 c 0
 370 344 370 336 370 328 c 0
 370 300 361 278 341 261 c 0
 323 242 299 232 270 232 c 0
 242 232 222 239 209 252 c 1
 209 0 l 1
 141 0 l 1
 141 100 l 2
 141 125 138 146 129 165 c 0
 122 184 109 206 90 235 c 0
 72 262 61 286 52 304 c 0
 45 323 41 345 41 373 c 0
 41 415 52 451 74 480 c 0
 97 512 126 532 164 547 c 0
 200 563 239 570 280 570 c 0
 357 570 419 550 465 506 c 1
419 454 m 1
 412 465 396 478 374 493 c 0
 351 508 319 516 280 516 c 0
 255 516 229 512 204 503 c 0
 178 493 154 477 136 455 c 0
 116 432 109 403 109 368 c 0
 109 349 115 326 126 302 c 0
 138 277 144 257 148 242 c 1
 148 294 l 2
 148 336 157 368 178 394 c 0
 200 420 231 434 270 434 c 0
 286 434 299 432 307 429 c 0
 318 425 326 419 332 413 c 0
 339 407 342 405 342 405 c 1
 354 407 367 415 381 425 c 0
 396 434 409 444 419 454 c 1
270 383 m 0
 254 383 241 378 232 368 c 0
 225 358 219 348 219 332 c 0
 219 319 225 307 232 299 c 0
 241 287 254 281 270 281 c 0
 287 281 300 287 307 299 c 0
 316 307 320 319 320 332 c 0
 320 348 316 358 307 368 c 0
 300 378 287 383 270 383 c 0
EndSplineSet
EndChar
StartChar: uni0E29
Encoding: 172 3625 171
OldEncoding: 3625
Width: 658
Flags: W
HStem: 0 59<100 457> 202 50<431 478> 202 198<365 444> 357 43<365 372> 362 50<136 148> 513 51<136 148>
VStem: 35 51<452.1 466> 167 69<59 463> 187 49<453.622 466> 277 43<311 321> 409 48<313 321> 489 68<106 204 254 557>
Fore
557 226 m 1xc770
 557 106 l 2
 557 62 550 33 534 20 c 0
 519 7 487 0 438 0 c 2
 100 0 l 1
 100 59 l 1
 167 59 l 1
 167 367 l 1
 160 364 149 362 136 362 c 0
 104 362 80 373 62 393 c 0
 45 413 35 436 35 464 c 0
 35 492 45 515 62 534 c 0
 80 554 104 564 136 564 c 0
 157 564 174 558 188 551 c 0
 203 542 216 529 225 515 c 0
 232 500 236 481 236 463 c 2
 236 59 l 1
 438 59 l 2
 458 59 474 62 478 68 c 1
 484 74 489 87 489 106 c 2
 489 204 l 1
 480 203 465 202 444 202 c 0xcf70
 402 203 364 212 329 228 c 0
 294 244 278 273 277 312 c 0
 277 332 283 354 299 373 c 0
 313 390 335 400 365 400 c 0xa770
 396 400 419 392 434 376 c 0
 450 357 457 336 457 313 c 0
 457 286 450 265 431 252 c 1
 451 252 470 252 489 254 c 1
 489 557 l 1
 557 557 l 1
 557 280 l 1
 568 289 579 302 590 319 c 0
 602 336 606 361 608 393 c 1
 663 393 l 1
 663 345 654 310 632 287 c 0
 613 265 587 244 557 226 c 1xc770
365 268 m 0
 374 268 381 270 390 276 c 0
 396 280 402 286 405 291 c 0
 407 299 409 304 409 313 c 0
 409 326 406 336 399 344 c 0
 390 352 380 357 365 357 c 0x9670
 351 357 341 352 332 344 c 0
 325 336 320 325 320 313 c 0
 320 302 325 291 332 281 c 0
 341 274 351 268 365 268 c 0
136 513 m 0
 119 513 106 508 99 499 c 0
 90 489 86 477 86 463 c 0
 86 450 90 438 99 428 c 0
 106 416 119 412 136 412 c 0
 152 412 165 416 174 428 c 0
 181 438 187 450 187 463 c 0x8ef0
 187 477 181 489 174 499 c 0
 165 508 152 513 136 513 c 0
EndSplineSet
EndChar
StartChar: uni0E2A
Encoding: 173 3626 172
OldEncoding: 3626
Width: 572
Flags: W
HStem: -10 49<181.129 204> 141 50<180.364 204> 352 57<202 214> 513 54<255 291>
VStem: 78 63<207 247> 242 49<85 95> 419 70<0 15.7816 191 399>
Fore
191 141 m 0
 177 141 164 136 154 126 c 0
 146 116 141 104 141 90 c 0
 141 77 146 65 154 55 c 0
 164 45 177 39 191 39 c 0
 209 39 222 45 229 55 c 0
 238 65 242 77 242 90 c 0
 242 104 238 116 229 126 c 0
 222 136 209 141 191 141 c 0
402 451 m 1
 402 445 392 429 370 400 c 0
 349 373 338 354 338 349 c 1
 351 335 364 315 376 293 c 0
 387 273 394 252 403 235 c 0
 409 216 415 202 419 191 c 1
 419 383 l 2
 419 407 413 429 402 451 c 1
307 389 m 2
 310 389 320 405 342 436 c 0
 364 467 374 481 374 481 c 1
 349 503 313 513 267 513 c 0
 193 513 135 483 91 425 c 1
 48 458 l 1
 64 487 91 512 133 534 c 0
 173 555 218 567 270 567 c 4
 319 567 362 557 400 538 c 0
 403 538 413 551 429 576 c 0
 445 600 457 613 463 613 c 0
 464 610 470 608 478 603 c 0
 489 596 496 590 505 584 c 0
 512 580 515 576 515 570 c 1
 506 560 494 545 477 526 c 0
 458 508 451 499 451 496 c 0
 476 467 489 429 489 383 c 2
 489 0 l 1
 419 0 l 1
 419 20 413 49 402 88 c 0
 390 126 374 167 354 209 c 0
 335 249 312 283 287 312 c 0
 262 339 236 352 212 352 c 1
 164 348 141 306 141 229 c 0
 141 215 142 199 144 178 c 1
 146 180 151 184 160 187 c 0
 167 190 177 191 191 191 c 0
 223 191 248 181 265 162 c 0
 283 142 291 119 291 91 c 0
 291 62 283 38 265 20 c 0
 248 0 223 -10 191 -10 c 0
 161 -10 136 0 117 22 c 0
 100 42 88 65 86 93 c 0
 80 130 77 178 78 232 c 0
 78 281 91 323 112 354 c 0
 133 387 161 405 202 409 c 1
 236 409 261 405 276 396 c 1
 276 396 278 396 283 394 c 0
 289 393 294 393 300 392 c 0
 304 390 307 389 307 389 c 2
EndSplineSet
EndChar
StartChar: uni0E2B
Encoding: 174 3627 173
OldEncoding: 3627
Width: 658
Flags: W
HStem: 0 21G<167 236 506 574> 362 50<136 148> 513 51<136 148 474 484>
VStem: 35 51<452.1 466> 167 69<0 33 0 463> 187 49<453.622 466> 370 53<461 466> 506 68<0 273> 525 51<464 466>
Fore
167 0 m 1xfb
 167 367 l 1
 160 364 149 362 136 362 c 0
 104 362 80 373 62 393 c 0
 45 413 35 436 35 464 c 0
 35 492 45 515 62 534 c 0
 80 554 104 564 136 564 c 0
 157 564 174 558 188 551 c 0
 203 542 216 529 225 515 c 0
 232 500 236 481 236 463 c 2
 236 209 l 1
 255 255 283 291 320 323 c 0
 357 352 386 374 406 383 c 1
 381 402 370 428 370 463 c 0
 370 490 380 513 399 534 c 0
 416 554 442 564 474 564 c 0
 506 564 531 554 550 534 c 0
 567 515 576 492 576 464 c 0xfa80
 576 445 570 429 563 413 c 0
 552 396 539 383 522 376 c 1
 531 373 542 362 554 344 c 0
 567 328 574 302 574 264 c 2
 574 0 l 1
 506 0 l 1
 506 264 l 2
 506 294 502 316 490 329 c 0
 478 341 470 349 463 352 c 1
 392 316 336 265 297 202 c 0
 255 138 236 77 236 22 c 2
 236 0 l 1
 167 0 l 1xfb
474 515 m 0
 458 515 445 509 438 500 c 0
 428 490 423 478 423 464 c 0
 423 451 428 439 438 429 c 0
 445 418 458 413 474 413 c 0
 490 413 503 418 512 429 c 0
 519 439 525 451 525 464 c 0
 525 478 519 490 512 500 c 0
 503 509 490 515 474 515 c 0
136 513 m 0
 119 513 106 508 99 499 c 0
 90 489 86 477 86 463 c 0
 86 450 90 438 99 428 c 0
 106 416 119 412 136 412 c 0
 152 412 165 416 174 428 c 0
 181 438 187 450 187 463 c 0xf6
 187 477 181 489 174 499 c 0
 165 508 152 513 136 513 c 0
EndSplineSet
EndChar
StartChar: uni0E2C
Encoding: 175 3628 174
OldEncoding: 3628
Width: 710
Flags: W
HStem: 0 21G<167 236 557 626> 362 50<136 148> 465 48<540 557> 513 51<136 148> 597 45<540 556>
VStem: 35 51<452.1 468> 167 69<0 463> 187 49<453.622 468> 454 48<545 566> 555 71<0 478> 584 48<547 564>
AnchorPoint: "AboveBase" 508.95 652.5 basechar 0
Fore
167 0 m 1xfec0
 167 367 l 1
 160 364 149 362 136 362 c 0
 104 362 80 373 62 393 c 0
 45 413 35 436 35 464 c 0
 35 492 45 515 62 534 c 0
 80 554 104 564 136 564 c 0
 157 564 174 558 188 551 c 0
 203 542 216 529 225 515 c 0
 232 500 236 481 236 463 c 2
 236 178 l 1
 400 532 l 1
 557 178 l 1
 557 465 l 1
 522 465 496 474 478 492 c 0
 463 508 454 529 454 557 c 0
 454 581 463 602 480 618 c 0
 499 634 519 642 547 642 c 0
 571 642 592 634 608 616 c 0
 625 597 632 576 632 547 c 1xfea0
 641 551 651 558 664 571 c 0
 677 584 686 603 693 626 c 1
 741 597 l 1
 731 567 715 542 690 521 c 0
 666 500 644 484 626 478 c 1
 626 0 l 1
 557 0 l 2
 555 0 555 4 555 13 c 0
 555 22 554 30 552 42 c 0
 551 54 550 64 547 68 c 2
 400 393 l 1
 249 68 l 2
 244 58 241 46 239 33 c 0
 238 17 238 7 236 0 c 1
 167 0 l 1xfec0
136 513 m 0
 119 513 106 508 99 499 c 0
 90 489 86 477 86 463 c 0
 86 450 90 438 99 428 c 0
 106 416 119 412 136 412 c 0
 152 412 165 416 174 428 c 0
 181 438 187 450 187 463 c 0xfd80
 187 477 181 489 174 499 c 0
 165 508 152 513 136 513 c 0
542 513 m 0
 557 513 567 518 576 526 c 0
 581 534 584 544 584 555 c 0xfca0
 584 567 581 579 576 587 c 0
 567 594 557 597 542 597 c 0
 529 597 519 593 513 584 c 0
 505 577 502 567 502 555 c 0
 502 544 505 534 513 526 c 0
 519 518 529 513 542 513 c 0
EndSplineSet
EndChar
StartChar: uni0E2D
Encoding: 176 3629 175
OldEncoding: 3629
Width: 587
Flags: W
HStem: 0 59<212 398> 199 50<189 196> 349 51<189 196> 515 52<266 296>
VStem: 91 51<106 305> 91 70<106 204> 244 50<288.948 305> 434 69<106 402>
Fore
161 204 m 1xf7
 161 106 l 2xf7
 161 87 164 74 171 68 c 1
 175 62 190 59 212 59 c 2
 383 59 l 2
 405 59 419 62 426 68 c 0
 431 74 434 87 434 106 c 2
 434 383 l 2
 434 425 419 457 392 478 c 0
 362 502 325 515 280 515 c 0
 209 516 149 484 104 425 c 1
 62 458 l 1
 78 487 106 512 146 534 c 0
 186 555 231 567 283 567 c 0
 325 567 362 560 396 545 c 0
 429 531 455 512 476 483 c 0
 493 455 503 423 503 383 c 2
 503 106 l 2
 503 62 494 33 480 20 c 0
 464 7 431 0 383 0 c 2
 212 0 l 2
 177 0 152 3 136 9 c 0
 119 13 109 23 103 38 c 1
 96 52 91 75 91 106 c 2
 91 299 l 2xfb
 91 312 96 326 102 341 c 0
 106 355 117 370 133 381 c 0
 148 393 168 400 194 400 c 0
 226 400 251 390 268 370 c 0
 287 351 294 328 294 300 c 0
 294 273 287 248 268 228 c 0
 251 209 226 199 194 199 c 0
 190 199 178 200 161 204 c 1xf7
193 249 m 0
 209 249 222 254 231 265 c 0
 239 274 244 286 244 299 c 0
 244 313 239 325 231 335 c 0
 223 344 210 349 193 349 c 0
 177 349 164 344 155 336 c 0
 148 326 142 315 142 300 c 0xfb
 142 286 148 274 155 264 c 0
 165 254 178 249 193 249 c 0
EndSplineSet
EndChar
StartChar: uni0E2E
Encoding: 177 3630 176
OldEncoding: 3630
Width: 587
Flags: W
HStem: 0 59<212 402> 144 49<183 201> 294 51<180 201> 373 55<267 294> 516 51<267 296>
VStem: 91 51<106 248> 91 70<106 151> 244 50<239 248> 434 69<106 413>
Fore
91 106 m 2xfd80
 91 242 l 2xfd80
 91 265 100 289 115 312 c 0
 129 335 157 345 194 345 c 0
 226 345 251 336 268 316 c 0
 287 297 294 274 294 246 c 0
 294 218 287 194 268 174 c 0
 251 154 226 144 194 144 c 0
 184 144 173 146 161 151 c 1
 161 106 l 2xfb80
 161 87 164 74 171 68 c 1
 175 62 190 59 212 59 c 2
 383 59 l 2
 405 59 419 62 426 68 c 0
 431 74 434 87 434 106 c 2
 434 413 l 1
 423 403 400 393 365 386 c 0
 329 377 297 373 267 373 c 0
 218 373 174 380 133 396 c 0
 91 413 72 436 72 465 c 0
 72 489 81 508 103 522 c 0
 125 538 149 550 180 557 c 0
 212 564 239 567 267 567 c 0
 310 567 345 563 374 554 c 0
 402 545 425 534 442 522 c 0
 457 513 465 508 465 506 c 1
 465 506 l 1
 487 528 506 550 522 570 c 1
 570 532 l 1
 555 512 542 493 528 480 c 0
 513 467 502 458 494 454 c 1
 499 451 502 444 503 434 c 1
 503 106 l 2
 503 62 494 33 480 20 c 0
 464 7 431 0 383 0 c 2
 212 0 l 2
 177 0 152 3 136 9 c 0
 119 13 109 23 103 38 c 1
 96 52 91 75 91 106 c 2xfd80
267 428 m 0
 294 428 320 431 344 438 c 0
 367 442 386 447 400 454 c 0
 413 461 419 464 419 465 c 0
 412 474 396 484 373 499 c 0
 348 509 312 516 267 516 c 0
 236 516 206 513 180 505 c 0
 154 496 141 484 141 468 c 0
 141 441 184 428 267 428 c 0
193 193 m 0
 210 193 223 199 231 209 c 0
 239 219 244 231 244 244 c 0
 244 260 239 270 231 280 c 0
 223 290 210 294 193 294 c 0
 178 294 165 290 155 280 c 0
 148 273 142 260 142 244 c 0
 142 229 148 218 155 209 c 0
 165 199 178 193 193 193 c 0
EndSplineSet
EndChar
StartChar: uni0E2F
Encoding: 178 3631 177
OldEncoding: 3631
Width: 546
Flags: W
HStem: 251 61<209 241> 368 48<158 183> 516 51<158 183>
VStem: 54 68<425 467> 222 45<457 475> 393 70<153 365 557 557>
Fore
167 567 m 0
 200 567 225 557 241 539 c 0
 260 519 267 496 267 468 c 0
 267 442 257 419 241 400 c 0
 223 378 202 368 174 368 c 0
 160 368 148 370 138 376 c 0
 129 378 123 381 119 383 c 1
 128 364 141 348 160 332 c 0
 177 318 200 312 226 312 c 0
 257 312 286 323 310 345 c 0
 335 368 355 399 373 436 c 0
 387 474 393 513 393 557 c 1
 463 557 l 1
 463 174 l 2
 463 117 450 75 420 46 c 0
 393 16 349 -7 287 -22 c 1
 270 41 l 1
 319 52 352 68 370 87 c 1
 386 104 393 136 393 180 c 2
 393 365 l 1
 378 328 357 299 328 280 c 0
 297 261 264 251 229 251 c 0
 193 251 160 261 128 281 c 0
 96 303 74 331 62 365 c 0
 58 383 54 403 54 425 c 0
 54 464 62 499 80 526 c 0
 99 554 126 567 167 567 c 0
171 416 m 0
 187 416 200 420 209 431 c 0
 216 441 222 452 222 467 c 0
 222 480 216 492 206 502 c 0
 199 512 186 516 171 516 c 0
 155 516 142 512 135 502 c 0
 126 492 122 480 122 467 c 0
 122 452 126 441 135 431 c 0
 142 420 155 416 171 416 c 0
EndSplineSet
EndChar
StartChar: uni0E30
Encoding: 179 3632 178
OldEncoding: 3632
Width: 453
Flags: W
HStem: 0 54<186 214> 157 45<130 132> 365 54<186 212> 522 45<118.548 133>
VStem: 35 51<102 114 468 480> 178 53<102 114 463 481>
Fore
186 365 m 0
 135 365 97 376 72 396 c 0
 48 416 35 441 35 470 c 0
 35 496 45 519 62 539 c 0
 80 557 103 567 130 567 c 0
 165 567 190 558 206 541 c 0
 223 522 231 502 231 477 c 0
 231 457 225 438 212 419 c 1
 229 419 254 428 281 444 c 0
 310 463 325 500 325 557 c 1
 393 557 l 1
 393 516 386 480 368 452 c 0
 351 425 328 402 297 387 c 0
 265 373 229 365 186 365 c 0
186 0 m 0
 136 0 99 10 72 30 c 0
 48 52 35 77 35 104 c 0
 35 129 45 152 62 173 c 0
 80 191 103 203 130 202 c 0
 155 202 174 194 188 187 c 0
 203 178 213 167 222 154 c 0
 228 141 231 126 231 112 c 0
 231 90 225 72 212 54 c 1
 229 54 254 62 281 80 c 0
 310 97 325 135 325 191 c 1
 393 191 l 1
 393 151 386 115 368 87 c 0
 351 58 328 36 297 22 c 0
 265 7 229 0 186 0 c 0
130 157 m 0
 116 157 104 152 97 144 c 0
 88 135 86 123 86 110 c 0
 86 99 90 87 99 77 c 0
 106 67 116 62 130 62 c 0
 146 62 160 67 167 75 c 0
 175 86 178 97 178 110 c 0
 178 125 175 136 167 144 c 0
 160 152 146 157 130 157 c 0
130 522 m 0
 116 522 104 518 97 509 c 0
 88 500 86 489 86 476 c 0
 86 464 90 452 99 442 c 0
 106 432 116 428 130 428 c 0
 146 428 160 432 167 442 c 0
 175 451 178 463 178 476 c 0
 178 506 162 522 130 522 c 0
EndSplineSet
EndChar
StartChar: uni0E31
Encoding: 180 3633 179
OldEncoding: 3633
Width: 0
Flags: W
HStem: 658 58<-130 -125> 841 46<-260.917 -248>
VStem: -345 46<780 797> -204 52<785 803>
AnchorPoint: "AboveMark" -81.2002 965.7 basemark 0
AnchorPoint: "AboveBase" -55.0996 652.5 mark 0
Fore
-345 780 m 1
 -345 811 -338 837 -320 857 c 0
 -304 879 -281 887 -251 887 c 0
 -219 887 -197 879 -178 860 c 0
 -161 841 -152 819 -152 795 c 0
 -152 767 -162 744 -184 724 c 1
 -178 722 -168 721 -154 719 c 0
 -141 718 -130 716 -125 716 c 0
 -93 718 -62 726 -35 737 c 0
 -4 751 22 767 42 792 c 0
 64 815 78 841 87 871 c 1
 144 844 l 1
 135 811 116 782 90 754 c 0
 62 726 30 705 -7 686 c 0
 -45 668 -86 658 -128 658 c 0
 -186 657 -235 668 -276 686 c 0
 -318 706 -341 737 -345 780 c 1
-251 745 m 0
 -236 745 -225 751 -216 758 c 0
 -209 768 -204 780 -204 793 c 0
 -204 808 -209 819 -216 828 c 0
 -225 835 -236 841 -251 841 c 0
 -265 841 -277 835 -286 828 c 0
 -293 819 -299 808 -299 793 c 0
 -299 782 -293 770 -286 760 c 0
 -277 751 -265 745 -251 745 c 0
EndSplineSet
EndChar
StartChar: uni0E32
Encoding: 181 3634 180
OldEncoding: 3634
Width: 484
Flags: W
HStem: 0 21G<331 400> 516 51<210 231>
VStem: 331 69<0 421>
Fore
22 444 m 1
 42 483 67 515 96 536 c 0
 123 557 161 567 210 567 c 0
 267 567 313 552 348 525 c 0
 381 496 400 455 400 403 c 2
 400 0 l 1
 331 0 l 1
 331 406 l 2
 331 441 319 470 299 489 c 0
 276 508 246 516 210 516 c 0
 178 516 151 508 126 490 c 0
 102 471 84 447 72 419 c 1
 64 425 55 428 48 432 c 0
 39 436 29 439 22 444 c 1
EndSplineSet
EndChar
StartChar: uni0E33
Encoding: 182 3635 181
OldEncoding: 3635
Width: 484
Flags: W
HStem: 0 21G<331 400> 516 51<210 227> 660 45<-119 -109> 816 44<-119 -109>
VStem: -222 47<760 769> -64 44<760 769> 331 69<0 421>
Fore
-119 660 m 0
 -151 660 -175 670 -193 690 c 0
 -212 709 -222 732 -222 760 c 0
 -222 789 -213 811 -194 831 c 0
 -177 850 -152 860 -119 860 c 0
 -88 860 -64 850 -46 831 c 0
 -28 811 -20 789 -20 760 c 0
 -20 732 -28 709 -46 690 c 0
 -64 670 -88 660 -119 660 c 0
22 444 m 1
 42 483 67 515 96 536 c 0
 123 557 161 567 210 567 c 0
 267 567 313 552 348 525 c 0
 381 496 400 455 400 403 c 2
 400 0 l 1
 331 0 l 1
 331 406 l 2
 331 441 319 470 299 489 c 0
 276 508 246 516 210 516 c 0
 178 516 151 508 126 490 c 0
 102 471 84 447 72 419 c 1
 64 425 55 428 48 432 c 0
 39 436 29 439 22 444 c 1
-119 816 m 0
 -138 816 -151 811 -161 799 c 0
 -171 789 -175 774 -175 760 c 0
 -175 745 -171 732 -161 721 c 0
 -151 709 -138 705 -119 705 c 0
 -109 705 -99 708 -90 713 c 0
 -81 718 -75 726 -71 734 c 0
 -65 742 -64 753 -64 760 c 0
 -64 774 -68 789 -78 799 c 0
 -88 811 -102 816 -119 816 c 0
EndSplineSet
MultipleSubs: 0 1 'ccmp' uni0E4D uni0E32
EndChar
StartChar: uni0E34
Encoding: 183 3636 182
OldEncoding: 3636
Width: 0
Flags: W
HStem: 708 49<-391 -330> 834 50<-300 -284>
AnchorPoint: "AboveMark" -116 965.7 basemark 0
AnchorPoint: "AboveBase" -52.2002 652.5 mark 0
Fore
-284 884 m 5
 -210 874 -160 847 -128 802 c 4
 -99 755 -77 706 -65 652 c 5
 -84 658 -113 668 -151 680 c 4
 -188 692 -229 697 -274 703 c 4
 -303 706 -334 708 -364 708 c 4
 -400 708 -434 706 -461 705 c 4
 -490 702 -512 697 -523 696 c 5
 -518 729 -503 760 -480 790 c 4
 -460 819 -431 842 -397 858 c 4
 -362 877 -325 884 -284 884 c 5
-297 834 m 5
 -332 834 -361 826 -389 808 c 4
 -416 792 -434 773 -438 753 c 5
 -429 754 -420 754 -405 755 c 4
 -390 757 -367 757 -339 757 c 4
 -315 757 -297 757 -284 755 c 4
 -241 753 -209 745 -184 735 c 4
 -160 728 -145 719 -136 715 c 5
 -168 783 -220 822 -297 834 c 5
EndSplineSet
EndChar
StartChar: uni0E35
Encoding: 184 3637 183
OldEncoding: 3637
Width: 0
Flags: W
HStem: 708 49<-395 -329> 834 50<-299 -283>
VStem: -146 62<821 950>
AnchorPoint: "AboveMark" -116 965.7 basemark 0
AnchorPoint: "AboveBase" -84.0996 652.5 mark 0
Fore
-146 821 m 1
 -146 950 l 1
 -84 950 l 1
 -84 722 l 1
 -84 722 l 1
 -84 722 -83 716 -78 705 c 0
 -74 692 -70 673 -65 652 c 5
 -83 658 -113 668 -151 680 c 0
 -188 692 -229 697 -273 703 c 0
 -303 706 -332 708 -364 708 c 0
 -399 708 -432 706 -460 705 c 0
 -490 702 -510 697 -522 696 c 1
 -518 729 -503 760 -480 790 c 0
 -458 819 -431 842 -396 860 c 0
 -361 877 -323 884 -283 884 c 1
 -257 882 -233 874 -213 866 c 0
 -193 857 -178 847 -167 840 c 0
 -157 831 -151 824 -146 821 c 1
-296 834 m 1
 -320 834 -342 829 -361 821 c 0
 -381 812 -397 803 -410 790 c 0
 -423 779 -432 766 -436 753 c 1
 -429 754 -419 754 -405 755 c 0
 -390 757 -367 757 -339 757 c 0
 -315 757 -296 757 -283 755 c 0
 -241 753 -207 745 -183 735 c 0
 -158 728 -144 719 -135 715 c 1
 -146 742 -165 768 -190 792 c 0
 -215 815 -248 829 -296 834 c 1
EndSplineSet
EndChar
StartChar: uni0E36
Encoding: 185 3638 184
OldEncoding: 3638
Width: 0
Flags: W
HStem: 708 49<-380 -330> 834 53<-316 -297> 916 44<-156 -136>
VStem: -235 47<873 886> -106 48<865 874>
AnchorPoint: "AboveMark" -147.9 965.7 basemark 0
AnchorPoint: "AboveBase" -52.2002 652.5 mark 0
Fore
-58 871 m 4
 -58 850 -62 832 -74 816 c 4
 -86 799 -100 790 -119 786 c 5
 -110 774 -102 758 -90 734 c 4
 -78 709 -71 682 -65 652 c 5
 -84 658 -113 668 -151 680 c 4
 -188 692 -229 697 -274 703 c 4
 -303 706 -334 708 -364 708 c 4
 -400 708 -434 706 -461 705 c 4
 -490 702 -512 697 -523 696 c 5
 -516 731 -503 764 -480 795 c 4
 -460 824 -431 847 -402 864 c 4
 -371 880 -341 887 -312 887 c 4
 -300 887 -287 886 -276 884 c 4
 -264 883 -254 880 -246 879 c 4
 -238 874 -235 873 -235 873 c 5
 -235 895 -226 915 -210 932 c 4
 -196 950 -174 960 -148 960 c 4
 -120 960 -97 953 -83 935 c 4
 -68 918 -59 896 -58 871 c 4
-146 916 m 4
 -161 916 -171 912 -177 905 c 4
 -186 896 -188 886 -188 874 c 4
 -188 866 -186 856 -177 847 c 4
 -170 840 -160 834 -146 834 c 4
 -135 834 -125 840 -116 847 c 4
 -109 856 -106 866 -106 874 c 4
 -106 886 -109 896 -115 905 c 4
 -123 912 -133 916 -146 916 c 4
-297 834 m 5
 -322 834 -342 829 -362 821 c 4
 -383 812 -399 803 -412 790 c 4
 -425 779 -434 766 -438 753 c 5
 -429 754 -420 754 -405 755 c 4
 -390 757 -367 757 -339 757 c 4
 -315 757 -297 757 -284 755 c 4
 -241 753 -209 745 -184 735 c 4
 -160 728 -145 719 -136 715 c 5
 -148 742 -165 767 -190 790 c 4
 -215 812 -249 828 -297 834 c 5
EndSplineSet
EndChar
StartChar: uni0E37
Encoding: 186 3639 185
OldEncoding: 3639
Width: 0
Flags: W
HStem: 708 49<-395 -329> 834 53<-315 -296>
VStem: -270 63<883 950> -146 62<819 950>
AnchorPoint: "AboveMark" -176.9 965.7 basemark 0
AnchorPoint: "AboveBase" -84.0996 652.5 mark 0
Fore
-84 721 m 1
 -83 721 -77 697 -65 652 c 5
 -83 658 -113 668 -151 680 c 0
 -188 692 -229 697 -273 703 c 0
 -303 706 -332 708 -364 708 c 0
 -399 708 -432 706 -460 705 c 0
 -490 702 -510 697 -522 696 c 1
 -518 732 -500 766 -480 793 c 0
 -457 822 -432 845 -402 861 c 0
 -370 880 -336 887 -306 887 c 0
 -293 887 -281 886 -270 883 c 1
 -270 950 l 1
 -207 950 l 1
 -207 864 l 1
 -181 854 -162 840 -146 819 c 1
 -146 950 l 1
 -84 950 l 1
 -84 721 l 1
-296 834 m 1
 -331 834 -360 826 -387 808 c 0
 -416 792 -432 773 -436 753 c 1
 -429 754 -419 754 -405 755 c 0
 -390 757 -367 757 -339 757 c 0
 -315 757 -296 757 -283 755 c 0
 -241 753 -207 745 -183 735 c 0
 -158 728 -144 719 -135 715 c 1
 -167 783 -219 822 -296 834 c 1
EndSplineSet
EndChar
StartChar: uni0E38
Encoding: 187 3640 186
OldEncoding: 3640
Width: 0
Flags: W
HStem: -270 51<-192 -174> -119 51<-186 -174>
VStem: -287 49<-179.945 -164> -154 68<-409 -167> -135 49<-182.883 -164>
AnchorPoint: "BelowBase" -85.5498 -68.1504 mark 0
Fore
-86 -409 m 1xf0
 -154 -409 l 1
 -154 -265 l 1
 -164 -268 -175 -270 -188 -270 c 0
 -219 -270 -244 -261 -261 -241 c 0
 -278 -222 -287 -199 -287 -171 c 0
 -287 -142 -278 -119 -261 -99 c 0
 -242 -78 -218 -68 -186 -68 c 4
 -157 -68 -133 -77 -115 -96 c 0
 -97 -112 -86 -136 -86 -167 c 2
 -86 -409 l 1xf0
-186 -219 m 0
 -171 -219 -157 -215 -148 -204 c 0
 -139 -197 -135 -186 -135 -171 c 0xe8
 -135 -155 -139 -144 -148 -135 c 0
 -155 -125 -168 -119 -186 -119 c 0
 -202 -119 -215 -125 -225 -136 c 0
 -232 -146 -238 -157 -238 -171 c 0
 -238 -184 -232 -194 -223 -204 c 0
 -213 -215 -200 -219 -186 -219 c 0
EndSplineSet
EndChar
StartChar: uni0E39
Encoding: 188 3641 187
OldEncoding: 3641
Width: 0
Flags: W
HStem: -425 57<-197 -195> -270 51<-346 -328> -119 51<-339 -328>
VStem: -441 51<-173 -164> -307 68<-337.186 -265> -289 50<-181.488 -164> -154 68<-328 -75>
AnchorPoint: "BelowBase" -85.5498 -68.1504 mark 0
Fore
-307 -328 m 2xfa
 -307 -265 l 1xfa
 -318 -268 -329 -270 -341 -270 c 0
 -373 -270 -394 -261 -413 -239 c 0
 -431 -218 -441 -194 -441 -168 c 0
 -441 -142 -431 -119 -413 -99 c 0
 -394 -78 -370 -68 -339 -68 c 0
 -312 -68 -287 -77 -268 -96 c 0
 -251 -112 -239 -136 -239 -167 c 2xf6
 -239 -328 l 2
 -239 -339 -235 -349 -226 -357 c 0
 -218 -365 -209 -368 -197 -368 c 0
 -186 -368 -175 -365 -167 -357 c 0
 -160 -349 -154 -339 -154 -328 c 2
 -154 -75 l 1
 -86 -75 l 1
 -86 -328 l 2
 -86 -357 -97 -380 -117 -399 c 0
 -139 -416 -165 -425 -197 -425 c 0
 -226 -425 -252 -415 -274 -396 c 0
 -297 -378 -307 -355 -307 -328 c 2xfa
-339 -219 m 0
 -323 -219 -310 -215 -302 -204 c 0
 -293 -194 -289 -184 -289 -171 c 0xf6
 -289 -157 -293 -146 -302 -136 c 0
 -310 -125 -323 -119 -339 -119 c 0
 -355 -119 -368 -125 -377 -135 c 0
 -386 -144 -390 -155 -390 -171 c 0
 -390 -184 -386 -194 -376 -204 c 0
 -367 -215 -354 -219 -339 -219 c 0
EndSplineSet
EndChar
StartChar: uni0E3A
Encoding: 189 3642 188
OldEncoding: 3642
Width: 0
Flags: W
AnchorPoint: "BelowBase" -85.5498 -68.1504 mark 0
Fore
-119 -102 m 0
 -103 -102 -90 -106 -81 -116 c 0
 -74 -128 -68 -139 -68 -154 c 0
 -68 -167 -74 -178 -81 -190 c 0
 -90 -200 -103 -204 -119 -204 c 0
 -136 -204 -149 -200 -157 -190 c 0
 -167 -178 -173 -167 -173 -154 c 0
 -173 -141 -167 -129 -160 -117 c 0
 -149 -109 -136 -103 -119 -102 c 0
EndSplineSet
EndChar
StartChar: uni0E3F
Encoding: 190 3647 191
OldEncoding: 3647
Width: 672
VWidth: 2048
Flags: W
HStem: 0 75<165 276 351 442> 344 76<165 276 351 379> 667 75<90 276 351 378.034>
VStem: 90 75<0 344 0 667> 276 75<-100 0 75 344 420 667 742 832> 512 77<536 557> 545 74<203 221>
Fore
276 420 m 5xf8
 276 667 l 5
 165 667 l 5
 165 420 l 5
 276 420 l 5xf8
276 75 m 5
 276 344 l 5
 165 344 l 5
 165 75 l 5
 276 75 l 5
351 344 m 5
 351 75 l 5
 412 75 l 6
 502 75 545 122 545 213 c 4xfa
 545 267 526 303 489 323 c 4
 461 338 418 344 361 344 c 6
 351 344 l 5
351 667 m 5
 351 420 l 5
 368 420 l 6
 407 420 441 431 467 450 c 4
 496 471 512 500 512 538 c 4xfc
 512 625 457 667 351 667 c 5
276 832 m 5
 351 832 l 5
 351 742 l 5
 402 742 l 6
 444 742 481 729 518 703 c 4
 566 668 589 619 589 555 c 4xfc
 589 483 552 429 481 393 c 5
 528 370 l 6
 589 341 619 286 619 209 c 4xfa
 619 142 596 88 551 48 c 4
 516 16 480 0 442 0 c 6
 351 0 l 5
 351 -100 l 5
 276 -100 l 5
 276 0 l 5
 90 0 l 5
 90 742 l 5
 276 742 l 5
 276 832 l 5
EndSplineSet
EndChar
StartChar: uni0E40
Encoding: 191 3648 192
OldEncoding: 3648
Width: 327
Flags: W
HStem: -10 51<193 204> 141 50<186 204>
VStem: 91 51<85 93> 91 70<88 557> 244 49<85 93>
Fore
91 557 m 1xd8
 161 557 l 1
 161 187 l 1xd8
 168 190 180 191 194 191 c 0
 226 191 251 181 268 162 c 0
 286 142 293 117 293 90 c 0
 293 62 286 39 267 20 c 0
 249 0 225 -10 193 -10 c 0
 164 -10 141 -1 123 16 c 0
 104 33 91 58 91 88 c 2xe8
 91 557 l 1xd8
193 141 m 0
 178 141 165 136 157 126 c 0
 148 116 142 104 142 91 c 0xe8
 142 77 148 65 155 55 c 0
 165 46 178 41 193 41 c 0
 210 41 223 46 231 55 c 0
 239 65 244 77 244 91 c 0
 244 104 239 116 231 126 c 0
 222 136 209 141 193 141 c 0
EndSplineSet
EndChar
StartChar: uni0E41
Encoding: 192 3649 193
OldEncoding: 3649
Width: 590
Flags: W
HStem: -10 51<193 204 444.536 460> 141 50<186 204 444.382 460>
VStem: 91 51<85 93> 91 70<88 557> 244 49<85 93> 355 50<85 93> 355 70<88 557> 508 49<85 93>
Fore
91 557 m 1xd9
 161 557 l 1
 161 187 l 1xd9
 168 190 180 191 194 191 c 0
 226 191 251 181 268 162 c 0
 286 142 293 117 293 90 c 0
 293 62 286 39 267 20 c 0
 249 0 225 -10 193 -10 c 0
 164 -10 141 -1 123 16 c 0
 104 33 91 58 91 88 c 2xe9
 91 557 l 1xd9
355 557 m 1xcb
 425 557 l 1
 425 187 l 1xcb
 434 190 445 191 457 191 c 0
 489 191 513 181 531 162 c 0
 550 141 557 117 557 90 c 0
 557 64 547 41 529 22 c 0
 512 0 487 -10 455 -10 c 0
 428 -10 405 -1 387 16 c 0
 368 33 355 58 355 88 c 2xcd
 355 557 l 1xcb
455 141 m 0
 441 141 428 136 419 126 c 0
 409 115 405 103 405 91 c 0xcd
 405 78 409 67 418 58 c 0
 428 46 441 41 455 41 c 0
 471 41 484 46 494 58 c 0
 503 67 508 78 508 91 c 0
 508 103 503 115 493 126 c 0
 483 136 470 141 455 141 c 0
193 141 m 0
 178 141 165 136 157 126 c 0
 148 116 142 104 142 91 c 0xe9
 142 77 148 65 155 55 c 0
 165 46 178 41 193 41 c 0
 210 41 223 46 231 55 c 0
 239 65 244 77 244 91 c 0
 244 104 239 116 231 126 c 0
 222 136 209 141 193 141 c 0
EndSplineSet
EndChar
StartChar: uni0E42
Encoding: 193 3650 194
OldEncoding: 3650
Width: 350
Flags: W
HStem: -10 51<226.106 241> 141 50<226.797 241> 916 57<271 279> 957 57<126 138>
VStem: 136 51<85 93> 136 68<88 775> 289 49<85 93>
Fore
136 88 m 2xda
 136 755 l 2
 136 784 133 806 128 821 c 0
 122 834 106 847 84 861 c 0
 59 877 16 898 -48 925 c 1
 -35 941 -13 960 17 982 c 0
 49 1003 86 1014 126 1014 c 0xd6
 149 1014 177 1008 209 995 c 0
 239 980 262 973 276 973 c 0
 291 973 310 980 331 995 c 1
 358 947 l 1
 331 925 304 916 277 916 c 0xe6
 260 916 235 924 202 937 c 0
 167 953 142 957 126 957 c 0
 110 957 96 954 84 948 c 0
 72 944 65 938 61 935 c 1
 109 911 138 895 152 886 c 0
 167 877 180 861 190 842 c 0
 200 822 204 795 204 758 c 2
 204 187 l 1xd6
 213 190 225 191 239 191 c 0
 270 191 294 181 312 162 c 0
 329 142 338 117 338 90 c 0
 338 62 329 39 312 20 c 0
 293 0 268 -10 238 -10 c 0
 210 -10 187 -1 168 16 c 0
 149 33 136 58 136 88 c 2xda
238 141 m 0
 223 141 210 136 202 126 c 0
 191 116 187 104 187 91 c 0xca
 187 77 191 65 200 55 c 0
 209 46 222 41 238 41 c 0
 254 41 267 46 276 55 c 0
 283 65 289 77 289 91 c 0
 289 104 283 116 274 126 c 0
 265 136 252 141 238 141 c 0
EndSplineSet
EndChar
StartChar: uni0E43
Encoding: 194 3651 195
OldEncoding: 3651
Width: 350
Flags: W
HStem: -10 51<238 242> 141 50<233 241> 771 40<25 33> 890 39<16 32> 970 48<58 86>
VStem: -54 42<850 880> 67 39<840.262 855> 136 51<85 93> 136 68<88 908> 289 49<85 93>
Fore
136 88 m 2xff40
 136 890 l 2
 136 944 116 970 75 970 c 0
 54 970 39 966 30 956 c 0
 23 944 17 935 16 929 c 1
 45 929 67 921 84 906 c 0
 99 892 106 873 106 850 c 0
 106 826 99 808 84 793 c 0
 68 779 51 771 29 771 c 0
 12 771 -3 777 -17 786 c 0
 -33 795 -42 809 -48 828 c 0
 -52 844 -54 861 -54 880 c 0
 -54 919 -42 953 -22 979 c 0
 0 1005 33 1018 74 1018 c 0
 113 1018 144 1006 168 985 c 0
 193 961 204 929 204 887 c 2
 204 187 l 1xfec0
 213 190 225 191 239 191 c 0
 270 191 294 181 312 162 c 0
 329 142 338 117 338 90 c 0
 338 62 329 39 312 20 c 0
 293 0 268 -10 238 -10 c 0
 210 -10 187 -1 168 16 c 0
 149 33 136 58 136 88 c 2xff40
28 890 m 0
 14 890 4 886 0 879 c 1
 -9 870 -12 861 -12 850 c 0
 -12 840 -9 831 0 822 c 1
 4 815 14 811 28 811 c 0
 41 811 51 815 58 822 c 0
 64 831 67 840 67 850 c 0
 67 860 64 870 58 879 c 0
 51 886 41 890 28 890 c 0
238 141 m 0
 223 141 210 136 202 126 c 0
 191 116 187 104 187 91 c 0xff40
 187 77 191 65 200 55 c 0
 209 46 222 41 238 41 c 0
 254 41 267 46 276 55 c 0
 283 65 289 77 289 91 c 0
 289 104 283 116 274 126 c 0
 265 136 252 141 238 141 c 0
EndSplineSet
EndChar
StartChar: uni0E44
Encoding: 195 3652 196
OldEncoding: 3652
Width: 408
Flags: W
HStem: -10 51<294 305> 141 50<287 305> 953 61<186 199>
VStem: 194 50<85 93> 194 70<88 946> 345 51<91 93>
Fore
194 88 m 2xf4
 194 938 l 2
 194 947 193 953 188 953 c 0
 184 953 181 948 180 944 c 2
 119 734 l 2
 112 706 99 693 78 693 c 0
 59 693 46 708 38 737 c 2
 -16 938 l 2
 -23 961 -33 974 -48 980 c 1
 -13 1018 l 1
 9 1009 23 990 30 957 c 2
 80 768 l 1
 129 960 l 1
 139 996 161 1014 199 1014 c 0
 218 1014 235 1008 246 996 c 0
 257 985 264 967 264 944 c 2
 264 187 l 1xec
 273 190 283 191 299 191 c 0
 329 191 354 181 373 162 c 0
 389 142 396 119 396 91 c 0
 396 64 389 39 370 20 c 0
 352 0 326 -10 294 -10 c 0
 267 -10 244 -1 226 16 c 0
 209 33 194 58 194 88 c 2xf4
294 141 m 0
 280 141 268 136 260 126 c 0
 249 115 244 103 244 91 c 0xf4
 244 78 249 67 260 58 c 0
 267 46 280 41 294 41 c 0
 312 41 325 46 332 55 c 0
 341 65 345 77 345 91 c 0
 345 104 341 116 332 126 c 0
 323 136 310 141 294 141 c 0
EndSplineSet
EndChar
StartChar: uni0E45
Encoding: 196 3653 197
OldEncoding: 3653
Width: 484
Flags: W
HStem: 516 51<210 231>
VStem: 331 69<-290 421>
Fore
22 444 m 1
 42 483 67 515 96 536 c 0
 123 557 161 567 210 567 c 0
 267 567 313 552 348 525 c 0
 381 496 400 455 400 403 c 2
 400 -290 l 1
 331 -290 l 1
 331 406 l 2
 331 441 319 470 299 489 c 0
 276 508 246 516 210 516 c 0
 178 516 151 508 126 490 c 0
 102 471 84 447 72 419 c 1
 64 425 55 428 48 432 c 0
 39 436 29 439 22 444 c 1
EndSplineSet
EndChar
StartChar: uni0E46
Encoding: 197 3654 198
OldEncoding: 3654
Width: 651
Flags: W
HStem: 236 47<300 302> 373 43<300 302>
VStem: 171 58<387 408> 345 45<328 335> 499 68<-35 417>
Fore
441 567 m 1
 470 563 494 551 515 536 c 0
 534 521 547 502 555 480 c 0
 564 458 567 432 567 403 c 2
 567 -30 l 2
 567 -68 560 -102 550 -126 c 0
 538 -151 518 -173 493 -187 c 0
 468 -203 434 -216 393 -226 c 1
 376 -164 l 1
 425 -152 457 -136 474 -117 c 0
 490 -100 499 -68 499 -25 c 2
 499 393 l 2
 499 425 494 450 489 467 c 0
 481 483 465 499 441 509 c 1
 376 468 l 1
 376 468 l 1
 376 470 365 474 348 483 c 0
 328 493 312 503 299 509 c 1
 274 500 257 484 246 464 c 0
 235 442 229 418 229 387 c 1
 235 392 242 396 254 405 c 0
 265 413 280 416 300 416 c 0
 328 416 351 407 367 390 c 0
 381 373 390 352 390 328 c 0
 390 303 381 281 367 264 c 0
 351 246 328 236 300 236 c 0
 273 236 249 244 229 260 c 0
 210 274 194 293 186 318 c 0
 175 342 171 368 171 400 c 0
 171 441 184 477 209 508 c 0
 232 539 262 558 300 567 c 1
 313 560 329 552 348 542 c 0
 365 532 376 528 376 526 c 1
 441 567 l 1
300 373 m 0
 287 373 277 367 268 358 c 0
 261 351 255 339 255 328 c 0
 255 316 260 306 267 299 c 0
 276 289 286 283 300 283 c 0
 315 283 326 289 335 297 c 0
 342 304 345 316 345 328 c 0
 345 341 342 352 335 361 c 0
 326 368 315 373 300 373 c 0
EndSplineSet
EndChar
StartChar: uni0E47
Encoding: 198 3655 199
OldEncoding: 3655
Width: 0
Flags: W
HStem: 652 40<-162 -160> 735 54<-325 -313.495> 770 36<-162 -160> 844 49<-240 -198>
VStem: -471 53<782 795> -125 39<731 742> -119 54<952.187 968.937>
AnchorPoint: "AboveMark" -278.4 652.5 mark 0
AnchorPoint: "AboveBase" -55.0996 652.5 mark 0
Fore
-162 652 m 0xbc
 -180 652 -194 655 -206 664 c 0
 -222 671 -236 682 -251 695 c 0
 -267 709 -280 719 -291 726 c 0
 -303 732 -313 735 -325 735 c 0xdc
 -349 734 -365 722 -376 702 c 0
 -386 680 -390 664 -392 648 c 1
 -413 658 -431 679 -447 706 c 0
 -464 734 -471 761 -471 790 c 4
 -471 803 -468 816 -464 831 c 0
 -445 877 -402 899 -329 899 c 0
 -312 899 -297 899 -286 898 c 0
 -260 895 -235 893 -213 893 c 0
 -181 893 -157 898 -142 909 c 0
 -128 919 -119 938 -119 969 c 1
 -65 969 l 1
 -65 924 -78 892 -103 873 c 0
 -129 854 -171 844 -226 844 c 0
 -249 844 -276 845 -303 848 c 1
 -341 848 -370 845 -389 837 c 0
 -407 829 -418 815 -418 793 c 0
 -418 779 -413 760 -403 740 c 1
 -400 747 -392 757 -378 770 c 0xba
 -367 782 -349 789 -325 789 c 0xda
 -304 789 -287 783 -273 774 c 0
 -255 766 -244 757 -238 751 c 1
 -232 768 -225 782 -212 792 c 0
 -199 802 -181 806 -162 806 c 0
 -138 806 -119 799 -104 784 c 0
 -91 770 -86 753 -86 731 c 0
 -86 709 -91 690 -104 676 c 0
 -119 660 -138 652 -162 652 c 0xbc
-162 692 m 0
 -151 692 -141 695 -135 703 c 0
 -128 710 -125 721 -125 731 c 0
 -125 742 -128 751 -135 758 c 0
 -141 767 -151 770 -162 770 c 0xbc
 -174 770 -184 767 -190 758 c 0
 -197 751 -200 742 -200 731 c 0
 -200 721 -197 713 -190 705 c 0
 -184 696 -174 692 -162 692 c 0
EndSplineSet
EndChar
StartChar: uni0E48
Encoding: 199 3656 200
OldEncoding: 3656
Width: 0
Flags: W
VStem: -151 63<1014 1206>
AnchorPoint: "AboveMark" -120.35 965.7 mark 0
Fore
-151 1014 m 1
 -151 1206 l 1
 -88 1206 l 1
 -88 1014 l 1
 -151 1014 l 1
EndSplineSet
Substitution: 0 65534 'loww' uni0E48.low
Substitution: 0 65534 'amni' uni0E4D
EndChar
StartChar: uni0E49
Encoding: 200 3657 201
OldEncoding: 3657
Width: 0
Flags: W
HStem: 966 46<-190 -159.207> 1038 42<-245 -233> 1160 42<-235 -226>
VStem: -319 45<1121 1127> -193 49<1111 1127>
AnchorPoint: "AboveMark" -140.65 965.7 mark 0
Fore
-144 1116 m 0
 -144 1088 -149 1064 -157 1047 c 0
 -167 1030 -175 1018 -181 1012 c 1
 -136 1012 -99 1024 -71 1048 c 0
 -51 1067 -38 1086 -33 1111 c 0
 -26 1135 -23 1163 -23 1196 c 1
 38 1196 l 1
 38 1093 3 1025 -67 992 c 0
 -102 973 -142 966 -190 966 c 0
 -210 966 -228 967 -242 969 c 0
 -257 972 -268 973 -274 974 c 1
 -267 979 -257 985 -246 995 c 0
 -235 1006 -226 1021 -222 1043 c 1
 -223 1043 -225 1043 -228 1041 c 0
 -232 1038 -238 1038 -242 1038 c 0
 -248 1038 -254 1041 -264 1043 c 0
 -302 1054 -319 1080 -319 1121 c 0
 -319 1135 -316 1150 -307 1161 c 0
 -302 1174 -291 1185 -278 1193 c 0
 -267 1199 -252 1202 -235 1202 c 0
 -206 1202 -184 1195 -168 1176 c 0
 -152 1160 -144 1140 -144 1116 c 0
-235 1160 m 0
 -248 1160 -257 1157 -264 1148 c 0
 -270 1140 -274 1132 -274 1121 c 0
 -274 1109 -270 1101 -264 1093 c 0
 -257 1085 -248 1080 -235 1080 c 0
 -223 1080 -213 1085 -204 1093 c 0
 -197 1099 -193 1109 -193 1121 c 0
 -193 1132 -197 1140 -204 1148 c 0
 -212 1157 -222 1160 -235 1160 c 0
EndSplineSet
Substitution: 0 65534 'loww' uni0E49.low
Substitution: 0 65534 'amni' uni0E4D
EndChar
StartChar: uni0E4A
Encoding: 201 3658 202
OldEncoding: 3658
Width: 0
Flags: W
HStem: 980 29<-304 -295> 1082 29<-304 -295> 1151 45<-306 -295 -196 -184>
VStem: -393 52<1045 1096> -268 29<1041 1047> -154 44<1086 1103> -52 48<1136 1159>
AnchorPoint: "AboveMark" -220.4 965.7 mark 0
Fore
-304 980 m 0
 -323 982 -338 986 -352 998 c 0
 -367 1009 -377 1024 -383 1043 c 0
 -390 1060 -393 1079 -393 1096 c 0
 -392 1125 -381 1150 -367 1169 c 0
 -352 1186 -331 1196 -304 1196 c 0
 -293 1196 -283 1195 -274 1192 c 0
 -265 1186 -257 1183 -252 1177 c 0
 -248 1173 -244 1170 -242 1169 c 1
 -239 1173 -232 1177 -223 1186 c 0
 -213 1193 -200 1196 -186 1196 c 0
 -160 1196 -139 1186 -128 1169 c 0
 -116 1150 -110 1127 -110 1096 c 0
 -110 1073 -116 1050 -129 1025 c 1
 -123 1030 -113 1034 -102 1043 c 0
 -88 1050 -78 1061 -72 1073 c 0
 -59 1095 -52 1116 -52 1140 c 0
 -52 1154 -54 1169 -58 1183 c 1
 -10 1199 l 1
 -7 1189 -4 1176 -4 1159 c 0
 -4 1114 -16 1076 -38 1045 c 0
 -65 1005 -122 985 -202 985 c 1
 -193 996 -184 1011 -173 1025 c 0
 -162 1043 -155 1061 -154 1086 c 0
 -154 1106 -157 1122 -162 1134 c 0
 -167 1146 -178 1151 -194 1151 c 0
 -206 1151 -215 1148 -223 1140 c 0
 -231 1132 -238 1125 -239 1121 c 1
 -241 1125 -248 1132 -257 1140 c 0
 -267 1148 -280 1151 -297 1151 c 0
 -310 1151 -320 1147 -329 1138 c 0
 -338 1130 -341 1116 -341 1101 c 1
 -339 1102 -335 1105 -328 1108 c 0
 -323 1109 -315 1111 -304 1111 c 0
 -283 1111 -268 1105 -257 1093 c 0
 -246 1080 -239 1063 -239 1043 c 0
 -239 1028 -246 1012 -260 999 c 0
 -273 986 -287 980 -304 980 c 0
-304 1082 m 0
 -316 1082 -326 1079 -331 1070 c 0
 -338 1061 -341 1054 -341 1045 c 0
 -341 1035 -338 1028 -331 1021 c 0
 -326 1012 -316 1009 -304 1009 c 0
 -293 1009 -283 1012 -277 1021 c 0
 -273 1025 -268 1034 -268 1045 c 0
 -268 1056 -273 1063 -277 1072 c 0
 -283 1079 -293 1082 -304 1082 c 0
EndSplineSet
Substitution: 0 65534 'loww' uni0E4A.low
Substitution: 0 65534 'amni' uni0E4D
EndChar
StartChar: uni0E4B
Encoding: 202 3659 203
OldEncoding: 3659
Width: 0
Flags: W
HStem: 1064 57<-252 -151 -88 13>
VStem: -151 63<985 1064 1121 1202>
AnchorPoint: "AboveMark" -120.35 965.7 mark 0
Fore
-151 1064 m 1
 -252 1064 l 1
 -252 1121 l 1
 -151 1121 l 1
 -151 1202 l 1
 -88 1202 l 1
 -88 1121 l 1
 13 1121 l 1
 13 1064 l 5
 -88 1064 l 1
 -88 985 l 1
 -151 985 l 1
 -151 1064 l 1
EndSplineSet
Substitution: 0 65534 'loww' uni0E4B.low
Substitution: 0 65534 'amni' uni0E4D
EndChar
StartChar: uni0E4C
Encoding: 203 3660 204
OldEncoding: 3660
Width: 0
Flags: W
HStem: 916 44<-152.267 -142.031 -142 -142 -142 -142 -142 -142>
VStem: -248 71<995 1016> -106 39<991 997>
AnchorPoint: "AboveMark" -142.1 916.4 mark 0
Fore
-202 1034 m 0
 -200 1038 -193 1047 -186 1056 c 0
 -175 1063 -161 1067 -142 1069 c 1
 -119 1067 -102 1060 -87 1045 c 0
 -74 1031 -67 1014 -67 993 c 0
 -67 973 -74 956 -87 941 c 0
 -100 925 -117 916 -142 916 c 0
 -175 915 -202 925 -219 944 c 0
 -238 961 -248 985 -248 1016 c 0
 -248 1041 -242 1061 -231 1082 c 0
 -219 1099 -204 1114 -184 1124 c 0
 -162 1132 -135 1138 -97 1140 c 0
 -59 1143 -33 1147 -16 1154 c 0
 0 1159 9 1174 9 1199 c 1
 58 1199 l 1
 58 1174 51 1157 38 1143 c 0
 26 1127 12 1118 -4 1112 c 0
 -25 1105 -52 1099 -88 1098 c 0
 -123 1096 -149 1092 -167 1085 c 0
 -186 1076 -197 1060 -202 1034 c 0
-142 1030 m 0
 -165 1030 -177 1018 -177 995 c 0
 -177 986 -174 979 -167 972 c 0
 -162 963 -154 960 -142 960 c 0
 -133 960 -125 963 -116 970 c 1
 -110 979 -106 986 -106 995 c 0
 -106 1005 -110 1012 -116 1019 c 0
 -123 1025 -130 1030 -142 1030 c 0
EndSplineSet
Substitution: 0 65534 'loww' uni0E4C.low
EndChar
StartChar: uni0E4D
Encoding: 204 3661 205
OldEncoding: 3661
Width: 0
Flags: W
HStem: 626 45<-193 -161.5> 782 46<-193 -161.5>
VStem: -278 46<714 741> -122 45<714 741.5>
AnchorPoint: "AboveMark" -176.9 936.7 basemark 0
AnchorPoint: "AboveBase" -55.0996 652.5 mark 0
Fore
-177 626 m 0
 -209 626 -232 635 -251 657 c 0
 -268 677 -278 700 -278 728 c 0
 -278 754 -268 777 -251 796 c 0
 -232 818 -209 828 -177 828 c 0
 -146 828 -122 818 -103 798 c 0
 -86 779 -77 755 -77 728 c 0
 -77 700 -86 676 -103 655 c 0
 -122 635 -146 626 -177 626 c 0
-177 782 m 0
 -194 782 -209 777 -218 766 c 0
 -228 754 -232 742 -232 728 c 0
 -232 713 -228 700 -218 689 c 0
 -209 677 -194 671 -177 671 c 0
 -160 671 -146 677 -136 689 c 0
 -126 700 -122 713 -122 728 c 0
 -122 735 -123 744 -128 753 c 0
 -133 760 -139 768 -148 773 c 0
 -155 779 -165 782 -177 782 c 0
EndSplineSet
Substitution: 0 65534 'high' uni0E4D.high
Substitution: 0 65534 'am04' uni0E4B
Substitution: 0 65534 'am03' uni0E4A
Substitution: 0 65534 'am02' uni0E49
Substitution: 0 65534 'am01' uni0E48
EndChar
StartChar: uni0E4E
Encoding: 205 3662 206
OldEncoding: 3662
Width: 0
VWidth: 2048
Flags: W
HStem: 679 39<-307 -283> 860 64<-281 -265> 972 56<-119 -100>
VStem: -412 73<774 790>
AnchorPoint: "AboveBase" -55.0996 652.5 mark 0
Fore
-12 928 m 2
 -13 929 l 2
 -20 938 -29 947 -41 957 c 0
 -52 967 -68 972 -90 972 c 2
 -100 972 l 2
 -115 972 -128 966 -139 954 c 0
 -152 944 -162 929 -168 911 c 1
 -173 890 l 1
 -173 882 -171 871 -167 866 c 2
 -157 841 l 1
 -154 832 l 1
 -152 822 l 1
 -152 819 -154 816 -157 812 c 1
 -168 809 l 1
 -175 809 -180 812 -181 819 c 1
 -197 840 -209 853 -219 854 c 0
 -229 858 -244 860 -265 860 c 0
 -278 860 -294 856 -310 845 c 0
 -325 834 -332 819 -338 805 c 1
 -339 783 l 1
 -339 766 -335 751 -326 740 c 0
 -318 726 -306 719 -290 718 c 2
 -283 718 l 2
 -270 718 -260 719 -246 726 c 0
 -235 732 -225 740 -219 747 c 1
 -228 713 l 1
 -246 690 -274 679 -307 679 c 1
 -338 682 l 1
 -362 689 -380 703 -393 722 c 0
 -406 744 -412 766 -412 790 c 0
 -412 812 -407 832 -400 848 c 0
 -387 873 -370 892 -349 905 c 0
 -328 918 -304 924 -281 924 c 0
 -257 924 -236 918 -215 905 c 1
 -216 925 l 1
 -216 935 -215 947 -213 956 c 0
 -212 967 -209 976 -202 986 c 0
 -194 998 -184 1008 -165 1018 c 0
 -149 1024 -135 1028 -119 1028 c 0
 -97 1028 -74 1024 -54 1014 c 0
 -33 1005 -16 990 -4 972 c 1
 4 953 l 2
 10 944 12 935 12 929 c 0
 12 922 9 921 3 921 c 0
 -1 921 -7 922 -12 928 c 2
EndSplineSet
EndChar
StartChar: uni0E4F
Encoding: 206 3663 207
OldEncoding: 3663
Width: 590
VWidth: 2048
Flags: W
HStem: 0 62<278 302> 138 62<278 286> 431 61<278 286> 567 62<278 302>
VStem: -35 63<315 337> 103 64<315 321> 390 64<315 321> 532 61<315 337>
Fore
278 431 m 1
 216 431 167 378 167 315 c 0
 167 252 216 200 278 200 c 0
 341 200 390 252 390 315 c 1
 390 378 341 432 278 431 c 1
278 0 m 0
 181 0 104 33 49 96 c 0
 -7 160 -35 232 -35 315 c 0
 -35 402 -7 476 48 538 c 0
 102 600 178 629 278 629 c 0
 344 629 403 615 451 584 c 1
 500 554 534 515 557 468 c 0
 580 420 593 370 593 315 c 0
 593 260 580 209 557 162 c 0
 534 115 500 75 451 45 c 1
 403 14 344 0 278 0 c 0
278 567 m 0
 200 567 138 542 93 493 c 0
 49 444 28 383 28 315 c 0
 28 274 36 232 54 193 c 0
 72 154 102 123 141 100 c 1
 178 74 225 62 278 62 c 0
 332 62 378 74 418 100 c 0
 454 122 483 152 505 191 c 1
 522 232 532 274 532 315 c 0
 532 355 522 396 505 438 c 1
 481 478 454 509 418 532 c 0
 378 555 332 567 278 567 c 0
278 138 m 0
 242 138 210 146 181 164 c 0
 154 181 136 204 123 231 c 0
 110 257 103 287 103 315 c 0
 103 342 110 373 123 400 c 0
 135 426 154 447 181 465 c 0
 212 481 242 492 278 492 c 0
 315 492 345 481 376 465 c 0
 403 450 420 428 434 400 c 0
 447 374 454 344 454 315 c 0
 454 268 439 228 409 191 c 0
 377 155 332 138 278 138 c 0
EndSplineSet
EndChar
StartChar: uni0E50
Encoding: 207 3664 208
OldEncoding: 3664
Width: 580
Flags: W
HStem: -7 65<290 311> 339 64<290 311>
VStem: 54 74<199 201> 452 74<199 201>
Fore
290 -7 m 0
 216 -7 157 14 116 55 c 0
 75 97 54 144 54 199 c 0
 54 232 64 267 81 299 c 0
 100 329 126 355 162 376 c 0
 199 393 241 403 290 403 c 0
 339 403 381 393 418 376 c 0
 454 355 481 329 500 299 c 0
 518 267 526 232 526 199 c 0
 526 164 516 129 499 99 c 0
 480 67 454 42 418 23 c 0
 383 4 341 -7 290 -7 c 0
290 339 m 0
 239 339 199 326 171 299 c 0
 142 270 128 236 128 199 c 0
 128 161 142 128 171 100 c 0
 199 72 239 58 290 58 c 0
 341 58 381 72 409 100 c 0
 438 128 452 161 452 199 c 0
 452 236 438 270 409 299 c 0
 381 326 341 339 290 339 c 0
EndSplineSet
EndChar
StartChar: uni0E51
Encoding: 208 3665 209
OldEncoding: 3665
Width: 580
Flags: W
HStem: 25 61<220 248> 236 44<290 292> 355 61<290 303>
VStem: 191 55<180 193> 335 61<174 193> 476 63<180 200>
Fore
126 204 m 0
 126 174 136 146 157 122 c 0
 178 97 203 86 232 86 c 0
 251 86 270 90 290 102 c 1
 276 102 255 106 231 116 c 0
 206 128 193 149 191 180 c 0
 191 210 202 235 222 252 c 0
 239 270 262 280 290 280 c 0
 325 280 352 270 370 251 c 0
 389 231 396 204 396 174 c 0
 396 146 390 119 376 97 c 0
 362 75 344 58 319 45 c 0
 294 30 267 25 239 25 c 0
 188 25 146 41 115 72 c 0
 84 103 64 148 62 204 c 0
 61 244 74 280 96 312 c 0
 116 344 142 370 177 389 c 0
 212 406 249 416 290 416 c 0
 367 415 428 392 471 351 c 0
 516 307 539 251 539 180 c 0
 539 133 529 91 509 59 c 0
 489 25 458 -9 419 -41 c 1
 378 -7 l 1
 442 48 476 110 476 180 c 0
 476 231 458 274 428 306 c 0
 394 339 349 355 290 355 c 0
 242 355 204 341 174 313 c 0
 144 286 128 249 126 204 c 0
290 236 m 0
 276 236 265 231 257 223 c 0
 249 215 246 203 246 191 c 0
 246 180 249 171 257 162 c 0
 265 152 276 148 290 148 c 0
 304 148 315 152 323 162 c 0
 331 171 335 180 335 191 c 0
 335 203 331 215 323 223 c 0
 315 231 304 236 290 236 c 0
EndSplineSet
EndChar
StartChar: uni0E52
Encoding: 209 3666 210
OldEncoding: 3666
Width: 710
Flags: W
HStem: 0 62<252 510> 116 48<312 318> 260 47<301.731 318> 345 58<332 358>
VStem: 86 68<150 465> 199 65<212 232> 358 48<207 225> 574 68<129 293>
Fore
199 232 m 0
 199 267 204 297 218 323 c 0
 231 349 249 368 270 381 c 0
 293 396 318 403 342 403 c 0
 370 403 393 396 409 386 c 0
 425 374 436 364 441 355 c 1
 442 364 451 376 465 387 c 0
 478 400 502 406 532 406 c 0
 568 406 596 394 615 370 c 0
 632 345 642 319 642 293 c 2
 642 129 l 2
 642 86 632 52 610 30 c 0
 590 10 552 0 499 0 c 2
 270 0 l 2
 202 0 154 13 126 41 c 0
 99 68 86 113 86 174 c 2
 86 451 l 2
 86 476 81 496 77 513 c 0
 72 529 61 541 45 547 c 1
 102 594 l 1
 136 574 154 536 154 484 c 2
 154 171 l 2
 154 136 162 109 180 90 c 0
 197 72 226 62 267 62 c 2
 499 62 l 2
 528 62 547 67 558 78 c 0
 568 88 574 104 574 129 c 2
 574 274 l 2
 574 320 557 345 522 345 c 0
 500 345 481 338 468 319 c 0
 454 302 445 286 441 274 c 1
 439 278 434 287 426 299 c 0
 418 307 406 318 392 329 c 0
 377 341 362 345 345 345 c 0
 328 345 312 341 299 331 c 0
 286 319 276 307 270 293 c 0
 273 297 277 300 283 303 c 0
 290 306 300 307 312 307 c 0
 331 307 349 303 364 294 c 0
 378 287 389 276 396 261 c 0
 403 246 406 231 406 213 c 0
 406 186 399 162 381 144 c 0
 365 126 342 116 312 116 c 0
 278 116 252 128 231 149 c 0
 210 171 199 199 199 232 c 0
312 260 m 0
 297 260 286 254 277 246 c 0
 268 238 264 226 264 212 c 0
 264 200 268 188 277 178 c 0
 286 168 297 164 312 164 c 0
 326 164 338 168 345 178 c 0
 354 187 358 199 358 212 c 0
 358 225 355 236 348 246 c 0
 339 254 326 260 312 260 c 0
EndSplineSet
EndChar
StartChar: uni0E53
Encoding: 210 3667 211
OldEncoding: 3667
Width: 682
Flags: W
HStem: -7 61<180 194> 151 51<178 193> 355 61<221 238 468 479>
VStem: 62 71<186 219> 236 54<90.7028 105> 328 72<0 250> 552 69<168 222>
Fore
229 355 m 0
 191 355 165 339 152 307 c 0
 139 276 133 235 133 186 c 1
 136 187 142 190 152 194 c 0
 162 200 175 202 191 202 c 0
 223 202 248 191 265 173 c 0
 281 152 290 129 290 102 c 0
 290 74 280 48 261 26 c 0
 242 4 215 -7 180 -7 c 0
 139 -9 110 12 91 49 c 0
 72 87 62 142 62 219 c 0
 62 254 68 287 81 316 c 0
 96 345 115 370 139 389 c 0
 164 406 191 416 226 416 c 0
 267 416 299 406 319 386 c 0
 341 364 354 345 358 331 c 1
 358 339 368 355 389 380 c 0
 406 405 434 416 468 416 c 0
 522 416 560 394 584 354 c 0
 609 312 622 255 621 188 c 0
 619 106 605 45 581 0 c 1
 506 0 l 1
 519 14 531 41 539 78 c 0
 547 116 552 155 552 199 c 0
 552 246 545 283 532 312 c 0
 519 341 499 355 468 355 c 0
 423 355 400 319 400 246 c 2
 400 0 l 1
 328 0 l 1
 328 246 l 2
 328 276 319 302 303 323 c 0
 286 344 261 355 229 355 c 0
188 151 m 0
 174 151 162 146 154 136 c 0
 146 128 141 116 141 103 c 0
 141 90 146 78 154 68 c 0
 164 59 175 54 188 54 c 0
 203 54 216 59 225 68 c 0
 232 77 236 88 236 103 c 0
 236 115 232 126 225 136 c 0
 216 146 204 151 188 151 c 0
EndSplineSet
EndChar
StartChar: uni0E54
Encoding: 211 3668 212
OldEncoding: 3668
Width: 682
Flags: W
HStem: 0 65<269 312> 72 85<345 376> 246 51<345 351> 335 58<445 474> 342 61<312 336>
VStem: 62 71<184 218> 239 61<202 211> 390 54<202 211>
Fore
376 72 m 0xef
 370 72 345 84 304 106 c 0
 261 129 239 161 239 202 c 0
 239 226 249 249 270 268 c 0
 290 287 315 297 345 297 c 0
 377 297 402 287 418 268 c 0
 436 249 444 226 444 202 c 0
 444 177 438 160 426 148 c 0
 415 136 405 129 396 126 c 1
 420 109 445 97 468 93 c 0
 490 90 515 88 542 84 c 0
 567 80 594 68 626 51 c 1
 597 -7 l 1
 577 12 538 22 478 22 c 0
 457 22 426 17 387 10 c 0
 349 3 312 0 274 0 c 0
 236 0 202 9 171 23 c 0
 138 38 112 61 91 91 c 0
 72 123 62 161 62 209 c 0
 62 246 74 278 96 307 c 0
 116 338 144 361 181 377 c 0
 219 394 264 403 312 403 c 0xef
 320 403 338 402 362 400 c 0
 403 394 431 393 445 393 c 0
 487 393 521 400 545 415 c 0
 570 429 589 454 600 489 c 0
 610 522 619 571 625 635 c 1
 696 626 l 1
 696 594 690 551 676 496 c 0
 660 442 634 400 597 373 c 0
 564 348 522 335 474 335 c 0xf7
 458 335 439 336 412 339 c 0
 383 341 358 342 335 342 c 0
 277 344 229 329 191 307 c 0
 152 286 133 249 133 199 c 0
 133 110 187 65 297 65 c 0
 325 65 351 67 376 72 c 0xef
345 246 m 0
 331 246 319 241 312 232 c 0
 303 225 300 213 300 202 c 0
 300 190 303 180 312 171 c 0
 319 162 331 157 345 157 c 0
 361 157 370 162 378 171 c 0
 387 178 390 190 390 202 c 0
 390 215 387 226 378 235 c 0
 370 242 361 246 345 246 c 0
EndSplineSet
EndChar
StartChar: uni0E55
Encoding: 212 3669 213
OldEncoding: 3669
Width: 682
Flags: W
HStem: 0 65<269 312> 72 85<345 376> 246 51<345 351> 332 62<431 471> 341 66<335 352> 496 56<335 349>
VStem: 62 71<184 218> 239 61<202 211> 249 54<450 459> 390 54<202 211>
Fore
447 457 m 0xeec0
 447 439 445 426 442 416 c 0
 438 406 434 400 431 394 c 1
 474 394 508 402 534 413 c 0
 560 425 581 450 596 483 c 0
 610 519 621 570 625 635 c 1
 696 626 l 1
 696 594 690 551 676 496 c 0
 660 442 634 400 597 373 c 0
 564 345 521 332 471 332 c 0xf6c0
 467 332 447 335 415 338 c 0
 383 339 355 341 335 341 c 0
 299 341 265 336 235 328 c 0
 203 318 178 303 161 281 c 0
 142 261 133 232 133 199 c 0
 133 110 187 65 297 65 c 0
 325 65 351 67 376 72 c 0
 370 72 345 84 304 106 c 0
 261 129 239 161 239 202 c 0xef40
 239 226 249 249 270 268 c 0
 290 287 315 297 345 297 c 0
 377 297 402 287 418 268 c 0
 436 249 444 226 444 202 c 0
 444 177 438 160 426 148 c 0
 415 136 405 129 396 126 c 1
 420 109 445 97 468 93 c 0
 490 90 515 88 542 84 c 0
 567 80 594 68 626 51 c 1
 597 -7 l 1
 577 12 538 22 478 22 c 0
 457 22 426 17 387 10 c 0
 349 3 312 0 274 0 c 0
 236 0 202 9 171 23 c 0
 138 38 112 61 91 91 c 0
 72 123 62 161 62 209 c 0
 62 249 74 281 96 310 c 0
 116 338 141 358 173 374 c 0
 203 389 232 396 264 400 c 1
 262 405 260 412 254 423 c 0
 251 434 249 445 249 457 c 0
 249 484 260 508 277 526 c 0
 297 544 320 552 349 552 c 0
 378 551 403 542 420 525 c 0
 439 506 447 484 447 457 c 0xeec0
348 496 m 0
 332 496 323 492 315 483 c 0
 306 476 303 464 303 452 c 0
 303 441 306 431 315 420 c 0
 323 413 332 407 348 407 c 0xeec0
 355 407 364 409 373 415 c 0
 377 419 381 425 387 431 c 0
 390 438 392 444 392 452 c 0
 392 465 389 477 380 484 c 0
 373 493 362 496 348 496 c 0
345 246 m 0
 331 246 319 241 312 232 c 0
 303 225 300 213 300 202 c 0xe740
 300 190 303 180 312 171 c 0
 319 162 331 157 345 157 c 0
 361 157 370 162 378 171 c 0
 387 178 390 190 390 202 c 0
 390 215 387 226 378 235 c 0
 370 242 361 246 345 246 c 0
EndSplineSet
EndChar
StartChar: uni0E56
Encoding: 213 3670 214
OldEncoding: 3670
Width: 522
Flags: W
HStem: -7 69<252 266> 178 54<188 199> 355 70<246 287>
VStem: 88 56<131 140> 232 58<131 141> 409 72<215 234>
Fore
260 62 m 1
 290 62 318 68 341 84 c 0
 364 97 381 115 393 138 c 0
 405 161 409 187 409 215 c 0
 409 242 403 267 390 289 c 0
 378 310 358 326 335 338 c 0
 310 349 280 355 246 355 c 1
 218 351 191 342 167 331 c 0
 142 318 125 307 113 300 c 1
 112 323 109 348 103 374 c 0
 99 399 90 426 81 455 c 0
 74 483 64 512 52 538 c 0
 41 563 30 583 22 597 c 1
 75 626 l 1
 87 610 103 577 122 522 c 0
 139 470 152 428 161 396 c 1
 210 415 252 425 287 425 c 0
 328 425 362 415 392 396 c 0
 420 378 444 352 458 320 c 0
 474 290 481 254 481 215 c 0
 481 162 470 119 447 87 c 0
 425 52 394 29 361 14 c 0
 326 0 290 -7 252 -7 c 0
 228 -7 202 0 177 12 c 0
 152 23 130 41 115 62 c 0
 97 84 88 109 88 136 c 0
 88 164 99 187 117 204 c 0
 138 223 161 232 188 232 c 0
 219 232 246 223 264 204 c 0
 283 184 290 161 290 133 c 0
 290 112 287 97 278 86 c 0
 270 74 264 67 260 62 c 1
188 178 m 0
 175 178 165 174 157 165 c 0
 149 155 144 146 144 135 c 0
 144 123 148 112 155 103 c 0
 164 93 175 88 188 88 c 0
 203 88 213 93 222 103 c 0
 229 112 232 123 232 135 c 0
 232 146 229 155 222 165 c 0
 213 174 203 178 188 178 c 0
EndSplineSet
EndChar
StartChar: uni0E57
Encoding: 214 3671 215
OldEncoding: 3671
Width: 716
Flags: W
HStem: -7 52<200 218> 135 49<200 218> 331 59<215 223 409 415>
VStem: 62 67<183 218> 255 48<77.8667 93> 287 55<236 249.937> 467 65<227 248> 596 59<407 413>
Fore
478 68 m 1xfb
 513 75 538 90 555 113 c 0
 574 135 584 162 590 193 c 0
 594 225 597 261 597 303 c 0
 597 315 597 332 597 354 c 0
 596 376 596 394 596 413 c 0
 596 458 600 496 606 528 c 0
 610 558 625 584 642 605 c 1
 696 570 l 1
 668 542 655 489 655 407 c 0
 655 390 655 376 657 361 c 0
 657 345 657 328 657 303 c 0
 657 249 652 203 644 165 c 0
 634 126 616 93 589 65 c 0
 570 48 545 30 516 17 c 0
 487 4 463 -3 444 -7 c 1
 400 41 l 1
 418 62 432 93 447 136 c 0
 461 177 467 213 467 248 c 0
 467 303 447 331 409 331 c 0
 389 331 373 320 361 300 c 0
 349 278 342 257 342 236 c 1
 287 236 l 1xf7
 287 257 280 278 268 300 c 0
 255 320 238 331 215 331 c 0
 187 331 165 318 151 293 c 0
 136 267 129 236 129 202 c 0
 129 177 133 157 138 144 c 1
 141 151 149 160 161 168 c 0
 173 178 188 184 212 184 c 0
 241 184 264 175 280 157 c 0
 294 139 303 116 303 91 c 0
 303 64 294 41 277 23 c 0
 260 3 235 -7 202 -7 c 0
 161 -7 126 16 102 61 c 0
 75 104 62 154 62 209 c 0
 62 257 77 300 106 336 c 0
 135 373 171 390 215 390 c 0
 246 390 270 383 286 368 c 0
 300 354 310 342 315 335 c 1
 318 342 326 354 341 368 c 0
 355 383 378 390 409 390 c 0
 454 390 487 376 505 344 c 0
 522 313 534 276 532 229 c 0
 532 191 525 160 512 130 c 0
 499 102 487 80 478 68 c 1xfb
210 135 m 0
 194 135 186 129 177 122 c 0
 168 112 165 102 165 90 c 0
 165 78 168 67 177 59 c 0
 186 49 194 45 210 45 c 0
 225 45 236 49 244 58 c 0
 252 65 255 77 255 90 c 0xfb
 255 102 252 113 244 122 c 0
 236 129 225 135 210 135 c 0
EndSplineSet
EndChar
StartChar: uni0E58
Encoding: 215 3672 216
OldEncoding: 3672
Width: 682
Flags: W
HStem: -10 55<450 467> 81 48<477 495> 126 67<219 249> 219 51<477 495> 315 61<461 495> 335 58<283 319>
VStem: 62 66<191 212> 174 54<81 98.8831> 387 54<165 183> 529 73<126 174> 577 62<441 519>
Fore
338 129 m 0xd3a0
 373 96 396 72 413 61 c 0
 429 49 445 45 463 45 c 0
 483 45 502 51 516 62 c 0
 531 74 539 90 541 113 c 1
 539 109 532 102 522 93 c 0
 513 86 500 81 481 81 c 0xd3a0
 457 81 434 90 415 106 c 0
 396 123 387 146 387 174 c 0
 387 202 396 225 415 242 c 0
 432 261 455 270 481 270 c 0
 505 270 526 264 544 251 c 0
 563 239 577 222 587 199 c 0
 596 175 602 151 602 126 c 0
 602 84 590 51 566 26 c 0
 541 1 506 -10 465 -10 c 0
 434 -10 406 -1 380 13 c 0
 354 28 320 58 283 102 c 0
 270 117 260 126 249 126 c 0xb3c0
 235 126 228 112 228 81 c 0
 228 49 236 22 252 0 c 1
 171 0 l 1
 139 30 115 62 93 93 c 0
 72 123 62 162 62 212 c 1
 71 273 96 316 136 348 c 0
 177 378 228 393 291 393 c 0xd7c0
 316 393 336 392 349 390 c 0
 370 387 389 383 403 381 c 0
 418 380 431 378 444 377 c 0
 458 376 471 376 484 376 c 0
 513 376 532 380 547 389 c 0
 563 399 571 415 574 438 c 0
 576 458 577 477 577 492 c 0
 577 545 571 583 564 605 c 1
 632 605 l 1
 638 593 639 539 639 441 c 0
 639 394 626 362 600 342 c 0
 576 325 539 315 493 315 c 0x9ba0
 457 315 418 319 376 328 c 0
 344 332 323 335 307 335 c 0
 264 335 228 325 199 310 c 0
 167 293 144 270 133 236 c 0
 129 225 128 213 128 202 c 0
 128 180 133 157 142 133 c 0
 151 109 162 91 174 81 c 1xd7a0
 174 148 188 186 219 193 c 1xb3a0
 246 193 268 187 287 175 c 0
 304 164 320 148 338 129 c 0xd3a0
484 219 m 0
 470 219 461 215 452 204 c 0
 444 197 441 187 441 175 c 0
 441 164 444 152 452 142 c 0
 461 135 470 129 484 129 c 0
 500 129 509 135 518 142 c 0
 526 152 529 162 529 174 c 0xd3c0
 529 186 526 197 518 204 c 0
 509 215 500 219 484 219 c 0
EndSplineSet
EndChar
StartChar: uni0E59
Encoding: 216 3673 217
OldEncoding: 3673
Width: 620
Flags: W
HStem: -10 65<252 266> 144 55<264 266> 300 64<503 519> 326 64<227 254>
VStem: 54 63<189 202> 167 51<98 119> 307 55<100 113> 529 63<421 465>
Fore
252 -10 m 0xdf
 215 -10 175 4 136 30 c 0
 97 58 72 91 62 136 c 0
 58 161 54 181 54 200 c 0
 54 241 64 278 86 310 c 0
 106 341 138 364 178 378 c 0
 200 387 222 390 241 390 c 0xdf
 274 390 300 383 320 368 c 0
 342 354 357 342 365 335 c 1
 367 377 383 399 413 399 c 0
 432 399 451 392 467 380 c 0
 481 368 493 364 503 364 c 0
 521 364 529 386 529 426 c 0
 529 468 525 509 515 547 c 0
 505 584 499 605 494 605 c 2
 564 605 l 1
 568 594 574 579 580 554 c 0
 584 529 592 500 592 465 c 0
 593 412 587 370 579 342 c 0
 568 315 550 300 519 300 c 0xef
 506 300 490 306 470 318 c 0
 451 329 438 335 431 335 c 0
 423 332 418 323 418 307 c 0
 418 287 423 268 431 255 c 2
 560 22 l 1
 494 -7 l 1
 355 255 l 2
 344 277 328 294 306 307 c 0
 286 319 262 326 238 326 c 0
 203 326 177 315 154 290 c 0
 130 264 117 232 117 191 c 0
 117 171 123 149 133 129 c 0
 142 109 155 93 171 86 c 0
 168 86 167 97 167 119 c 1
 171 141 180 161 199 175 c 0
 213 190 236 199 264 199 c 0
 291 199 315 190 332 175 c 0
 351 161 362 139 362 113 c 0
 364 74 352 45 332 23 c 0
 313 1 287 -10 252 -10 c 0xdf
264 144 m 0
 249 144 238 139 229 130 c 0
 222 123 218 112 218 100 c 0
 218 88 223 78 231 68 c 0
 239 61 249 55 264 55 c 0
 278 55 289 61 297 68 c 0
 304 77 307 88 307 100 c 0
 307 113 304 125 297 133 c 0
 289 141 278 144 264 144 c 0
EndSplineSet
EndChar
StartChar: uni0E5A
Encoding: 217 3674 218
OldEncoding: 3674
Width: 668
VWidth: 2048
Flags: W
HStem: -20 58<277 310> 294 61<219 232> 432 51<156 163> 564 70<494 513> 589 49<157 163>
VStem: 33 73<516 536> 210 51<536 542> 374 77<133 394> 538 78<104 528>
Fore
157 589 m 0xef80
 130 590 113 571 106 536 c 1
 106 506 123 489 157 483 c 1
 174 483 187 489 197 499 c 1
 203 509 206 521 210 536 c 1
 210 570 191 589 157 589 c 0xef80
441 600 m 1
 478 622 l 2
 487 629 500 632 513 634 c 1
 551 634 580 621 597 596 c 0
 605 590 609 577 613 558 c 1
 616 528 l 1
 616 135 l 2
 616 62 581 13 516 -12 c 1
 480 -22 l 1
 447 36 l 1
 468 41 l 2
 478 45 487 48 493 52 c 2
 521 75 l 2
 529 86 536 96 538 104 c 1
 538 522 l 2
 538 536 536 545 531 550 c 0
 525 558 512 564 494 564 c 0xf780
 476 564 461 555 451 539 c 1
 451 142 l 2
 451 100 439 62 413 30 c 0
 387 -1 352 -20 310 -20 c 1
 277 38 l 1
 302 38 326 51 351 74 c 0
 365 90 374 113 374 144 c 2
 374 394 l 1
 355 358 336 335 315 319 c 0
 291 303 262 294 223 294 c 0
 161 294 113 316 78 361 c 0
 48 400 33 452 33 516 c 1
 36 550 49 579 74 602 c 0
 99 626 126 638 160 638 c 0
 175 638 190 635 199 631 c 1
 239 621 261 592 261 539 c 0
 261 509 251 483 232 464 c 0
 215 444 190 432 161 432 c 0
 142 432 126 438 112 444 c 1
 116 425 l 1
 126 399 l 1
 133 387 139 377 149 373 c 1
 187 358 l 1
 219 355 l 1
 242 355 264 364 281 378 c 1
 307 407 l 1
 336 455 l 2
 345 474 352 493 357 518 c 1
 364 606 l 1
 367 626 378 635 400 635 c 0
 409 635 418 634 425 629 c 1
 434 615 l 1
 441 600 l 1
EndSplineSet
EndChar
StartChar: uni0E5B
Encoding: 218 3675 219
OldEncoding: 3675
Width: 1180
VWidth: 2048
Flags: W
HStem: 51 58<251 269> 193 56<254 260> 474 20G<619 647> 528 56<226 239>
VStem: 30 57<295 342> 146 51<306 320> 235 52<320 329.509> 342 57<370 408>
Fore
1164 304 m 1
 1164 261 l 1
 931 255 l 1
 921 257 911 262 902 268 c 1
 883 286 l 1
 874 299 l 1
 864 313 l 1
 808 138 l 1
 757 313 l 1
 696 97 l 1
 638 319 l 1
 596 106 l 1
 568 106 l 1
 506 373 l 1
 494 319 481 277 470 246 c 0
 450 190 431 152 415 130 c 0
 373 77 316 51 251 51 c 0
 181 51 128 78 87 138 c 0
 49 190 30 251 30 320 c 0
 30 387 48 445 78 496 c 0
 115 555 165 584 226 584 c 0
 281 584 325 566 355 526 c 0
 383 490 399 444 399 389 c 0
 399 339 387 297 365 260 c 0
 339 215 303 193 257 193 c 0
 225 193 197 209 174 238 c 1
 155 268 146 297 146 320 c 0
 146 341 152 361 167 378 c 0
 178 399 197 406 216 406 c 0
 236 406 252 399 267 378 c 0
 280 361 287 341 287 320 c 0
 287 290 276 267 254 249 c 1
 276 249 297 262 316 289 c 1
 335 319 342 354 342 390 c 0
 342 481 304 528 226 528 c 0
 184 528 149 503 122 452 c 0
 99 409 87 365 87 319 c 0
 87 267 102 219 128 178 c 0
 160 130 200 109 251 109 c 0
 315 109 365 144 399 219 c 0
 409 246 432 316 464 429 c 1
 494 541 l 1
 521 541 l 1
 579 291 l 1
 619 494 l 1
 647 494 l 1
 697 293 l 1
 754 493 l 1
 809 310 l 1
 850 445 l 1
 896 361 l 2
 915 326 932 307 950 304 c 1
 1018 303 l 1
 1164 304 l 1
216 355 m 1
 210 351 204 345 203 342 c 1
 197 319 l 1
 197 300 203 289 216 287 c 1
 222 289 226 291 228 294 c 1
 235 320 l 1
 235 329 232 338 229 344 c 0
 226 352 222 355 216 355 c 1
EndSplineSet
EndChar
StartChar: endash
Encoding: 220 8211 120
OldEncoding: 8211
Width: 871
VWidth: 2048
Flags: W
HStem: 280 46<-29 850>
Fore
-29 280 m 1
 -29 326 l 1
 850 326 l 1
 850 280 l 1
 -29 280 l 1
EndSplineSet
EndChar
StartChar: emdash
Encoding: 221 8212 121
OldEncoding: 8212
Width: 1744
VWidth: 2048
Flags: W
HStem: 280 46<-81 1723>
Fore
-81 280 m 1
 -81 326 l 1
 1723 326 l 1
 1723 280 l 1
 -81 280 l 1
EndSplineSet
EndChar
StartChar: quoteleft
Encoding: 222 8216 115
OldEncoding: 8216
Width: 197
VWidth: 2048
Flags: W
Fore
-10 670 m 0
 -12 721 3 761 33 789 c 0
 62 816 96 832 130 840 c 1
 148 840 155 835 155 829 c 0
 155 828 154 824 151 821 c 1
 136 816 117 805 93 789 c 0
 68 773 55 754 52 731 c 1
 67 734 l 1
 88 740 l 1
 138 734 162 708 164 663 c 0
 164 641 157 621 142 606 c 0
 130 590 112 581 88 581 c 0
 26 581 -7 610 -10 670 c 0
EndSplineSet
EndChar
StartChar: quoteright
Encoding: 223 8217 116
OldEncoding: 8217
Width: 197
VWidth: 2048
Flags: W
Fore
186 735 m 4
 186 683 171 645 141 618 c 4
 112 592 78 576 42 568 c 5
 26 568 16 571 16 579 c 4
 16 580 17 583 23 587 c 5
 36 592 55 603 80 619 c 4
 103 632 117 652 123 677 c 5
 106 673 l 5
 87 668 l 5
 38 676 13 700 13 747 c 4
 13 768 20 786 35 802 c 4
 46 818 65 824 90 824 c 4
 151 824 184 795 186 735 c 4
EndSplineSet
EndChar
StartChar: quotedblleft
Encoding: 224 8220 117
OldEncoding: 8220
Width: 369
VWidth: 2048
Flags: W
Fore
193 671 m 0
 193 722 206 764 236 792 c 0
 265 819 299 835 335 842 c 1
 351 842 361 840 361 832 c 1
 355 824 l 1
 354 822 l 2
 342 819 323 808 297 790 c 0
 274 777 260 757 255 732 c 1
 270 737 l 1
 290 741 l 1
 341 735 365 710 367 664 c 0
 367 642 361 625 345 609 c 0
 335 593 315 584 291 584 c 0
 229 583 197 613 193 671 c 0
-10 670 m 4
 -12 721 3 761 33 789 c 4
 62 816 96 832 130 840 c 5
 148 840 155 835 155 829 c 4
 155 828 154 824 151 821 c 5
 136 816 117 805 93 789 c 4
 68 773 55 754 52 731 c 5
 67 734 l 5
 88 740 l 5
 138 734 162 708 164 663 c 4
 164 641 157 621 142 606 c 4
 130 590 112 581 88 581 c 4
 26 581 -7 610 -10 670 c 4
EndSplineSet
EndChar
StartChar: quotedblright
Encoding: 225 8221 118
OldEncoding: 8221
Width: 369
VWidth: 2048
Flags: W
Fore
186 735 m 4
 186 684 171 645 141 618 c 4
 112 592 78 576 42 568 c 5
 25 568 16 571 16 579 c 4
 16 580 17 583 22 587 c 5
 35 592 54 603 81 619 c 4
 104 632 117 652 123 677 c 5
 109 673 l 5
 87 668 l 5
 38 676 13 700 13 747 c 4
 13 768 20 786 35 802 c 4
 46 818 65 824 88 824 c 4
 151 824 184 795 186 735 c 4
389 735 m 4
 389 683 376 645 344 618 c 4
 315 592 281 576 246 568 c 5
 229 568 222 571 222 579 c 4
 222 580 223 583 226 587 c 5
 239 592 260 603 286 619 c 4
 307 632 320 652 326 677 c 5
 312 673 l 5
 290 668 l 5
 241 676 216 700 216 747 c 4
 216 768 223 786 238 802 c 4
 249 818 268 824 291 824 c 4
 355 824 387 795 389 735 c 4
EndSplineSet
EndChar
StartChar: bullet
Encoding: 226 8226 119
OldEncoding: 8226
Width: 294
VWidth: 2048
Flags: W
Fore
139 167 m 0
 90 167 51 184 23 215 c 0
 -4 246 -17 281 -17 325 c 0
 -17 352 -12 378 0 402 c 0
 14 426 33 445 54 461 c 0
 77 476 106 481 139 481 c 0
 174 481 203 476 226 461 c 0
 249 445 267 426 280 403 c 1
 291 378 297 352 297 325 c 0
 297 281 283 244 255 213 c 0
 229 184 190 167 139 167 c 0
EndSplineSet
EndChar
StartChar: ellipsis
Encoding: 227 8230 103
OldEncoding: 8230
Width: 858
VWidth: 2048
Flags: W
VStem: 38 143<45 58>
Fore
748 45 m 1
 748 3 724 -17 677 -23 c 1
 634 -23 609 0 605 45 c 1
 605 93 628 117 677 117 c 0
 696 117 715 112 728 97 c 1
 740 84 745 67 748 45 c 1
465 45 m 1
 465 3 442 -20 393 -23 c 1
 351 -23 326 0 320 45 c 1
 320 93 345 117 393 117 c 0
 413 117 431 112 444 97 c 1
 457 81 464 65 465 45 c 1
181 45 m 0
 181 0 160 -23 110 -23 c 0
 62 -23 38 0 38 45 c 0
 38 93 62 117 110 117 c 0
 160 117 181 93 181 45 c 0
EndSplineSet
EndChar
StartChar: uni0E10.descless
Encoding: 228 63232 98
OldEncoding: 63232
Width: 527
Flags: W
HStem: 0 21G<362 444> 141 49<204 214> 291 51<204 214> 463 59<442 454> 512 55<253 272>
VStem: 104 50<231.693 244> 376 68<136 293>
Fore
204 342 m 0xee
 226 342 246 336 265 325 c 0
 283 313 299 297 307 277 c 2
 376 136 l 1
 376 270 l 2
 376 312 368 339 354 354 c 0
 341 368 316 381 280 393 c 0
 241 405 202 413 161 419 c 0
 119 428 90 432 68 434 c 1
 90 471 117 503 149 529 c 0
 180 554 216 567 255 567 c 0xee
 277 567 297 566 312 563 c 0
 328 557 345 552 367 544 c 0
 389 536 405 531 416 528 c 0
 428 525 441 522 452 522 c 0
 471 522 492 528 509 536 c 1
 522 478 l 1
 494 467 470 463 450 463 c 0xf6
 434 463 420 464 409 467 c 0
 399 470 381 477 357 484 c 0
 335 493 316 500 302 505 c 0
 287 509 273 512 257 512 c 0
 241 512 225 506 206 499 c 0
 188 489 180 480 178 476 c 1
 186 474 197 471 212 467 c 0
 226 463 246 457 270 451 c 0
 294 445 313 441 325 438 c 0
 377 425 412 406 425 383 c 0
 439 358 444 323 444 274 c 2
 444 0 l 1
 362 0 l 1
 357 35 345 68 329 106 c 0
 313 144 300 173 290 190 c 1
 286 175 274 164 257 154 c 0
 242 146 225 141 204 141 c 0
 174 141 149 151 130 171 c 0
 113 191 104 215 104 241 c 0
 104 268 113 293 130 313 c 0
 149 332 174 342 204 342 c 0xee
204 190 m 0
 222 190 235 194 242 204 c 0
 251 216 255 228 255 241 c 0
 255 255 251 267 242 277 c 0
 235 287 222 291 204 291 c 0
 190 291 177 287 168 277 c 0
 160 267 154 255 154 241 c 0
 154 228 160 216 168 206 c 0
 177 194 190 190 204 190 c 0
EndSplineSet
EndChar
StartChar: uni0E34.left
Encoding: 229 63233 99
OldEncoding: 63233
Width: 0
Flags: W
HStem: 708 49<-510 -449> 834 50<-419 -403>
Fore
-403 884 m 1
 -329 874 -278 847 -248 802 c 0
 -218 755 -197 706 -186 652 c 1
 -203 658 -231 668 -270 680 c 0
 -310 692 -351 697 -393 703 c 0
 -423 706 -452 708 -483 708 c 0
 -519 708 -552 706 -580 705 c 0
 -609 702 -631 697 -642 696 c 1
 -635 729 -621 760 -600 790 c 0
 -577 819 -550 842 -515 860 c 0
 -480 877 -444 884 -403 884 c 1
-416 834 m 1
 -451 834 -480 826 -508 808 c 0
 -534 792 -551 773 -557 753 c 1
 -550 754 -538 754 -522 755 c 0
 -508 757 -487 757 -458 757 c 0
 -434 757 -416 757 -403 755 c 0
 -362 753 -328 745 -303 735 c 0
 -278 728 -264 719 -255 715 c 1
 -287 783 -339 822 -416 834 c 1
EndSplineSet
EndChar
StartChar: uni0E35.left
Encoding: 230 63234 100
OldEncoding: 63234
Width: 0
Flags: W
HStem: 708 49<-481 -416> 834 50<-386 -370>
VStem: -235 62<821 950>
Fore
-235 821 m 1
 -235 950 l 1
 -173 950 l 1
 -173 722 l 1
 -173 722 l 1
 -171 722 -168 715 -164 697 c 0
 -160 680 -154 664 -152 652 c 1
 -171 658 -199 668 -238 680 c 0
 -277 692 -318 697 -361 703 c 0
 -390 706 -419 708 -451 708 c 0
 -487 708 -519 706 -547 705 c 0
 -577 702 -597 697 -609 696 c 1
 -603 731 -589 761 -567 792 c 0
 -545 819 -516 842 -481 860 c 0
 -450 877 -412 884 -370 884 c 1
 -342 882 -319 874 -300 866 c 0
 -280 857 -265 847 -254 840 c 0
 -244 831 -238 824 -235 821 c 1
-383 834 m 1
 -407 834 -429 829 -450 821 c 0
 -468 812 -484 803 -499 790 c 0
 -512 779 -519 766 -525 753 c 1
 -516 754 -505 754 -490 755 c 0
 -476 757 -454 757 -426 757 c 0
 -402 757 -383 757 -370 755 c 0
 -329 753 -294 745 -270 735 c 0
 -246 728 -231 719 -223 715 c 1
 -235 742 -252 768 -276 792 c 0
 -300 815 -336 829 -383 834 c 1
EndSplineSet
EndChar
StartChar: uni0E36.left
Encoding: 231 63235 101
OldEncoding: 63235
Width: 0
Flags: W
HStem: 708 49<-499 -449> 834 53<-435 -416> 916 44<-275 -255>
VStem: -355 48<873 885> -225 48<869 885>
Fore
-177 871 m 0
 -177 850 -181 832 -193 816 c 0
 -204 799 -219 790 -238 786 c 1
 -231 774 -222 757 -209 732 c 0
 -197 708 -188 680 -186 652 c 1
 -203 658 -231 668 -270 680 c 0
 -310 692 -351 697 -393 703 c 0
 -423 706 -452 708 -483 708 c 0
 -519 708 -552 706 -580 705 c 0
 -609 702 -631 697 -642 696 c 1
 -631 753 -605 798 -564 834 c 0
 -522 870 -478 887 -431 887 c 0
 -413 887 -399 886 -386 883 c 0
 -373 880 -362 877 -355 873 c 1
 -355 895 -348 915 -331 932 c 0
 -315 950 -293 960 -267 960 c 0
 -239 960 -216 953 -202 934 c 0
 -186 918 -177 896 -177 871 c 0
-265 916 m 0
 -280 916 -290 912 -297 905 c 0
 -304 896 -307 886 -307 874 c 0
 -307 866 -304 856 -297 847 c 0
 -289 840 -278 834 -265 834 c 0
 -254 834 -244 840 -236 847 c 0
 -228 856 -225 864 -225 874 c 0
 -225 886 -228 896 -236 905 c 0
 -242 912 -252 916 -265 916 c 0
-416 834 m 1
 -441 834 -463 829 -481 821 c 0
 -502 812 -518 803 -531 790 c 0
 -544 779 -552 766 -557 753 c 1
 -550 754 -538 754 -522 755 c 0
 -508 757 -487 757 -458 757 c 0
 -434 757 -416 757 -403 755 c 0
 -362 753 -328 745 -303 735 c 0
 -278 728 -264 719 -255 715 c 1
 -267 742 -286 767 -307 790 c 0
 -332 812 -368 828 -416 834 c 1
EndSplineSet
EndChar
StartChar: uni0E37.left
Encoding: 232 63236 102
OldEncoding: 63236
Width: 0
Flags: W
HStem: 708 49<-478 -416> 834 53<-402 -383>
VStem: -357 63<883 950> -235 62<819 950>
Fore
-173 721 m 1
 -171 721 -164 697 -152 652 c 1
 -171 658 -199 668 -238 680 c 0
 -277 692 -318 697 -361 703 c 0
 -390 706 -419 708 -451 708 c 0
 -487 708 -519 706 -547 705 c 0
 -577 702 -597 697 -609 696 c 1
 -603 732 -589 766 -567 793 c 0
 -545 822 -518 845 -487 861 c 0
 -455 880 -425 887 -393 887 c 0
 -381 887 -368 886 -357 883 c 1
 -357 950 l 1
 -294 950 l 1
 -294 864 l 1
 -268 854 -249 840 -235 819 c 1
 -235 950 l 1
 -173 950 l 1
 -173 721 l 1
-383 834 m 1
 -418 834 -447 826 -476 808 c 0
 -502 792 -518 773 -525 753 c 1
 -516 754 -505 754 -490 755 c 0
 -476 757 -454 757 -426 757 c 0
 -402 757 -383 757 -370 755 c 0
 -329 753 -294 745 -270 735 c 0
 -246 728 -231 719 -223 715 c 1
 -254 783 -306 822 -383 834 c 1
EndSplineSet
EndChar
StartChar: uni0E48.low_left
Encoding: 233 63237 104
OldEncoding: 63237
Width: 0
Flags: W
VStem: -274 62<658 906>
Fore
-274 658 m 1
 -274 906 l 1
 -212 906 l 1
 -212 658 l 1
 -274 658 l 1
EndSplineSet
EndChar
